<svg width="79" height="63" viewBox="0 0 79 63" fill="none" xmlns="http://www.w3.org/2000/svg">
<path fill-rule="evenodd" clip-rule="evenodd" d="M40.2099 25.2615C38.5788 26.7158 35.99 25.9941 35.3465 23.9057L32.544 14.8102C32.2702 13.9216 31.5998 13.2102 30.729 12.8842L17.929 8.09085C17.284 7.8493 16.5584 8.10271 16.204 8.69334V8.69334C15.743 9.4617 16.0955 10.4599 16.9368 10.7684L28.9229 15.1633C29.8007 15.4851 30.4783 16.1978 30.7554 17.0907L34.2185 28.2496C34.567 29.3726 34.2274 30.5956 33.3498 31.378L25.6581 38.2359C23.8962 39.8069 24.5549 42.7032 26.823 43.3576L57.2807 52.1444C59.8593 52.8883 62.0426 50.1311 60.7273 47.7917L47.2667 23.8503C46.3277 22.1803 44.0852 21.8063 42.6551 23.0814L40.2099 25.2615Z" fill="white"/>
</svg>
