<svg xmlns="http://www.w3.org/2000/svg" xmlns:xlink="http://www.w3.org/1999/xlink" viewBox="0 0 69.23 50.85"><defs><style>.cls-1{fill:#ededed;}.cls-2{fill:url(#Degradado_sin_nombre_4);}.cls-3{fill:#b17f4a;}.cls-4{fill:url(#Degradado_sin_nombre_41);}</style><linearGradient id="Degradado_sin_nombre_4" x1="11.91" y1="32.2" x2="55.6" y2="4.67" gradientUnits="userSpaceOnUse"><stop offset="0" stop-color="#b17f4a"/><stop offset="1" stop-color="#936037"/></linearGradient><linearGradient id="Degradado_sin_nombre_41" x1="44.22" y1="42.57" x2="69.95" y2="26.35" gradientUnits="userSpaceOnUse"><stop offset="0" stop-color="#73542f"/><stop offset="1" stop-color="#936037"/></linearGradient></defs><g id="Capa_2" data-name="Capa 2"><g id="Capa_1-2" data-name="Capa 1"><polygon class="cls-1" points="28.02 0.42 68.04 23.51 68.33 32.74 69.11 33.07 68.1 37.24 45.4 50.24 38.59 49.06 1.05 27.34 0.05 14.73 1.17 13.53 24.03 0.42 28.02 0.42"/><path class="cls-2" d="M67,22.94l-.51.17A20.51,20.51,0,0,0,62.57,25c-2,1.21-4,2.39-6,3.65-2.26,1.45-4.49,3-6.7,4.47s-4.27,3-6.4,4.54a1.94,1.94,0,0,1-2.13.38l-.53-.26-5.2-3-6.49-3.74-5.49-3.18-5.83-3.36-4.9-2.84L9.12,19.49c-1.85-1.06-3.69-2.14-5.55-3.2C2.81,15.85,2,15.45,1.26,15s-.7-1-.09-1.47a.36.36,0,0,1,.12-.08l2.43-1.39C5.15,11.24,6.59,10.43,8,9.6l3.77-2.2,5-2.86C19,3.25,21.22,1.94,23.48.68a5.13,5.13,0,0,1,5.06,0c1.12.58,2.2,1.23,3.29,1.86l4,2.29,6.38,3.7,2,1.14a.69.69,0,0,1-.28,0c-.65,0-1.29-.1-1.94-.08a1.56,1.56,0,0,0-1.28.68c.25.09.46.34.73.13a2.49,2.49,0,0,1,2-.49,11.9,11.9,0,0,1,1.92.53,3.12,3.12,0,0,1,1.38.88.53.53,0,0,1-.11.88,2.25,2.25,0,0,1-.68.27c-.32.08-.66.11-1,.17a.51.51,0,0,0,.65.3c.55-.14,1.1-.29,1.64-.47a.63.63,0,0,0,.49-.79L67.06,22.87Zm-28.73-9.4c-.55-.27-1.11-.52-1.63-.83a1,1,0,0,0-1.39.16l2.57,3c-.62-.17-1.19-.32-1.74-.5l-2.89-1a1.27,1.27,0,0,0-1.37.25l1.7,1.16c.77.52,1.53,1,2.3,1.56.47.33.51.33,1,0L33,14.78l0-.06,1.67.52,3.53,1c.3.09.42,0,.74-.18l-2.67-3,0-.05,1.26.65c.81.43,1.61.88,2.42,1.3A.86.86,0,0,0,41.14,15ZM27.63,22.22c.11.07.24.1.34.17.32.23.54,0,.75-.16s.07-.37,0-.57c-.37-1-.73-1.95-1.1-2.92-.08-.21-.2-.41-.29-.61l.05-.06.94.61c.83.55,1.67,1.11,2.51,1.65.36.23.6.16.94-.2L27.9,17.7a4.88,4.88,0,0,0-.58-.34.7.7,0,0,0-.45,0c-.43.17-.45.25-.31.7a19.76,19.76,0,0,0,1.38,3.64l-.05.07c-.56-.38-1.13-.74-1.68-1.13s-1.1-.8-1.65-1.19c-.4-.28-.6-.24-1,.17Zm1.24-5.47c.41-.22.81-.44,1.2-.69a.56.56,0,0,1,.72,0c.35.27.74.48,1.15.75l-1.81,1c.35.32.48.33.85.1l.87-.56a1,1,0,0,1,1.16,0l1.17.76-2,1.17c.35.33.53.34.9.11.67-.41,1.34-.79,2-1.19l.22-.13-3.19-2c-.41-.25-.83-.49-1.23-.75a.55.55,0,0,0-.61,0L28,16.63C28.41,17,28.45,17,28.87,16.75ZM38,12l1.18-.61a.72.72,0,0,1,.84,0c.34.23.71.42,1.11.65L39.33,13a.7.7,0,0,0,1,0l.76-.45a1.08,1.08,0,0,1,1.18,0l1.17.74-2,1a.67.67,0,0,0,.93.11c.72-.39,1.46-.74,2.2-1.11l-1.63-1c-1-.56-2-1.11-2.94-1.68a.36.36,0,0,0-.44,0c-.67.35-1.35.68-2,1-.1,0-.19.1-.31.16A.65.65,0,0,0,38,12ZM20.44,22.6c.28-.2.53-.44.82-.63a.48.48,0,0,1,.42,0c.55.32,1.08.67,1.62,1l2.12,1.39a.39.39,0,0,0,.49,0L26.3,24l-4.22-2.67,1.41-1c-.4-.4-.45-.39-.87-.09-1,.71-1.94,1.42-2.91,2.12l-.13.1C19.87,22.85,20.06,22.88,20.44,22.6Z"/><path class="cls-3" d="M41.78,50.58c-.63-.25-1.24-.45-1.8-.74-.94-.5-1.84-1.05-2.76-1.59l-7.64-4.46-5.52-3.18-7.78-4.48L8.64,31.71c-2.52-1.46-5.06-2.91-7.59-4.36a1.63,1.63,0,0,1-.81-.94A6.64,6.64,0,0,1,.05,25c0-2.88,0-5.76,0-8.64,0-.58,0-1.15.05-1.65a6.35,6.35,0,0,0,.9.82c1.58.94,3.19,1.83,4.78,2.75L12,21.92l5.78,3.33L24,28.83l4.55,2.62,4.88,2.82c1.49.85,3,1.73,4.45,2.56a14.74,14.74,0,0,0,3.76,1.89c.19,0,.25.17.25.37a12.81,12.81,0,0,0,0,1.86,21.44,21.44,0,0,0,.52,2.48,10.35,10.35,0,0,1,.22,4.79,15.91,15.91,0,0,0-.19,1.89c.3-.1.54-.26.71-.21a.25.25,0,0,0,.34-.13,14.81,14.81,0,0,0,1-1.49,8.67,8.67,0,0,0,.88-3.16v1.67L69.11,33.07l.11,0c0,.75,0,1.5,0,2.24a2.11,2.11,0,0,1-1.12,1.89c-.7.39-1.38.83-2.08,1.24L60,42l-6.66,3.8-5.83,3.36c-.5.29-1,.58-1.52.85a5.7,5.7,0,0,1-2.78.66.52.52,0,0,0-.4.2ZM24.17,37.09C24.1,36,24,34.81,24,33.67c0-.5-.11-.86-.62-1a1.72,1.72,0,0,1-.22-.12l-1.32,3.68c-.14-.51-.28-1-.39-1.44-.25-1.07-.49-2.15-.73-3.22a1.32,1.32,0,0,0-1-1c0,.67-.08,1.31-.12,2-.05,1-.11,2-.16,3,0,.31.12.46.58.6l.21-4.51a.91.91,0,0,1,.08.18l.87,3.52c.13.5.29,1,.42,1.5a.78.78,0,0,0,.56.54l1.32-3.87c0,.42.06.77.07,1.13,0,1,0,2.06.06,3.1,0,.5.13.67.66.88ZM15,31c0-.94,0-1.87,0-2.81a.65.65,0,0,0-.56-.72.31.31,0,0,0-.22.11l-2.26,2.84c0-.05,0-.17,0-.29,0-1.13.07-2.26.12-3.39,0-.57-.07-.74-.61-1,0,.1,0,.2,0,.29,0,1.6,0,3.21,0,4.82a.62.62,0,0,0,.46.6.45.45,0,0,0,.33-.16c.74-.93,1.48-1.88,2.22-2.83a1.11,1.11,0,0,1,.05.24c0,1.07-.07,2.15-.11,3.22,0,.17,0,.35,0,.53,0,.41.15.58.61.72Zm1.23-1.92c.41.23.81.49,1.23.7a.67.67,0,0,1,.42.72c0,.4,0,.81,0,1.27l-1.8-1c-.09.45,0,.56.34.76l1.09.58a.75.75,0,0,1,.39.74c0,.48,0,1,0,1.51l-2-1.16c-.07.52,0,.6.38.83l2,1.09.3.15V35c0-1.6,0-3.19,0-4.79a.62.62,0,0,0-.19-.45c-.76-.48-1.54-.92-2.32-1.38A.54.54,0,0,0,16.21,29.11Zm9.17,5.3c.45.23.87.5,1.31.75a.49.49,0,0,1,.3.52c0,.44,0,.88,0,1.4l-1.82-1c-.07.47,0,.54.33.76l1.14.62a.65.65,0,0,1,.36.65c0,.5,0,1,0,1.58l-2-1.16c-.11.48-.07.59.31.8l2,1.12a3,3,0,0,0,.3.14v-.47c0-1.55,0-3.1,0-4.64a.47.47,0,0,0-.27-.49c-.76-.42-1.5-.86-2.27-1.31A.6.6,0,0,0,25.38,34.41Zm3.23,6.68a4,4,0,0,0,1.82,1.06,1.1,1.1,0,0,0,1.39-.73,3.39,3.39,0,0,0,0-2.45,5.47,5.47,0,0,0-1.84-2.55,2.82,2.82,0,0,0-1.5-.7c-.1.49,0,.63.45.73a2.84,2.84,0,0,1,1.57,1.09,3.79,3.79,0,0,1,.83,3.07.91.91,0,0,1-1.37.77,6.47,6.47,0,0,1-1.11-.7,3.47,3.47,0,0,1-.3-.27A.51.51,0,0,0,28.61,41.09ZM7.79,24.29a4.27,4.27,0,0,0,.61.29.75.75,0,0,1,.46.8c0,1.29,0,2.58,0,3.87,0,.52.07.63.63.81V25.22l1.39.79c.12-.48.1-.52-.27-.74L7.42,23.46A.64.64,0,0,0,7.79,24.29Z"/><path class="cls-4" d="M43.1,38.69a5.1,5.1,0,0,1,1.83,1.89,8.16,8.16,0,0,1,1,3c.08.66.12,1.33.19,2,.12-.06.26-.12.39-.2l8-4.63,8-4.6c1.95-1.13,3.9-2.25,5.84-3.39a.55.55,0,0,0,.25-.35A22.31,22.31,0,0,0,69,26.13a16.64,16.64,0,0,0-.37-1.84.76.76,0,0,0-.13-.29c-.14-.17-.29-.33-.43-.49s-.38,0-.57,0a8,8,0,0,0-2.44.94c-1.38.71-2.77,1.44-4.12,2.24-1.73,1-3.43,2.15-5.13,3.25-1.23.79-2.46,1.6-3.67,2.42-1.63,1.11-3.25,2.22-4.86,3.35-1.35.94-2.68,1.9-4,2.85Z"/></g></g></svg>