<svg xmlns="http://www.w3.org/2000/svg" xmlns:xlink="http://www.w3.org/1999/xlink" viewBox="0 0 300.38 312.26"><defs><style>.cls-1{isolation:isolate;}.cls-2{fill:url(#New_Gradient_Swatch_copy_9);}.cls-3{fill:url(#New_Gradient_Swatch_copy_18);}.cls-13,.cls-4,.cls-48,.cls-51,.cls-79,.cls-8,.cls-80,.cls-84{mix-blend-mode:color-dodge;}.cls-4{fill:url(#Radial_Gradient_1);}.cls-5{fill:url(#New_Gradient_Swatch_copy_9-2);}.cls-6{fill:url(#linear-gradient);}.cls-7{fill:url(#New_Gradient_Swatch_copy_16);}.cls-8{fill:url(#Radial_Gradient_1-2);}.cls-9{fill:url(#New_Gradient_Swatch_copy_9-3);}.cls-10{fill:url(#New_Gradient_Swatch_copy_9-4);}.cls-11{fill:url(#New_Gradient_Swatch_copy_9-5);}.cls-12,.cls-85,.cls-86,.cls-87,.cls-88{opacity:0.5;}.cls-12{fill:url(#New_Gradient_Swatch_copy_16-2);}.cls-14{fill:url(#Radial_Gradient_1-3);}.cls-15{fill:url(#Radial_Gradient_1-4);}.cls-16{fill:url(#Radial_Gradient_1-5);}.cls-17{fill:url(#Radial_Gradient_1-6);}.cls-18{fill:url(#New_Gradient_Swatch_copy_9-6);}.cls-19,.cls-33,.cls-77,.cls-81,.cls-82,.cls-83,.cls-85,.cls-86,.cls-87,.cls-88{mix-blend-mode:screen;}.cls-19{fill:url(#linear-gradient-2);}.cls-20{fill:url(#New_Gradient_Swatch_copy_9-7);}.cls-21{fill:url(#New_Gradient_Swatch_copy_9-8);}.cls-22{fill:url(#New_Gradient_Swatch_copy_9-9);}.cls-23,.cls-26,.cls-52,.cls-53,.cls-56,.cls-58,.cls-60,.cls-61,.cls-62{mix-blend-mode:multiply;}.cls-24{fill:#c0a35a;}.cls-25{fill:url(#New_Gradient_Swatch_copy_16-3);}.cls-26{fill:url(#linear-gradient-3);}.cls-27{fill:url(#linear-gradient-4);}.cls-28{fill:url(#New_Gradient_Swatch_copy_10);}.cls-29{fill:url(#New_Gradient_Swatch_copy_9-10);}.cls-30{fill:url(#New_Gradient_Swatch_copy_16-4);}.cls-31{fill:url(#New_Gradient_Swatch_copy_16-5);}.cls-32{fill:url(#New_Gradient_Swatch_copy_20);}.cls-33{fill:url(#Radial_Gradient_1-7);}.cls-34{fill:url(#New_Gradient_Swatch_copy_9-11);}.cls-35{fill:url(#New_Gradient_Swatch_copy_19);}.cls-36{fill:url(#New_Gradient_Swatch_copy_16-6);}.cls-37{fill:url(#New_Gradient_Swatch_copy_16-7);}.cls-38{fill:url(#New_Gradient_Swatch_copy_16-8);}.cls-39{fill:url(#New_Gradient_Swatch_copy_16-9);}.cls-40{fill:url(#Radial_Gradient_1-8);}.cls-41{fill:url(#Radial_Gradient_1-9);}.cls-42{fill:url(#linear-gradient-5);}.cls-43{fill:url(#New_Gradient_Swatch_copy_16-10);}.cls-44{fill:url(#radial-gradient);}.cls-45{fill:url(#radial-gradient-2);}.cls-46{fill:url(#New_Gradient_Swatch_copy_9-12);}.cls-47{fill:url(#New_Gradient_Swatch_copy_18-2);}.cls-48{fill:url(#Radial_Gradient_1-10);}.cls-49{fill:url(#linear-gradient-6);}.cls-50{fill:url(#New_Gradient_Swatch_copy_16-11);}.cls-51{fill:url(#Radial_Gradient_1-11);}.cls-52{fill:url(#New_Gradient_Swatch_copy_16-12);}.cls-53{fill:url(#New_Gradient_Swatch_copy_16-13);}.cls-54{fill:url(#linear-gradient-7);}.cls-55{fill:url(#linear-gradient-8);}.cls-56{fill:url(#linear-gradient-9);}.cls-57{fill:url(#linear-gradient-10);}.cls-58{fill:url(#linear-gradient-11);}.cls-59{fill:url(#linear-gradient-12);}.cls-60{fill:url(#linear-gradient-13);}.cls-61{fill:url(#New_Gradient_Swatch_copy_16-14);}.cls-62{fill:url(#linear-gradient-14);}.cls-63{fill:url(#New_Gradient_Swatch_copy_17);}.cls-64{fill:url(#New_Gradient_Swatch_copy_17-2);}.cls-65{fill:url(#New_Gradient_Swatch_copy_17-3);}.cls-66{fill:url(#New_Gradient_Swatch_copy_17-4);}.cls-67{fill:url(#New_Gradient_Swatch_copy_17-5);}.cls-68{fill:url(#New_Gradient_Swatch_copy_17-6);}.cls-69{fill:url(#New_Gradient_Swatch_copy_17-7);}.cls-70{fill:url(#New_Gradient_Swatch_copy_17-8);}.cls-71{fill:url(#New_Gradient_Swatch_copy_17-9);}.cls-72{fill:url(#New_Gradient_Swatch_copy_17-10);}.cls-73{fill:url(#New_Gradient_Swatch_copy_17-11);}.cls-74{fill:url(#New_Gradient_Swatch_copy_17-12);}.cls-75{fill:url(#New_Gradient_Swatch_copy_17-13);}.cls-76{fill:url(#New_Gradient_Swatch_copy_17-14);}.cls-77{fill:url(#Radial_Gradient_1-12);}.cls-78{fill:url(#New_Gradient_Swatch_copy_16-15);}.cls-79{fill:url(#Radial_Gradient_1-13);}.cls-80{fill:url(#Radial_Gradient_1-14);}.cls-81{fill:url(#Radial_Gradient_1-15);}.cls-82{fill:url(#Radial_Gradient_1-16);}.cls-83{fill:url(#Radial_Gradient_1-17);}.cls-84{fill:url(#radial-gradient-3);}.cls-85{fill:url(#linear-gradient-15);}.cls-86{fill:url(#linear-gradient-16);}.cls-87{fill:url(#linear-gradient-17);}.cls-88{fill:url(#linear-gradient-18);}</style><linearGradient id="New_Gradient_Swatch_copy_9" x1="6937.3" y1="111.97" x2="6957" y2="111.97" gradientTransform="matrix(-1, 0, 0, 1, 7145.54, -10.19)" gradientUnits="userSpaceOnUse"><stop offset="0" stop-color="#070711"/><stop offset="1"/></linearGradient><radialGradient id="New_Gradient_Swatch_copy_18" cx="6941.64" cy="106.15" r="20.21" gradientTransform="matrix(-1, 0, 0, 1, 7145.54, -10.19)" gradientUnits="userSpaceOnUse"><stop offset="0.01" stop-color="#fff"/><stop offset="0.11" stop-color="#ede5d0"/><stop offset="0.22" stop-color="#ddcea7"/><stop offset="0.31" stop-color="#d4bf8d"/><stop offset="0.36" stop-color="#d0ba84"/><stop offset="0.49" stop-color="#cab274"/><stop offset="0.72" stop-color="#bc9d4e"/><stop offset="0.99" stop-color="#bc9d4e"/><stop offset="1" stop-color="#bc9d4e"/></radialGradient><radialGradient id="Radial_Gradient_1" cx="6939.94" cy="106.73" r="6.23" gradientTransform="matrix(-1, 0, 0, 1, 7145.54, -10.19)" gradientUnits="userSpaceOnUse"><stop offset="0" stop-color="#fff"/><stop offset="1"/></radialGradient><linearGradient id="New_Gradient_Swatch_copy_9-2" x1="6900.04" y1="137.85" x2="7291.21" y2="50.16" xlink:href="#New_Gradient_Swatch_copy_9"/><linearGradient id="linear-gradient" x1="7067.38" y1="54.4" x2="6963.95" y2="237.4" gradientTransform="matrix(-1, 0, 0, 1, 7145.54, -10.19)" gradientUnits="userSpaceOnUse"><stop offset="0.01" stop-color="#c5ab68"/><stop offset="0.11" stop-color="#c6ad6b"/><stop offset="0.18" stop-color="#cab274"/><stop offset="0.24" stop-color="#d0bb84"/><stop offset="0.3" stop-color="#d8c79b"/><stop offset="0.36" stop-color="#e4d7b8"/><stop offset="0.41" stop-color="#f1ebdb"/><stop offset="0.45" stop-color="#fff"/><stop offset="0.49" stop-color="#f7f4eb"/><stop offset="0.58" stop-color="#e6dbbf"/><stop offset="0.66" stop-color="#dac99f"/><stop offset="0.73" stop-color="#d3be8b"/><stop offset="0.78" stop-color="#d0ba84"/><stop offset="0.86" stop-color="#c7ae6e"/><stop offset="0.93" stop-color="#c2a65f"/><stop offset="1" stop-color="#c0a35a"/></linearGradient><linearGradient id="New_Gradient_Swatch_copy_16" x1="7045.1" y1="200.14" x2="7327.8" y2="115.49" gradientTransform="matrix(-1, 0, 0, 1, 7145.54, -10.19)" gradientUnits="userSpaceOnUse"><stop offset="0" stop-color="#bc9d4e"/><stop offset="0.14" stop-color="#bea155"/><stop offset="0.35" stop-color="#c5aa67"/><stop offset="0.58" stop-color="#d0ba84"/><stop offset="0.68" stop-color="#d3c194"/><stop offset="0.87" stop-color="#dcd1bd"/><stop offset="1" stop-color="#e2dedb"/></linearGradient><radialGradient id="Radial_Gradient_1-2" cx="7081.67" cy="174.4" r="54.35" xlink:href="#Radial_Gradient_1"/><linearGradient id="New_Gradient_Swatch_copy_9-3" x1="7054.62" y1="172.73" x2="7175.84" y2="136.43" xlink:href="#New_Gradient_Swatch_copy_9"/><linearGradient id="New_Gradient_Swatch_copy_9-4" x1="6876.89" y1="226.11" x2="7091.47" y2="178.01" xlink:href="#New_Gradient_Swatch_copy_9"/><linearGradient id="New_Gradient_Swatch_copy_9-5" x1="6959.84" y1="205.21" x2="7090.65" y2="222.77" xlink:href="#New_Gradient_Swatch_copy_9"/><linearGradient id="New_Gradient_Swatch_copy_16-2" x1="146.36" y1="204.35" x2="259.22" y2="219.51" gradientTransform="matrix(1, 0, 0, 1, 0.03, 1.82)" xlink:href="#New_Gradient_Swatch_copy_16"/><radialGradient id="Radial_Gradient_1-3" cx="6979.6" cy="222.7" r="19.67" xlink:href="#Radial_Gradient_1"/><radialGradient id="Radial_Gradient_1-4" cx="6980.59" cy="213.94" r="23.86" xlink:href="#Radial_Gradient_1"/><radialGradient id="Radial_Gradient_1-5" cx="6981.13" cy="204.94" r="25.08" xlink:href="#Radial_Gradient_1"/><radialGradient id="Radial_Gradient_1-6" cx="6981.13" cy="195.5" r="25.08" xlink:href="#Radial_Gradient_1"/><linearGradient id="New_Gradient_Swatch_copy_9-6" x1="6987.24" y1="189.87" x2="7002.94" y2="111.81" xlink:href="#New_Gradient_Swatch_copy_9"/><linearGradient id="linear-gradient-2" x1="7007.66" y1="219.76" x2="6986.26" y2="97.64" gradientTransform="matrix(-1, 0, 0, 1, 7145.54, -10.19)" gradientUnits="userSpaceOnUse"><stop offset="0" stop-color="#ba9b4a"/><stop offset="0.12" stop-color="#9a803d"/><stop offset="0.34" stop-color="#645328"/><stop offset="0.55" stop-color="#393017"/><stop offset="0.73" stop-color="#1a160b"/><stop offset="0.89" stop-color="#080704"/><stop offset="1" stop-color="#010101"/></linearGradient><linearGradient id="New_Gradient_Swatch_copy_9-7" x1="6986.14" y1="175.75" x2="7008.35" y2="122.83" xlink:href="#New_Gradient_Swatch_copy_9"/><linearGradient id="New_Gradient_Swatch_copy_9-8" x1="6974.92" y1="144.86" x2="7018.83" y2="90.29" xlink:href="#New_Gradient_Swatch_copy_9"/><linearGradient id="New_Gradient_Swatch_copy_9-9" x1="7007.64" y1="171.15" x2="7051.54" y2="116.58" xlink:href="#New_Gradient_Swatch_copy_9"/><linearGradient id="New_Gradient_Swatch_copy_16-3" x1="7085.42" y1="177.2" x2="7111.33" y2="181.48" xlink:href="#New_Gradient_Swatch_copy_16"/><linearGradient id="linear-gradient-3" x1="7076.18" y1="218.88" x2="7121.34" y2="198.63" gradientTransform="matrix(-1, 0, 0, 1, 7145.54, -10.19)" gradientUnits="userSpaceOnUse"><stop offset="0" stop-color="#e1d2b1"/><stop offset="1" stop-color="#fff"/></linearGradient><linearGradient id="linear-gradient-4" x1="7114.88" y1="216.45" x2="7135.66" y2="275.25" gradientTransform="matrix(-1, 0, 0, 1, 7145.54, -10.19)" gradientUnits="userSpaceOnUse"><stop offset="0.02" stop-color="#ab8924"/><stop offset="0.53" stop-color="#bc9d4e"/><stop offset="0.65" stop-color="#bea155"/><stop offset="0.81" stop-color="#c5aa67"/><stop offset="1" stop-color="#d0ba84"/></linearGradient><linearGradient id="New_Gradient_Swatch_copy_10" x1="-2315.93" y1="276.91" x2="-2362.56" y2="214.43" gradientTransform="matrix(1, 0, 0, 1, 2398.83, -2.21)" gradientUnits="userSpaceOnUse"><stop offset="0" stop-color="#070711"/><stop offset="0.5"/><stop offset="1" stop-color="#070711"/></linearGradient><linearGradient id="New_Gradient_Swatch_copy_9-10" x1="7073.92" y1="249.17" x2="7164.7" y2="266.57" gradientTransform="matrix(-0.86, -0.5, -0.5, 0.86, 6303.77, 3618.78)" xlink:href="#New_Gradient_Swatch_copy_9"/><linearGradient id="New_Gradient_Swatch_copy_16-4" x1="7079.1" y1="253.81" x2="7117.13" y2="253.81" gradientTransform="matrix(-0.86, -0.5, -0.5, 0.86, 6303.77, 3618.78)" xlink:href="#New_Gradient_Swatch_copy_16"/><linearGradient id="New_Gradient_Swatch_copy_16-5" x1="7078.94" y1="252.92" x2="7112.56" y2="252.92" xlink:href="#New_Gradient_Swatch_copy_16"/><radialGradient id="New_Gradient_Swatch_copy_20" cx="7095.88" cy="253.9" r="5.74" gradientTransform="matrix(-1, 0, 0, 1, 7145.54, -10.19)" gradientUnits="userSpaceOnUse"><stop offset="0" stop-color="#fffdf3"/><stop offset="0.58" stop-color="#fff9e0"/><stop offset="1" stop-color="#e1d2b1"/><stop offset="1" stop-color="#e1d2b1"/></radialGradient><radialGradient id="Radial_Gradient_1-7" cx="-2345.79" cy="252.9" r="28.88" gradientTransform="matrix(1, 0, 0, 1, 2398.83, -2.21)" xlink:href="#Radial_Gradient_1"/><linearGradient id="New_Gradient_Swatch_copy_9-11" x1="34.98" y1="253.45" x2="65.23" y2="253.45" gradientTransform="matrix(1, 0, 0, 1, 0.03, 1.82)" xlink:href="#New_Gradient_Swatch_copy_9"/><linearGradient id="New_Gradient_Swatch_copy_19" x1="-2342.3" y1="260.96" x2="-2355.09" y2="243.82" gradientTransform="matrix(1, 0, 0, 1, 2398.83, -2.21)" gradientUnits="userSpaceOnUse"><stop offset="0.01" stop-color="#c5ab68"/><stop offset="0.04" stop-color="#c9b172"/><stop offset="0.08" stop-color="#d3c08d"/><stop offset="0.14" stop-color="#e4d8ba"/><stop offset="0.21" stop-color="#fcfaf6"/><stop offset="0.22" stop-color="#fff"/><stop offset="0.24" stop-color="#fbfaf5"/><stop offset="0.28" stop-color="#f1ebdb"/><stop offset="0.32" stop-color="#e1d3b1"/><stop offset="0.36" stop-color="#d0ba84"/><stop offset="0.45" stop-color="#c7ad6c"/><stop offset="0.54" stop-color="#c1a55d"/><stop offset="0.61" stop-color="#bfa258"/><stop offset="1" stop-color="#c0a35a"/></linearGradient><linearGradient id="New_Gradient_Swatch_copy_16-6" x1="7090.73" y1="251.41" x2="7122.02" y2="263.83" xlink:href="#New_Gradient_Swatch_copy_16"/><linearGradient id="New_Gradient_Swatch_copy_16-7" x1="7080.92" y1="286.97" x2="7078.27" y2="196.02" xlink:href="#New_Gradient_Swatch_copy_16"/><linearGradient id="New_Gradient_Swatch_copy_16-8" x1="7090.34" y1="251.91" x2="7049.72" y2="219.8" xlink:href="#New_Gradient_Swatch_copy_16"/><linearGradient id="New_Gradient_Swatch_copy_16-9" x1="7074.8" y1="244.18" x2="7233.96" y2="245.6" xlink:href="#New_Gradient_Swatch_copy_16"/><radialGradient id="Radial_Gradient_1-8" cx="7086.98" cy="241.58" r="18.67" xlink:href="#Radial_Gradient_1"/><radialGradient id="Radial_Gradient_1-9" cx="7118.44" cy="223.97" r="9.37" xlink:href="#Radial_Gradient_1"/><linearGradient id="linear-gradient-5" x1="7062.63" y1="253.94" x2="6926.3" y2="253.94" gradientTransform="matrix(-1, 0, 0, 1, 7145.54, -10.19)" gradientUnits="userSpaceOnUse"><stop offset="0" stop-color="#c9af71"/><stop offset="0.06" stop-color="#c4a863"/><stop offset="0.14" stop-color="#bb9c4c"/><stop offset="0.18" stop-color="#e8dec4"/><stop offset="0.2" stop-color="#fff"/><stop offset="0.21" stop-color="#fbfaf5"/><stop offset="0.22" stop-color="#f1ebdb"/><stop offset="0.24" stop-color="#e1d3b1"/><stop offset="0.26" stop-color="#d0ba84"/><stop offset="0.52" stop-color="#c7ae6e"/><stop offset="0.78" stop-color="#c2a65f"/><stop offset="1" stop-color="#c0a35a"/></linearGradient><linearGradient id="New_Gradient_Swatch_copy_16-10" x1="7016.96" y1="193.8" x2="6988.47" y2="248.1" xlink:href="#New_Gradient_Swatch_copy_16"/><radialGradient id="radial-gradient" cx="6932.36" cy="209.96" r="2.07" gradientTransform="matrix(-1, 0, 0, 1, 7145.54, -10.19)" gradientUnits="userSpaceOnUse"><stop offset="0" stop-color="#a58112"/><stop offset="0.11" stop-color="#7c610e"/><stop offset="0.24" stop-color="#56440a"/><stop offset="0.37" stop-color="#372b07"/><stop offset="0.51" stop-color="#1f1904"/><stop offset="0.65" stop-color="#0e0b02"/><stop offset="0.81" stop-color="#040401"/><stop offset="1" stop-color="#010101"/></radialGradient><radialGradient id="radial-gradient-2" cx="6993.52" cy="245.15" r="53.58" xlink:href="#radial-gradient"/><linearGradient id="New_Gradient_Swatch_copy_9-12" x1="7062.25" y1="173.57" x2="7076.46" y2="173.57" xlink:href="#New_Gradient_Swatch_copy_9"/><radialGradient id="New_Gradient_Swatch_copy_18-2" cx="7078.9" cy="170.14" r="20.22" xlink:href="#New_Gradient_Swatch_copy_18"/><radialGradient id="Radial_Gradient_1-10" cx="7077.69" cy="170.48" r="6.23" xlink:href="#Radial_Gradient_1"/><linearGradient id="linear-gradient-6" x1="7075.94" y1="27.19" x2="7030.84" y2="105.82" gradientTransform="matrix(-1, 0, 0, 1, 7145.54, -10.19)" gradientUnits="userSpaceOnUse"><stop offset="0.01" stop-color="#c5ab68"/><stop offset="0.08" stop-color="#c9b172"/><stop offset="0.2" stop-color="#d3c08d"/><stop offset="0.36" stop-color="#e4d8ba"/><stop offset="0.55" stop-color="#fcfaf6"/><stop offset="0.57" stop-color="#fff"/><stop offset="0.6" stop-color="#fbfaf5"/><stop offset="0.65" stop-color="#f1ebdb"/><stop offset="0.72" stop-color="#e1d3b1"/><stop offset="0.78" stop-color="#d0ba84"/><stop offset="0.86" stop-color="#c7ae6e"/><stop offset="0.93" stop-color="#c2a65f"/><stop offset="1" stop-color="#c0a35a"/></linearGradient><linearGradient id="New_Gradient_Swatch_copy_16-11" x1="7084.64" y1="103.34" x2="7234.97" y2="58.32" xlink:href="#New_Gradient_Swatch_copy_16"/><radialGradient id="Radial_Gradient_1-11" cx="7105.64" cy="95.97" r="33.37" xlink:href="#Radial_Gradient_1"/><linearGradient id="New_Gradient_Swatch_copy_16-12" x1="7034.87" y1="247.01" x2="7015.04" y2="252.99" xlink:href="#New_Gradient_Swatch_copy_16"/><linearGradient id="New_Gradient_Swatch_copy_16-13" x1="6930.51" y1="193.35" x2="6944.43" y2="213.92" xlink:href="#New_Gradient_Swatch_copy_16"/><linearGradient id="linear-gradient-7" x1="7034.87" y1="245.59" x2="7015.04" y2="251.57" gradientTransform="matrix(-1, 0, 0, 1, 7145.54, -10.19)" gradientUnits="userSpaceOnUse"><stop offset="0" stop-color="#fbf8f9"/><stop offset="1" stop-color="#fff"/></linearGradient><linearGradient id="linear-gradient-8" x1="6930.51" y1="192.25" x2="6944.43" y2="212.82" xlink:href="#linear-gradient-7"/><linearGradient id="linear-gradient-9" x1="6944.85" y1="209.22" x2="6932.32" y2="191.49" gradientTransform="matrix(-1, 0, 0, 1, 7145.54, -10.19)" gradientUnits="userSpaceOnUse"><stop offset="0" stop-color="#aa8620"/><stop offset="0.19" stop-color="#c1a75c"/><stop offset="0.39" stop-color="#d7c696"/><stop offset="0.58" stop-color="#e8dec3"/><stop offset="0.74" stop-color="#f5f0e4"/><stop offset="0.88" stop-color="#fcfbf8"/><stop offset="0.97" stop-color="#fff"/><stop offset="1" stop-color="#fff"/></linearGradient><linearGradient id="linear-gradient-10" x1="7030.05" y1="272.57" x2="7004.55" y2="278.24" xlink:href="#linear-gradient-7"/><linearGradient id="linear-gradient-11" x1="7001.32" y1="270.19" x2="7030.96" y2="276.33" gradientTransform="matrix(-1, 0, 0, 1, 7145.54, -10.19)" gradientUnits="userSpaceOnUse"><stop offset="0" stop-color="#aa8620"/><stop offset="0.01" stop-color="#ab8823"/><stop offset="0.22" stop-color="#c4ac65"/><stop offset="0.42" stop-color="#d9c99c"/><stop offset="0.6" stop-color="#eae1c7"/><stop offset="0.76" stop-color="#f5f1e6"/><stop offset="0.9" stop-color="#fcfbf8"/><stop offset="1" stop-color="#fff"/></linearGradient><linearGradient id="linear-gradient-12" x1="6926.69" y1="218.55" x2="6947.78" y2="243.42" xlink:href="#linear-gradient-7"/><linearGradient id="linear-gradient-13" x1="6951.42" y1="244.74" x2="6929.46" y2="218.88" xlink:href="#linear-gradient-11"/><linearGradient id="New_Gradient_Swatch_copy_16-14" x1="6950.89" y1="242.36" x2="7051.05" y2="302.01" xlink:href="#New_Gradient_Swatch_copy_16"/><linearGradient id="linear-gradient-14" x1="7009.7" y1="247.11" x2="7040.07" y2="238.02" xlink:href="#linear-gradient-11"/><linearGradient id="New_Gradient_Swatch_copy_17" x1="3172.1" y1="243.42" x2="3179.66" y2="243.42" gradientTransform="matrix(1, 0, 0, 1, -3050.49, 6.95)" gradientUnits="userSpaceOnUse"><stop offset="0.04" stop-color="#fffdf7"/><stop offset="1" stop-color="#fffefa"/></linearGradient><linearGradient id="New_Gradient_Swatch_copy_17-2" x1="1736.63" y1="243.7" x2="1742.19" y2="243.7" gradientTransform="matrix(-1, 0, 0, 1, 1867, -1.32)" xlink:href="#New_Gradient_Swatch_copy_17"/><linearGradient id="New_Gradient_Swatch_copy_17-3" x1="3254.51" y1="202.68" x2="3262.08" y2="202.68" xlink:href="#New_Gradient_Swatch_copy_17"/><linearGradient id="New_Gradient_Swatch_copy_17-4" x1="1654.22" y1="202.97" x2="1659.78" y2="202.97" gradientTransform="matrix(-1, 0, 0, 1, 1867, -1.32)" xlink:href="#New_Gradient_Swatch_copy_17"/><linearGradient id="New_Gradient_Swatch_copy_17-5" x1="3174.5" y1="278.18" x2="3180.43" y2="278.18" xlink:href="#New_Gradient_Swatch_copy_17"/><linearGradient id="New_Gradient_Swatch_copy_17-6" x1="1736.08" y1="278.29" x2="1740.66" y2="278.29" gradientTransform="matrix(-1, 0, 0, 1, 1867, -1.32)" xlink:href="#New_Gradient_Swatch_copy_17"/><linearGradient id="New_Gradient_Swatch_copy_17-7" x1="3181.59" y1="273.82" x2="3187.51" y2="273.82" xlink:href="#New_Gradient_Swatch_copy_17"/><linearGradient id="New_Gradient_Swatch_copy_17-8" x1="1728.99" y1="273.92" x2="1733.58" y2="273.92" gradientTransform="matrix(-1, 0, 0, 1, 1867, -1.32)" xlink:href="#New_Gradient_Swatch_copy_17"/><linearGradient id="New_Gradient_Swatch_copy_17-9" x1="3250.66" y1="235.09" x2="3256.58" y2="235.09" xlink:href="#New_Gradient_Swatch_copy_17"/><linearGradient id="New_Gradient_Swatch_copy_17-10" x1="1659.92" y1="235.2" x2="1664.51" y2="235.2" gradientTransform="matrix(-1, 0, 0, 1, 1867, -1.32)" xlink:href="#New_Gradient_Swatch_copy_17"/><linearGradient id="New_Gradient_Swatch_copy_17-11" x1="3257.39" y1="230.96" x2="3263.31" y2="230.96" xlink:href="#New_Gradient_Swatch_copy_17"/><linearGradient id="New_Gradient_Swatch_copy_17-12" x1="1653.19" y1="231.06" x2="1657.78" y2="231.06" gradientTransform="matrix(-1, 0, 0, 1, 1867, -1.32)" xlink:href="#New_Gradient_Swatch_copy_17"/><linearGradient id="New_Gradient_Swatch_copy_17-13" x1="3162.52" y1="248.95" x2="3174.69" y2="248.95" xlink:href="#New_Gradient_Swatch_copy_17"/><linearGradient id="New_Gradient_Swatch_copy_17-14" x1="1741.57" y1="249.94" x2="1747.18" y2="249.94" gradientTransform="matrix(-1, 0, 0, 1, 1867, -1.32)" xlink:href="#New_Gradient_Swatch_copy_17"/><radialGradient id="Radial_Gradient_1-12" cx="7027.57" cy="253.91" r="16.39" xlink:href="#Radial_Gradient_1"/><linearGradient id="New_Gradient_Swatch_copy_16-15" x1="6918.47" y1="209.71" x2="7007.26" y2="286.18" xlink:href="#New_Gradient_Swatch_copy_16"/><radialGradient id="Radial_Gradient_1-13" cx="6987.75" cy="253.96" r="13.19" xlink:href="#Radial_Gradient_1"/><radialGradient id="Radial_Gradient_1-14" cx="6981.09" cy="184.41" r="30.86" xlink:href="#Radial_Gradient_1"/><radialGradient id="Radial_Gradient_1-15" cx="7017.49" cy="275.4" r="8.42" xlink:href="#Radial_Gradient_1"/><radialGradient id="Radial_Gradient_1-16" cx="6937.26" cy="228.28" r="7.75" xlink:href="#Radial_Gradient_1"/><radialGradient id="Radial_Gradient_1-17" cx="6939.76" cy="205.6" r="12.04" xlink:href="#Radial_Gradient_1"/><radialGradient id="radial-gradient-3" cx="14558.71" cy="3688.24" r="44.45" gradientTransform="matrix(-0.09, -0.18, -0.88, 0.47, 4722, 975.12)" xlink:href="#radial-gradient"/><linearGradient id="linear-gradient-15" x1="6934.77" y1="200.68" x2="6864.47" y2="237.32" gradientTransform="matrix(-1, 0, 0, 1, 7145.54, -10.19)" gradientUnits="userSpaceOnUse"><stop offset="0" stop-color="#e3d5d7"/><stop offset="0.09" stop-color="#e8ddde"/><stop offset="0.38" stop-color="#f5f0f0"/><stop offset="0.68" stop-color="#fcfbfb"/><stop offset="1" stop-color="#fff"/></linearGradient><linearGradient id="linear-gradient-16" x1="6938.29" y1="232.34" x2="6905.4" y2="249.47" xlink:href="#linear-gradient-15"/><linearGradient id="linear-gradient-17" x1="7018.1" y1="277.67" x2="6985.22" y2="294.81" xlink:href="#linear-gradient-15"/><linearGradient id="linear-gradient-18" x1="7019.49" y1="246.52" x2="6933.86" y2="291.14" xlink:href="#linear-gradient-15"/></defs><g class="cls-1"><g id="Capa_2" data-name="Capa 2"><g id="Capa_1-2" data-name="Capa 1"><path class="cls-2" d="M199.42,136.71c.4.76,6.1-8,6.36-8,4.2-4.56,2.05-18,2.52-23.53.39-10.21-10.28-13.52-18.46-14.92a.94.94,0,0,0-.46,1.83c20.78,3.17,16.72,12,17.06,28.79C208,125.82,195.49,136.24,199.42,136.71Z"/><path class="cls-3" d="M204,125.21c3.74-1.92,8.36-4.51,8.19-9.61-.77-2.27,2.44-20.06-3.68-16.49-3.73,1.93-8.35,4.51-8.18,9.61C201.07,111,197.86,128.78,204,125.21Z"/><path class="cls-4" d="M203.94,101.74c1.62-.6,5.82-4.52,7.4-2.42-4.39,1.2-9.85,4.62-9.77,10,.32,1.84-.77,15.07.83,16.28-3.84,0-1.46-14.71-2.09-16.9C200.3,106,201.94,102.91,203.94,101.74Z"/><polygon class="cls-5" points="0 59.02 0.23 193.2 109.42 130.84 107.66 0 0 59.02"/><path class="cls-6" d="M109.09,37.19,181,78.92a37.19,37.19,0,0,1,17.71,23.17c5.19,21.69,15.66,53.94,14.78,76.26l.08,46.65L111.21,283.18l-.07-41.5c1.2-26.41-12.42-61-20.09-86a37.17,37.17,0,0,0-17.13-21.1L6.66,95.52Z"/><path class="cls-7" d="M111.18,241.49l.07,41.69-54.91-31.4-4.26-24.2L6.84,200.75,6.66,95.52l67.51,39.21a37.21,37.21,0,0,1,17.17,21.21C98.89,180.89,112.34,215.17,111.18,241.49Z"/><path class="cls-8" d="M109.76,241.25c1.19-26.19-12.3-60.69-19.84-85.55a37.23,37.23,0,0,0-17.17-21.2l-65.38-38V94.81L74.88,134A37.2,37.2,0,0,1,92,155.23c7.57,25,21,59.2,19.85,85.55l.07,41.69-2.13-1.22Z"/><path class="cls-9" d="M85.1,157.9l13,41.31A3.27,3.27,0,0,1,93.34,203L52.71,179.41a8.78,8.78,0,0,1-4.36-7.56l-.05-33.92a3.27,3.27,0,0,1,4.92-2.83C59.29,139.86,83.51,149.25,85.1,157.9Z"/><path class="cls-10" d="M128.55,209l0,15.3a21.19,21.19,0,0,0,31.74,18.35L175,234.27c25.14-13.41,27.6-41.56,25.92-67Z"/><path class="cls-11" d="M149.83,239.85c5.72.64,17.4-8.17,22.33-10.5,19-10.21,25-32,23.09-52.28l-61,35.22C133.49,225.58,134.15,239,149.83,239.85Z"/><path class="cls-12" d="M187.71,214.67l-42.4,24.48a15.66,15.66,0,0,1-3-1.28l48-27.7A45.69,45.69,0,0,1,187.71,214.67Zm5.84-12.83-55.84,32.23a14.44,14.44,0,0,1-1.48-2.13l58.16-33.58C194.16,199.54,193.87,200.7,193.55,201.84Zm1.72-12.47c0,.69,0,1.38-.06,2.06l-60.8,35.09a19.6,19.6,0,0,1-.17-2.89l61-35.23Zm0-10.41v3l-61,35.22v-3Z"/><g class="cls-13"><path class="cls-14" d="M189.57,211.55l-46.36,26.76c-.29-.15-.59-.28-.88-.44l48-27.7C190.07,210.64,189.82,211.09,189.57,211.55Z"/><path class="cls-15" d="M194.13,199.46,136.7,232.61c-.15-.23-.33-.43-.47-.67l58.16-33.58C194.32,198.73,194.21,199.1,194.13,199.46Z"/><path class="cls-16" d="M195.27,189.35l-61,35.21c0-.16,0-.75,0-.93l61-35.23Z"/><polygon class="cls-17" points="195.25 178.96 195.26 179.9 134.23 215.13 134.23 214.18 195.25 178.96"/></g><path class="cls-18" d="M114.66,203.47a6,6,0,0,0,3-.8l83.08-47.3A10.21,10.21,0,0,0,205.54,144c-2.81-5.22-8.92-49.25-16-49.23-2.3-.32-90.27,52-92.29,52.62a6,6,0,0,0-2.61,7l14.24,44.8A6,6,0,0,0,114.66,203.47Z"/><path class="cls-19" d="M205.54,144c-2.84-5.33-8.9-49.19-16-49.23-2.34-.27-90.24,52-92.29,52.62C94.82,148.78,206.67,148.44,205.54,144Z"/><path class="cls-20" d="M112.72,198.75a6,6,0,0,0,3-.81L200,150a10.3,10.3,0,0,0,5.09-7.6c1.76,4.83.24,10.45-4.39,13l-83.08,47.3c-4.64,2.69-9-1.49-9.65-6.13A6.12,6.12,0,0,0,112.72,198.75Z"/><path class="cls-21" d="M155.22,154.26l23.51-5.17a.92.92,0,0,1,.9-.19c.71.26,15.25-4.4,15-2.33,1.18,1.75-14.08,3.65-14.54,4.17l-4.49,15.54a1,1,0,0,1-1.82-.53L178,151.2C177.79,150.65,149.34,159.17,155.22,154.26Z"/><path class="cls-22" d="M118.1,175.11l23.52-5.17a.88.88,0,0,1,.89-.2c.71.27,15.25-4.4,15-2.32,1.18,1.74-14.08,3.64-14.53,4.16l-4.5,15.54a1,1,0,0,1-1.82-.52L140.84,172C140.67,171.49,112.23,180,118.1,175.11Z"/><g class="cls-23"><path class="cls-24" d="M22,119.27c-3.05-1.41-.63,34.66-1.33,35.31A6.88,6.88,0,0,0,24,160.51l11.32,6.57a2.29,2.29,0,0,0,3.44-2c-1.17-5.07,3.14-36.21-3.64-38.37l-12.51-7.27a1.33,1.33,0,0,0-.69-.19Zm0-1.89c.62-.62,13.33,7.42,14.15,7.72,8.22,2.85,3.3,33.74,4.58,40-1.2,10-13.66-1.47-17.6-3a8.73,8.73,0,0,1-4.35-7.55l-.06-33.92A3.28,3.28,0,0,1,22,117.38Z"/></g><path class="cls-25" d="M40.56,177.18l5.94,3.46c2.79,1.11,3.09,7.26-.83,5.73-2.14-1.55-7.79-3.29-7.45-6.72C37.92,178.19,38.85,176.29,40.56,177.18Z"/><g class="cls-23"><path class="cls-24" d="M40.29,183.24c1.85.68,7.59,6.06,8.34,1.57.62,6.39-6.05.94-8.34-.23-1.8-1-2.23-3.05-2.07-4.93A4.15,4.15,0,0,0,40.29,183.24Z"/></g><polygon class="cls-26" points="51.38 197.74 6.84 200.75 51.96 227.3 51.38 197.74"/><polygon class="cls-27" points="20.45 220.54 20.48 240.83 35.91 232.13 34.85 211.91 20.45 220.54"/><path class="cls-28" d="M89.35,262.48c1.07,15.45-11.73,19.14-21.57,25.17C63,290.36,66,284.23,58.7,280,44,271.53,32,251,31.94,234c0-8.36-7.75-8.41-3-11.21,10.55-5.36,20.48-15.18,33.66-6.32C77.34,225,89.32,245.57,89.35,262.48Z"/><ellipse class="cls-29" cx="47.85" cy="255.55" rx="21.72" ry="37.62" transform="translate(-122.76 59.37) rotate(-30.41)"/><ellipse class="cls-30" cx="47.85" cy="255.55" rx="15.48" ry="26.81" transform="translate(-122.76 59.37) rotate(-30.41)"/><path class="cls-31" d="M66.88,266.49c.55,10.17-6.32,13.87-15.69,8.48-9.81-5.65-17.78-19.34-17.8-30.59C37.86,212,69.53,251,66.88,266.49Z"/><path class="cls-24" d="M37,231.39C21.29,244.83,42.2,281,61.42,278.66,41.62,287.73,14.92,240.39,37,231.39Z"/><path class="cls-32" d="M55.1,258.5c-1.11,8.71-10.81-.85-10-5.72,0-3.16,2.22-4.43,5-2.85A11,11,0,0,1,55.1,258.5Z"/><path class="cls-33" d="M49.08,224.28c-7.07-4.06-13.49-4.6-18.26-2.21,26.82-5.15,58.26,49.29,34.32,66.57C89.74,276.63,67.78,234,49.08,224.28Z"/><path class="cls-34" d="M50.53,237.79A5.45,5.45,0,0,1,53,242.07C51.63,248.56,44.18,235.74,50.53,237.79Zm0,29.1a5.48,5.48,0,0,1,2.49,4.28C51.68,277.66,44.23,264.84,50.58,266.89Zm-7.25-24.12c-2.21,1.38-5.84-4.82-3.52-6.06S45.65,241.53,43.33,242.77Zm14.46,24.84c2.21-1.38,5.84,4.82,3.52,6.06S55.47,268.85,57.79,267.61ZM37.86,245c2.34.85,4.09,7.4,0,5.7C35.54,249.89,33.79,243.34,37.86,245Zm25.39,14.6c2.34.85,4.08,7.4,0,5.7C60.92,264.49,59.18,257.94,63.25,259.64Zm-23.41-2.35c2.21-1.38,5.85,4.82,3.53,6C41.15,264.72,37.52,258.53,39.84,257.29ZM57.76,247c2.21-1.38,5.84,4.82,3.52,6.05C59.07,254.47,55.44,248.27,57.76,247Z"/><path class="cls-35" d="M58.25,258.51c.21,4-2.57,5-5.15,6.53-1.33.74-.48-.94-2.5-2.1a16.19,16.19,0,0,1-7.37-12.67c0-2.31-2.14-2.32-.83-3.1C49.67,240.43,58.27,251,58.25,258.51Z"/><path class="cls-36" d="M55,260.43c-1.64,12.87-16-1.27-14.72-8.47,0-4.66,3.28-6.54,7.35-4.2A16.2,16.2,0,0,1,55,260.43Z"/><polygon class="cls-37" points="81.33 284.89 81.28 255.51 62.1 222.56 35.13 207.04 51.38 197.74 78.45 213.31 97.63 246.26 97.68 275.65 81.33 284.89"/><polygon class="cls-38" points="81.28 255.51 62.1 222.56 78.45 213.31 97.63 246.26 81.28 255.51"/><polygon class="cls-39" points="76.81 282.47 76.77 256.73 58.81 225.87 35.03 212.19 20.45 220.54 20.48 240.83 15.96 238.24 15.93 217.92 35.03 206.99 62.1 222.56 81.28 255.51 81.33 285.05 76.81 282.47"/><g class="cls-13"><polygon class="cls-40" points="80.81 254.92 61.63 221.97 34.96 206.63 35.98 206.04 63.05 221.61 82.22 254.56 82.27 284.11 80.85 283.29 80.81 254.92"/><polygon class="cls-41" points="20.01 239.07 19.98 219.95 34.55 211.6 34.95 211.83 21.39 219.59 21.43 239.88 20.01 239.07"/></g><path class="cls-42" d="M221.28,215.1l-102.41,61c-10.55,7.47-26.19-6.54-35.33-10.66l0,17.45c9.28,4.16,24.86,18.35,35.54,10.81l102.2-58.9Z"/><path class="cls-43" d="M219.53,218.43,118.87,276.1c-10.55,7.47-26.19-6.54-35.33-10.66l5.25-3c8.37,4.33,20.49,14.46,30.16,7.79l94.55-54.76,0-7C216.46,210.37,225.29,214.32,219.53,218.43Z"/><g class="cls-13"><polygon class="cls-44" points="213.62 214.28 213.5 214.35 213.46 208.5 213.58 208.58 213.62 214.28"/><path class="cls-45" d="M84.64,264.81c9.15,4.13,23.85,17.45,34.34,10.11,1.66-2.08,102.25-56.4,102.32-59.79a3.53,3.53,0,0,1-1.77,3.3L118.86,276.1c-10.56,7.48-26.17-6.54-35.32-10.66Z"/></g><path class="cls-46" d="M82.73,203.09c5-2-12.6-5.37-11.42-15.31l0-25c-.49-6.71,6.5-10.54,11.31-13.64,1-.65,0-2.28-1-1.57-5.48,3.42-12.63,7.78-12.15,15.22l0,25C69,195.51,76.67,200.2,82.73,203.09Z"/><path class="cls-47" d="M66.34,189.2c3.74-1.93,8.36-4.51,8.18-9.61-.76-2.27,2.45-20.06-3.67-16.49-3.73,1.92-8.35,4.51-8.18,9.6C63.43,175,60.22,192.77,66.34,189.2Z"/><path class="cls-48" d="M66.3,165.73c1.62-.6,5.82-4.52,7.4-2.42-4.39,1.2-9.85,4.62-9.77,10,.32,1.84-.77,15.07.83,16.28-3.84,0-1.46-14.71-2.09-16.91C62.66,170,64.3,166.89,66.3,165.73Z"/><path class="cls-49" d="M6.42,64.44l100.76-58c25.57,15.7,66.93,32.5,64.69,68.93l-.16-.1L71.21,132.71Z"/><path class="cls-50" d="M71.32,132.63h0l-64.91-38,0-30.43C32.25,79.49,73.57,96.08,71.32,132.63Z"/><path class="cls-51" d="M44,86.71,7.54,65.58v-2c25.89,15.24,67.21,31.84,65,68.39l-2-1.14A53.48,53.48,0,0,0,44,86.71Z"/><path class="cls-52" d="M134.19,250.68,115.1,261.5a2.66,2.66,0,0,1-4-2.31c.25-4.42-1.46-12.46,3.81-14.71,3.82-1.94,9.42-6.14,13.57-2.61C130.37,243.7,139,247.43,134.19,250.68Z"/><path class="cls-53" d="M213.57,199.6c.58,11.61-.71,8.2-9.67,13.48-6.3,1.66.41-9.49.57-11.46C205.4,198.65,213,194.39,213.57,199.6Z"/><path class="cls-54" d="M134.19,249.26,115.1,260.08a2.66,2.66,0,0,1-4-2.31c.25-4.42-1.46-12.46,3.81-14.7,3.82-1.94,9.42-6.14,13.57-2.62C130.36,242.28,139,246,134.19,249.26Z"/><path class="cls-55" d="M213.57,198.5c.58,11.6-.72,8.19-9.68,13.47-6.29,1.67.41-9.48.58-11.45C205.4,197.55,213,193.28,213.57,198.5Z"/><path class="cls-56" d="M213.57,198.5s-11.14,13.73-11.7,13.33c-2.5-1.16,2.52-9.68,2.6-11.31C205.4,197.55,213,193.28,213.57,198.5Z"/><path class="cls-57" d="M132.57,271.86l-14.34,8.25c3.09,2.12,7.34,5.59,11.16,3l14.79-8.67C140.93,272.9,136.19,269.37,132.57,271.86Z"/><path class="cls-58" d="M132.57,271.86l-14.34,8.25,26-5.67C140.93,272.9,136.19,269.37,132.57,271.86Z"/><path class="cls-59" d="M217.79,223.68c-2.61,2-17.52,8.58-18.25,12.16l-3.68,9.47,16.19-9.49C215.35,234.37,216.51,226.55,217.79,223.68Z"/><path class="cls-60" d="M217.79,223.68c-2.61,2-17.52,8.58-18.25,12.16l-3.68,9.47Z"/><path class="cls-61" d="M192.48,251.25c1-4.33-1.56-9.63-6.61-7.14l-29.41,17c-5.5,3.05-7.92,9.26-7.38,15.34Z"/><path class="cls-62" d="M111.33,247.67c.59-4.07,6.57-6,9.59-7.77a7.17,7.17,0,0,1,7.58.55c1.36,1.49,8.11,4.39,6.94,7.18Z"/><path class="cls-63" d="M129.57,242l-3.25,6.93C120.11,243.61,120.12,239.26,129.57,242Z"/><path class="cls-64" d="M125.25,246.9c.63,4.81,6-.49,5.5-3.19C130.12,238.9,124.77,244.21,125.25,246.9Z"/><path class="cls-65" d="M211.92,201.11,208.66,208C202.45,202.74,202.46,198.39,211.92,201.11Z"/><path class="cls-66" d="M207.59,206c.64,4.81,6-.5,5.5-3.19C212.46,198,207.12,203.34,207.59,206Z"/><path class="cls-67" d="M130.4,277.16l-2.69,5.71C122.57,278.75,123.61,275.51,130.4,277.16Z"/><path class="cls-68" d="M126.83,281.21c.52,4,4.93-.41,4.53-2.63C130.84,274.61,126.43,279,126.83,281.21Z"/><path class="cls-69" d="M137.47,272.78l-2.68,5.71C129.65,274.37,130.69,271.13,137.47,272.78Z"/><path class="cls-70" d="M133.91,276.83c.52,4,4.93-.41,4.53-2.63C137.92,270.23,133.51,274.61,133.91,276.83Z"/><path class="cls-71" d="M206.48,233.93l-2.69,5.71C198.65,235.53,199.7,232.29,206.48,233.93Z"/><path class="cls-72" d="M202.91,238c.52,4,4.93-.41,4.54-2.63C206.93,231.39,202.52,235.77,202.91,238Z"/><path class="cls-73" d="M213.2,229.79l-2.69,5.71C205.37,231.38,206.42,228.14,213.2,229.79Z"/><path class="cls-74" d="M209.63,233.84c.53,4,4.93-.4,4.54-2.62C213.65,227.25,209.24,231.62,209.63,233.84Z"/><path class="cls-75" d="M124.61,248.1l-3.29,7C107.93,246.82,110.21,243.61,124.61,248.1Z"/><path class="cls-76" d="M120.25,253.05c1.57,7.24,9.85-7.1,2.76-4.79A6.11,6.11,0,0,0,120.25,253.05Z"/><path class="cls-77" d="M111.12,257.77c.24-4.43-1.45-12.46,3.81-14.7,3.81-1.95,9.42-6.14,13.57-2.62Z"/><polygon class="cls-78" points="157.23 263.65 157.24 271.53 185.66 255.41 185.65 247.33 157.23 263.65"/><polygon class="cls-79" points="185.65 247.33 185.65 248.5 158.17 264.28 158.19 270.99 157.24 271.53 157.23 263.65 185.65 247.33"/><polygon class="cls-80" points="128.66 202.62 128.68 210.5 200.87 169.49 200.85 161.41 128.66 202.62"/><path class="cls-81" d="M132.57,271.86l-14.34,8.25,4.23,2.81c2.08,1.38,16.34-11.22,16.34-11.22A6.56,6.56,0,0,0,132.57,271.86Z"/><path class="cls-82" d="M217.79,223.68c-2.6,2-17.53,8.59-18.25,12.16,0,0,14.91-2.1,15.41-3.61Z"/><path class="cls-83" d="M213.57,198.5v6.93c0,.95-9.11-4.91-9.11-4.91C205.4,197.55,213,193.28,213.57,198.5Z"/><path class="cls-84" d="M92.58,135.17C40.8,162.85,49.21,178.61,101,151S144.4,107.56,92.58,135.17Z"/><path class="cls-85" d="M300.38,226.41s-28.26,29.69-28.76,29.33S204.16,209.82,204.47,209c1.92-4.41,2.33-10.72,8-12.15C214,196.09,300.37,224.71,300.38,226.41Z"/><path class="cls-86" d="M249.4,245.15s-13.22,13.9-13.46,13.73S204.37,237.39,204.51,237c.76-1.8,1.33-5.31,3.74-5.69C209,231,249.4,244.36,249.4,245.15Z"/><path class="cls-87" d="M169.66,290.63s-13.22,13.89-13.46,13.72-31.57-21.49-31.43-21.88c.76-1.8,1.34-5.31,3.74-5.69C129.23,276.44,169.66,289.83,169.66,290.63Z"/><path class="cls-88" d="M234.31,279.39s-31.57,33.3-32.18,32.87-84.82-53.05-84.45-54.06l3.67-10c.72-2.61,3.85-3.73,6-4.77C129.25,242.52,234.31,277.32,234.31,279.39Z"/></g></g></g></svg>