<svg xmlns="http://www.w3.org/2000/svg" xmlns:xlink="http://www.w3.org/1999/xlink" viewBox="0 0 650.5 422.01"><defs><style>.cls-1{isolation:isolate;}.cls-2{fill:url(#linear-gradient);}.cls-3{fill:url(#linear-gradient-2);}.cls-4{fill:url(#New_Gradient_Swatch_copy_9);}.cls-5{fill:url(#New_Gradient_Swatch_copy_10);}.cls-6{fill:url(#New_Gradient_Swatch_copy_9-2);}.cls-7{fill:url(#radial-gradient);}.cls-8{fill:url(#linear-gradient-3);}.cls-9{fill:url(#linear-gradient-4);}.cls-10{fill:url(#linear-gradient-5);}.cls-11{fill:url(#linear-gradient-6);}.cls-12{fill:url(#linear-gradient-7);}.cls-13{fill:url(#New_Gradient_Swatch_copy_10-2);}.cls-14{fill:url(#New_Gradient_Swatch_copy_9-3);}.cls-15{fill:url(#radial-gradient-2);}.cls-16{fill:url(#linear-gradient-8);}.cls-17{fill:url(#linear-gradient-9);}.cls-18{fill:url(#linear-gradient-10);}.cls-19{fill:url(#linear-gradient-11);}.cls-20{fill:url(#linear-gradient-12);}.cls-21{fill:url(#linear-gradient-13);}.cls-22{fill:url(#linear-gradient-14);}.cls-23,.cls-32,.cls-33,.cls-34,.cls-35,.cls-36,.cls-37,.cls-38,.cls-39,.cls-40,.cls-41,.cls-42{fill:#010101;}.cls-23{opacity:0.2;}.cls-24{fill:url(#linear-gradient-15);}.cls-25{fill:url(#linear-gradient-16);}.cls-26{fill:url(#linear-gradient-17);}.cls-27{fill:url(#linear-gradient-18);}.cls-28{fill:url(#linear-gradient-19);}.cls-29{fill:url(#linear-gradient-20);}.cls-30{fill:url(#linear-gradient-21);}.cls-31,.cls-43,.cls-65{mix-blend-mode:screen;}.cls-31{fill:url(#Radial_Gradient_1);}.cls-32{opacity:0;}.cls-33{opacity:0.02;}.cls-34{opacity:0.04;}.cls-35{opacity:0.05;}.cls-36{opacity:0.07;}.cls-37{opacity:0.09;}.cls-38{opacity:0.11;}.cls-39{opacity:0.13;}.cls-40{opacity:0.15;}.cls-41{opacity:0.16;}.cls-42{opacity:0.18;}.cls-43{fill:url(#Radial_Gradient_1-2);}.cls-44{fill:url(#New_Gradient_Swatch_copy_16);}.cls-45{fill:url(#linear-gradient-22);}.cls-46,.cls-51,.cls-68,.cls-72,.cls-75{mix-blend-mode:multiply;}.cls-46{fill:url(#linear-gradient-23);}.cls-47{fill:url(#linear-gradient-24);}.cls-48{fill:url(#New_Gradient_Swatch_copy_16-2);}.cls-49{fill:url(#New_Gradient_Swatch_copy_16-3);}.cls-50{fill:url(#linear-gradient-25);}.cls-51{fill:url(#linear-gradient-26);}.cls-52{fill:url(#linear-gradient-27);}.cls-53{fill:url(#New_Gradient_Swatch_copy_16-4);}.cls-54{fill:url(#linear-gradient-28);}.cls-55{fill:url(#linear-gradient-29);}.cls-56{fill:url(#linear-gradient-30);}.cls-57{fill:url(#New_Gradient_Swatch_copy_9-4);}.cls-58{fill:url(#New_Gradient_Swatch_copy_9-5);}.cls-59{fill:url(#New_Gradient_Swatch_copy_9-6);}.cls-60{fill:url(#New_Gradient_Swatch_copy_9-7);}.cls-61{fill:url(#New_Gradient_Swatch_copy_9-8);}.cls-62{fill:url(#New_Gradient_Swatch_copy_9-9);}.cls-63{fill:url(#New_Gradient_Swatch_copy_10-3);}.cls-64{fill:url(#New_Gradient_Swatch_copy_9-10);}.cls-65{fill:url(#Radial_Gradient_1-3);}.cls-66{fill:url(#New_Gradient_Swatch_copy_16-5);}.cls-67{fill:url(#linear-gradient-31);}.cls-68{fill:url(#linear-gradient-32);}.cls-69{fill:url(#linear-gradient-33);}.cls-70{fill:url(#New_Gradient_Swatch_copy_16-6);}.cls-71{fill:url(#New_Gradient_Swatch_copy_16-7);}.cls-72{fill:url(#New_Gradient_Swatch_copy_16-8);}.cls-73{mix-blend-mode:color-dodge;fill:url(#Radial_Gradient_1-4);}.cls-74{fill:url(#New_Gradient_Swatch_copy_16-9);}.cls-75{fill:url(#New_Gradient_Swatch_copy_16-10);}.cls-76{fill:url(#New_Gradient_Swatch_copy_16-11);}.cls-77{fill:url(#New_Gradient_Swatch_copy_16-12);}.cls-78{fill:#302215;}</style><linearGradient id="linear-gradient" x1="6080.87" y1="610.87" x2="6104.24" y2="617.87" gradientTransform="translate(6101.24 692.09) rotate(180)" gradientUnits="userSpaceOnUse"><stop offset="0" stop-color="#a69db4"/><stop offset="0.14" stop-color="#aba2b9"/><stop offset="0.33" stop-color="#b192c4"/><stop offset="0.55" stop-color="#cbafd5"/><stop offset="0.58" stop-color="#ceb3d7"/><stop offset="0.76" stop-color="#d9c3e0"/><stop offset="1" stop-color="#eadeee"/></linearGradient><linearGradient id="linear-gradient-2" x1="6035.16" y1="591.36" x2="6090.26" y2="603.71" gradientTransform="translate(6101.24 692.09) rotate(180)" gradientUnits="userSpaceOnUse"><stop offset="0" stop-color="#17142b"/><stop offset="1" stop-color="#1b1836"/></linearGradient><linearGradient id="New_Gradient_Swatch_copy_9" x1="8029.06" y1="96.45" x2="8085.3" y2="83.85" gradientTransform="matrix(-1, 0, 0, 1, 8090.81, -10.99)" gradientUnits="userSpaceOnUse"><stop offset="0" stop-color="#070711"/><stop offset="1"/></linearGradient><linearGradient id="New_Gradient_Swatch_copy_10" x1="43.06" y1="123.13" x2="103.75" y2="123.13" gradientUnits="userSpaceOnUse"><stop offset="0" stop-color="#070711"/><stop offset="0.5"/><stop offset="1" stop-color="#070711"/></linearGradient><linearGradient id="New_Gradient_Swatch_copy_9-2" x1="6019.39" y1="573.28" x2="6089.86" y2="540.32" gradientTransform="translate(6101.24 692.09) rotate(180)" xlink:href="#New_Gradient_Swatch_copy_9"/><radialGradient id="radial-gradient" cx="1586.22" cy="829.47" r="5.47" gradientTransform="translate(-8081.27 -4134.02) scale(5.14)" gradientUnits="userSpaceOnUse"><stop offset="0" stop-color="#fff"/><stop offset="1" stop-color="#010101"/></radialGradient><linearGradient id="linear-gradient-3" x1="6025.39" y1="570.07" x2="6085.48" y2="537.16" gradientTransform="translate(6101.24 692.09) rotate(180)" gradientUnits="userSpaceOnUse"><stop offset="0" stop-color="#fff1b4"/><stop offset="0.14" stop-color="#fff2b8"/><stop offset="0.33" stop-color="#00983a"/><stop offset="0.55" stop-color="#71b169"/><stop offset="0.58" stop-color="#7bb571"/><stop offset="0.76" stop-color="#9dc591"/><stop offset="1" stop-color="#cde0c4"/></linearGradient><linearGradient id="linear-gradient-4" x1="6031.51" y1="540.84" x2="6055.54" y2="579.09" gradientTransform="translate(6101.24 692.09) rotate(180)" gradientUnits="userSpaceOnUse"><stop offset="0.02" stop-color="#ab8924"/><stop offset="0.53" stop-color="#bc9d4e"/><stop offset="0.65" stop-color="#bea155"/><stop offset="0.81" stop-color="#c5aa67"/><stop offset="1" stop-color="#d0ba84"/></linearGradient><linearGradient id="linear-gradient-5" x1="6007.86" y1="575.85" x2="6052.11" y2="552.9" gradientTransform="translate(6101.24 692.09) rotate(180)" gradientUnits="userSpaceOnUse"><stop offset="0" stop-color="#fff0ae"/><stop offset="1" stop-color="#fff"/></linearGradient><linearGradient id="linear-gradient-6" x1="6041.94" y1="573.78" x2="6031.42" y2="552.47" gradientTransform="translate(6101.24 692.09) rotate(180)" gradientUnits="userSpaceOnUse"><stop offset="0.01" stop-color="#4ea552"/><stop offset="0.23" stop-color="#69ae63"/><stop offset="0.36" stop-color="#7bb571"/><stop offset="0.43" stop-color="#00993c"/><stop offset="0.49" stop-color="#0c9a3f"/><stop offset="0.56" stop-color="#5254a0"/><stop offset="0.61" stop-color="#fff2b8"/><stop offset="0.76" stop-color="#00993d"/><stop offset="1" stop-color="#309e46"/></linearGradient><linearGradient id="linear-gradient-7" x1="6014.12" y1="574.82" x2="6051.61" y2="555.38" xlink:href="#linear-gradient-3"/><linearGradient id="New_Gradient_Swatch_copy_10-2" x1="5947.6" y1="508.64" x2="5993.21" y2="569.76" gradientTransform="translate(6101.24 692.09) rotate(180)" xlink:href="#New_Gradient_Swatch_copy_10"/><linearGradient id="New_Gradient_Swatch_copy_9-3" x1="5963.65" y1="540.47" x2="6034.12" y2="507.51" gradientTransform="translate(6101.24 692.09) rotate(180)" xlink:href="#New_Gradient_Swatch_copy_9"/><radialGradient id="radial-gradient-2" cx="1595.09" cy="834.68" r="5.47" gradientTransform="translate(-8071.07 -4128.01) scale(5.14)" xlink:href="#radial-gradient"/><linearGradient id="linear-gradient-8" x1="5969.65" y1="537.26" x2="6029.74" y2="504.35" xlink:href="#linear-gradient-3"/><linearGradient id="linear-gradient-9" x1="5975.73" y1="508.01" x2="5999.75" y2="546.26" xlink:href="#linear-gradient-4"/><linearGradient id="linear-gradient-10" x1="5952.12" y1="543.04" x2="5996.38" y2="520.09" xlink:href="#linear-gradient-5"/><linearGradient id="linear-gradient-11" x1="5986.29" y1="540.87" x2="5975.78" y2="519.56" xlink:href="#linear-gradient-6"/><linearGradient id="linear-gradient-12" x1="5958.16" y1="541.58" x2="5995.64" y2="522.14" xlink:href="#linear-gradient-3"/><linearGradient id="linear-gradient-13" x1="5858.54" y1="489.92" x2="6044.62" y2="545.64" gradientTransform="translate(6101.24 692.09) rotate(180)" gradientUnits="userSpaceOnUse"><stop offset="0.02" stop-color="#27348b"/><stop offset="0.53" stop-color="#fff1b4"/><stop offset="0.64" stop-color="#fff2b8"/><stop offset="0.8" stop-color="#00983a"/><stop offset="0.98" stop-color="#71b169"/><stop offset="1" stop-color="#7bb571"/></linearGradient><linearGradient id="linear-gradient-14" x1="5953.18" y1="667.32" x2="5863.24" y2="495.92" xlink:href="#linear-gradient-13"/><linearGradient id="linear-gradient-15" x1="6052.5" y1="659.91" x2="6045.93" y2="647.38" xlink:href="#linear-gradient-3"/><linearGradient id="linear-gradient-16" x1="5964.26" y1="579.44" x2="6178.36" y2="496.77" xlink:href="#linear-gradient-4"/><linearGradient id="linear-gradient-17" x1="5912.58" y1="520.33" x2="5967.69" y2="532.68" gradientTransform="translate(6101.24 692.09) rotate(180)" gradientUnits="userSpaceOnUse"><stop offset="0" stop-color="#ffde00"/><stop offset="1" stop-color="#ffde00"/></linearGradient><linearGradient id="linear-gradient-18" x1="5959.6" y1="607.43" x2="5885.81" y2="466.8" xlink:href="#linear-gradient-17"/><linearGradient id="linear-gradient-19" x1="5915.05" y1="513.79" x2="5944.86" y2="520.48" xlink:href="#linear-gradient-17"/><linearGradient id="linear-gradient-20" x1="5869.02" y1="485.77" x2="6057.87" y2="542.32" xlink:href="#linear-gradient-17"/><linearGradient id="linear-gradient-21" x1="5970.5" y1="658.73" x2="5883.43" y2="492.79" xlink:href="#linear-gradient-17"/><radialGradient id="Radial_Gradient_1" cx="5893.07" cy="518.17" r="160.79" gradientTransform="translate(6101.24 692.09) rotate(180)" gradientUnits="userSpaceOnUse"><stop offset="0" stop-color="#fff"/><stop offset="1"/></radialGradient><radialGradient id="Radial_Gradient_1-2" cx="-1925.5" cy="123.66" r="28.66" gradientTransform="matrix(1, 0, 0, 1, 1989.14, -0.73)" xlink:href="#Radial_Gradient_1"/><linearGradient id="New_Gradient_Swatch_copy_16" x1="-1917.36" y1="118.31" x2="-1978.69" y2="151.9" gradientTransform="matrix(1, 0, 0, 1, 1989.14, -0.73)" gradientUnits="userSpaceOnUse"><stop offset="0" stop-color="#bc9d4e"/><stop offset="0.14" stop-color="#bea155"/><stop offset="0.35" stop-color="#c5aa67"/><stop offset="0.58" stop-color="#d0ba84"/><stop offset="0.68" stop-color="#d3c194"/><stop offset="0.87" stop-color="#dcd1bd"/><stop offset="1" stop-color="#e2dedb"/></linearGradient><linearGradient id="linear-gradient-22" x1="-1923.28" y1="147.8" x2="-1947.81" y2="108.76" gradientTransform="matrix(1, 0, 0, 1, 1989.14, -0.73)" gradientUnits="userSpaceOnUse"><stop offset="0.01" stop-color="#c5ab68"/><stop offset="0.17" stop-color="#c9b072"/><stop offset="0.36" stop-color="#d0ba84"/><stop offset="0.45" stop-color="#c7ad6c"/><stop offset="0.54" stop-color="#c1a55d"/><stop offset="0.61" stop-color="#bfa258"/><stop offset="1" stop-color="#c0a35a"/></linearGradient><linearGradient id="linear-gradient-23" x1="8001.15" y1="112.4" x2="8046.32" y2="135.82" gradientTransform="matrix(-1, 0, 0, 1, 8090.81, -10.99)" gradientUnits="userSpaceOnUse"><stop offset="0" stop-color="#e1d2b1"/><stop offset="1" stop-color="#fff"/></linearGradient><linearGradient id="linear-gradient-24" x1="8036.09" y1="114.47" x2="8025.36" y2="136.22" gradientTransform="matrix(-1, 0, 0, 1, 8090.81, -10.99)" xlink:href="#linear-gradient-22"/><linearGradient id="New_Gradient_Swatch_copy_16-2" x1="8007.48" y1="113.59" x2="8045.73" y2="133.43" gradientTransform="matrix(-1, 0, 0, 1, 8090.81, -10.99)" xlink:href="#New_Gradient_Swatch_copy_16"/><linearGradient id="New_Gradient_Swatch_copy_16-3" x1="-1860.45" y1="151.85" x2="-1921.78" y2="185.43" xlink:href="#New_Gradient_Swatch_copy_16"/><linearGradient id="linear-gradient-25" x1="-1866.37" y1="181.33" x2="-1890.9" y2="142.29" xlink:href="#linear-gradient-22"/><linearGradient id="linear-gradient-26" x1="7944.24" y1="145.94" x2="7989.41" y2="169.36" xlink:href="#linear-gradient-23"/><linearGradient id="linear-gradient-27" x1="7979.18" y1="148" x2="7968.45" y2="169.75" gradientTransform="matrix(-1, 0, 0, 1, 8090.81, -10.99)" xlink:href="#linear-gradient-22"/><linearGradient id="New_Gradient_Swatch_copy_16-4" x1="7950.57" y1="147.12" x2="7988.82" y2="166.96" gradientTransform="matrix(-1, 0, 0, 1, 8090.81, -10.99)" xlink:href="#New_Gradient_Swatch_copy_16"/><linearGradient id="linear-gradient-28" x1="7848.82" y1="200.05" x2="8038.73" y2="143.18" gradientTransform="matrix(-1, 0, 0, 1, 8090.81, -10.99)" xlink:href="#linear-gradient-4"/><linearGradient id="linear-gradient-29" x1="7781.57" y1="218.62" x2="7864.59" y2="200.01" gradientTransform="matrix(-1, 0, 0, 1, 8090.81, -10.99)" xlink:href="#linear-gradient-4"/><linearGradient id="linear-gradient-30" x1="7945.29" y1="18.9" x2="7853.5" y2="193.84" gradientTransform="matrix(-1, 0, 0, 1, 8090.81, -10.99)" xlink:href="#linear-gradient-4"/><linearGradient id="New_Gradient_Swatch_copy_9-4" x1="7903.91" y1="168.71" x2="7960.15" y2="156.1" xlink:href="#New_Gradient_Swatch_copy_9"/><linearGradient id="New_Gradient_Swatch_copy_9-5" x1="7951.84" y1="80.02" x2="7876.53" y2="223.55" xlink:href="#New_Gradient_Swatch_copy_9"/><linearGradient id="New_Gradient_Swatch_copy_9-6" x1="7906.47" y1="175.59" x2="7936.9" y2="168.77" xlink:href="#New_Gradient_Swatch_copy_9"/><linearGradient id="New_Gradient_Swatch_copy_9-7" x1="182.07" y1="202.33" x2="323.66" y2="159.94" gradientTransform="matrix(1, 0, 0, 1, -0.26, 2.62)" xlink:href="#New_Gradient_Swatch_copy_9"/><linearGradient id="New_Gradient_Swatch_copy_9-8" x1="7823.35" y1="223.24" x2="7864.41" y2="214.04" xlink:href="#New_Gradient_Swatch_copy_9"/><linearGradient id="New_Gradient_Swatch_copy_9-9" x1="7963.2" y1="27.78" x2="7874.33" y2="197.14" xlink:href="#New_Gradient_Swatch_copy_9"/><linearGradient id="New_Gradient_Swatch_copy_10-3" x1="-1670.77" y1="278.44" x2="-1717.19" y2="216.24" gradientTransform="matrix(1, 0, 0, 1, 1989.14, -0.73)" xlink:href="#New_Gradient_Swatch_copy_10"/><linearGradient id="New_Gradient_Swatch_copy_9-10" x1="7788.24" y1="246.34" x2="7860.16" y2="279.98" gradientTransform="matrix(-0.86, -0.5, -0.5, 0.86, 7152.91, 3977.72)" xlink:href="#New_Gradient_Swatch_copy_9"/><radialGradient id="Radial_Gradient_1-3" cx="-1700.81" cy="254.72" r="28.71" gradientTransform="matrix(1, 0, 0, 1, 1989.14, -0.73)" xlink:href="#Radial_Gradient_1"/><linearGradient id="New_Gradient_Swatch_copy_16-5" x1="-1692.79" y1="249.37" x2="-1754.12" y2="282.96" xlink:href="#New_Gradient_Swatch_copy_16"/><linearGradient id="linear-gradient-31" x1="-1698.86" y1="278.6" x2="-1723.1" y2="240.02" xlink:href="#linear-gradient-22"/><linearGradient id="linear-gradient-32" x1="7776.53" y1="243.46" x2="7821.79" y2="266.93" xlink:href="#linear-gradient-23"/><linearGradient id="linear-gradient-33" x1="7811.5" y1="245.56" x2="7800.81" y2="267.24" gradientTransform="matrix(-1, 0, 0, 1, 8090.81, -10.99)" xlink:href="#linear-gradient-22"/><linearGradient id="New_Gradient_Swatch_copy_16-6" x1="7782.92" y1="244.69" x2="7821.12" y2="264.5" gradientTransform="matrix(-1, 0, 0, 1, 8090.81, -10.99)" xlink:href="#New_Gradient_Swatch_copy_16"/><linearGradient id="New_Gradient_Swatch_copy_16-7" x1="7688.38" y1="302.03" x2="7936.36" y2="227.78" gradientTransform="matrix(-1, 0, 0, 1, 8090.81, -10.99)" xlink:href="#New_Gradient_Swatch_copy_16"/><linearGradient id="New_Gradient_Swatch_copy_16-8" x1="7746.43" y1="277.45" x2="7768.88" y2="270.73" gradientTransform="matrix(-1, 0, 0, 1, 8090.81, -10.99)" xlink:href="#New_Gradient_Swatch_copy_16"/><radialGradient id="Radial_Gradient_1-4" cx="7763.59" cy="274.36" r="17.75" gradientTransform="matrix(-1, 0, 0, 1, 8090.81, -10.99)" xlink:href="#Radial_Gradient_1"/><linearGradient id="New_Gradient_Swatch_copy_16-9" x1="7697.03" y1="298.71" x2="7720.64" y2="339.56" gradientTransform="matrix(-1, 0, 0, 1, 8090.81, -10.99)" xlink:href="#New_Gradient_Swatch_copy_16"/><linearGradient id="New_Gradient_Swatch_copy_16-10" x1="7627.32" y1="299.14" x2="7742.55" y2="299.61" gradientTransform="matrix(-1, 0, 0, 1, 8090.81, -10.99)" xlink:href="#New_Gradient_Swatch_copy_16"/><linearGradient id="New_Gradient_Swatch_copy_16-11" x1="7497" y1="326.79" x2="7760.72" y2="267.67" gradientTransform="matrix(-1, 0, 0, 1, 8090.81, -10.99)" xlink:href="#New_Gradient_Swatch_copy_16"/><linearGradient id="New_Gradient_Swatch_copy_16-12" x1="7787.22" y1="45.81" x2="7666.32" y2="276.22" gradientTransform="matrix(-1, 0, 0, 1, 8090.81, -10.99)" xlink:href="#New_Gradient_Swatch_copy_16"/></defs><g class="cls-1"><g id="Capa_2" data-name="Capa 2"><g id="Capa_1-2" data-name="Capa 1"><path class="cls-2" d="M18.47,65.4V97.11l-3.28-2.73V63.22Z"/><path class="cls-3" d="M34.87,73.6v47l8.2-4.38V68.68Z"/><polygon class="cls-4" points="30.18 71.29 30.26 119.35 38.55 114.69 38.47 66.33 30.18 71.29"/><path class="cls-5" d="M103.75,134.83c0,8.2-2.73,13.67-7.1,16.4l-14.22,8.2c-4.92,2.73-1.64-3.28-8.74-7.65-14.22-8.2-26.24-28.43-26.24-44.83,0-8.2-7.66-8.2-2.74-10.93L60,87.82c4.92-2.74,10.93-2.19,18,2.18C91.73,98.2,103.75,118.43,103.75,134.83Z"/><path class="cls-6" d="M88.45,143c0,16.4-11.48,23-26.24,14.76C48,149.59,36,129.36,36,113S47.45,90,62.21,98.2C77,107,88.45,126.63,88.45,143Z"/><path class="cls-7" d="M63.85,97.66c-7.11-3.83-13.12-4.38-18-2.19,4.37-1.09,9.84-.55,15.3,3.28,14.22,8.2,26.24,28.43,26.24,44.83,0,8.74-3.28,14.21-8.2,16.94,6.56-1.64,10.39-8.2,10.39-18C90.09,126.08,78.06,105.86,63.85,97.66Z"/><path class="cls-8" d="M62.21,110.23c9.29,5.47,16.94,18.59,16.94,29S71.5,154,62.21,149s-17-18.58-17-29C45.81,109.14,52.91,104.76,62.21,110.23Z"/><path class="cls-9" d="M68.22,145.22c-9.29-5.47-16.95-18.59-16.95-29,0-3.28.55-6,2.19-7.65-4.92.55-8.2,4.92-8.2,12,0,10.38,7.65,23.5,17,29,6.56,3.83,12,2.73,14.76-1.64A38.77,38.77,0,0,1,68.22,145.22Z"/><path class="cls-10" d="M74.23,137.56c0,6.56-4.37,9.3-10.38,6s-10.39-11.48-10.39-18,4.37-9.3,10.39-6S74.23,131,74.23,137.56Z"/><path class="cls-11" d="M73.14,133.74c0,5.46-3.83,7.65-8.75,4.92s-8.74-9.84-8.74-15.31,3.82-7.65,8.74-4.92C69.31,121.71,73.14,128.27,73.14,133.74Z"/><path class="cls-12" d="M71,135.38c0,5.46-3.82,7.65-8.74,4.92s-8.75-9.84-8.75-15.31,3.83-7.65,8.75-4.92C67.13,123.35,71,129.91,71,135.38Z"/><path class="cls-13" d="M159.51,167.63c0,8.2-2.73,13.67-7.1,16.4l-14.22,8.2c-4.92,2.73-1.64-3.28-8.74-7.65-14.22-8.2-26.24-28.43-26.24-44.83,0-8.2-7.66-8.2-2.74-10.93l15.31-8.2c4.92-2.74,10.93-2.19,18,2.18C147.49,131,159.51,151.23,159.51,167.63Z"/><path class="cls-14" d="M144.21,175.83c0,16.4-11.48,23-26.24,14.76-14.22-8.2-26.24-28.43-26.24-44.83S103.21,122.8,118,131C132.73,139.75,144.21,159.43,144.21,175.83Z"/><path class="cls-15" d="M119.61,130.46c-7.11-3.83-13.12-4.38-18-2.19,4.37-1.09,9.84-.55,15.3,3.28,14.22,8.2,26.24,28.43,26.24,44.83,0,8.74-3.28,14.21-8.2,16.94,6.56-1.64,10.39-8.2,10.39-18C145.85,158.88,133.82,138.66,119.61,130.46Z"/><path class="cls-16" d="M118,143c9.29,5.47,16.94,18.59,16.94,29s-7.65,14.76-16.94,9.84c-9.3-5.46-17-18.58-17-29C101.57,141.94,108.67,137.56,118,143Z"/><path class="cls-17" d="M124,178c-9.29-5.47-17-18.59-17-29,0-3.28.55-6,2.19-7.65-4.92.55-8.2,4.92-8.2,12,0,10.38,7.65,23.5,17,29,6.56,3.83,12,2.73,14.76-1.64A38.77,38.77,0,0,1,124,178Z"/><path class="cls-18" d="M130,170.36c0,6.56-4.37,9.3-10.38,6-5.47-3.28-10.39-11.48-10.39-18s4.37-9.3,10.39-6C125.07,156.15,130,163.8,130,170.36Z"/><path class="cls-19" d="M128.9,167.08c0,5.47-3.83,7.66-8.75,4.92s-8.74-9.84-8.74-15.3,3.82-7.66,8.74-4.92S128.9,161.07,128.9,167.08Z"/><path class="cls-20" d="M126.71,168.72c0,5.47-3.82,7.66-8.74,4.92s-8.75-9.84-8.75-15.3,3.83-7.66,8.75-4.92S126.71,162.71,126.71,168.72Z"/><path class="cls-21" d="M256.82,205.9v24.6l-83.64-48.66v-24.6Z"/><path class="cls-22" d="M280.33,192.23,256.82,205.9l-83.64-48.66,23.51-13.12Z"/><path class="cls-23" d="M18.47,65.4V97.11L93.91,55V23.31Z"/><path class="cls-24" d="M93.91,23.31,18.47,65.4l-3.28-2.18L90.63,20.58Z"/><path class="cls-25" d="M157.87,144.12v47l-8.74-4.92V149L34.87,82.9v37.72l-8.2-4.92v-47Z"/><path class="cls-26" d="M157.87,144.12v47.56l7.66-4.92v-47Z"/><path class="cls-27" d="M243.15,226.67l-4.37,2.19L169.35,189l4.38-2.19Z"/><path class="cls-28" d="M169.35,163.8V189l4.38-2.19V161.07Z"/><path class="cls-29" d="M245.34,203.71v36.08l-82-47.56V156.15Zm-76-14.76,69.43,40.45V207.54l-69.43-39.91Z"/><path class="cls-30" d="M250.81,201l-5.47,2.73-82-47,4.92-3.28Z"/><path class="cls-31" d="M403.33,284.07v6.56L13,63.76V57.2Z"/><path class="cls-32" d="M522.67,417.93,643.5,348.18c10.38-6,9.06-16.48-3-23.39L404.45,186.66,168.35,48.53c-12-6.9-30.15-7.63-40.53-1.61L7,116.67c-10.37,6-9,16.48,2.95,23.39L246.05,278.19l236.1,138.13C494.15,423.23,512.3,424,522.67,417.93Z"/><path class="cls-33" d="M9,117.75a14.89,14.89,0,0,0-4.62,4,9,9,0,0,0-.89,9.54c1.17,3.13,5,6.78,9.39,9.32L246.92,277.53,481,414.52a45.59,45.59,0,0,0,11.67,4.6,47.51,47.51,0,0,0,20.06.63,46.2,46.2,0,0,0,8.37-2.93c.16-.06,4.82-2.7,4.94-2.77L641,347.73a14.76,14.76,0,0,0,4.62-4,9,9,0,0,0,.89-9.54c-1.17-3.13-5-6.78-9.39-9.32L403,188,168.92,51a45.81,45.81,0,0,0-11.67-4.6,47.51,47.51,0,0,0-20.06-.63,46.2,46.2,0,0,0-8.37,2.93c-.16.06-4.82,2.7-4.94,2.77Z"/><path class="cls-34" d="M10.94,118.84a13.46,13.46,0,0,0-4.5,4,8.47,8.47,0,0,0-.19,9.28c1,2.81,5.53,6.72,9.51,9l232,135.77L479.94,412.72a49.91,49.91,0,0,0,11.49,4.72,46.83,46.83,0,0,0,19.83,1,45.28,45.28,0,0,0,8.36-2.74c.32-.12,4.67-2.54,4.92-2.69l114-65.75a13.52,13.52,0,0,0,4.49-4,8.47,8.47,0,0,0,.2-9.28c-1-2.81-5.53-6.72-9.52-9l-232-135.77L169.49,53.39A50,50,0,0,0,158,48.67a46.66,46.66,0,0,0-19.83-1,44.44,44.44,0,0,0-8.35,2.73c-.32.12-4.68,2.54-4.93,2.69Z"/><path class="cls-35" d="M12.91,119.92a12.37,12.37,0,0,0-4.38,4,8,8,0,0,0,.5,9c.94,2.5,6.1,6.67,9.64,8.7l230,134.59L478.83,410.91c2.57,1.48,8.24,4.16,11.33,4.85a45.74,45.74,0,0,0,19.6,1.38,44.22,44.22,0,0,0,8.33-2.54c.48-.18,4.54-2.39,4.91-2.6l113-65.18a12.33,12.33,0,0,0,4.37-4,8,8,0,0,0-.49-9c-.94-2.5-6.1-6.67-9.64-8.7l-230-134.59L170.06,55.83c-2.57-1.48-8.25-4.16-11.33-4.85a45.75,45.75,0,0,0-19.6-1.38,43.28,43.28,0,0,0-8.33,2.54c-.48.18-4.54,2.38-4.92,2.6Z"/><path class="cls-36" d="M14.88,121a11.25,11.25,0,0,0-4.26,4c-1.34,2.55-1.23,5.66,1.2,8.75.81,2.18,6.66,6.61,9.76,8.39l228,133.4,228.2,133.55c2.24,1.29,8.45,4.36,11.15,5a44.81,44.81,0,0,0,19.38,1.75,41.17,41.17,0,0,0,8.3-2.35c.64-.23,4.4-2.22,4.9-2.51l112-64.61a11.09,11.09,0,0,0,4.25-4c1.35-2.55,1.24-5.65-1.18-8.74-.82-2.19-6.67-6.61-9.77-8.39L398.82,191.81,170.62,58.26c-2.24-1.29-8.45-4.37-11.15-5a44.35,44.35,0,0,0-19.38-1.75,41,41,0,0,0-8.3,2.34c-.64.23-4.4,2.23-4.9,2.52Z"/><path class="cls-37" d="M16.85,122.09a10.29,10.29,0,0,0-4.13,4c-1.12,2.42-.84,5.47,1.88,8.48.7,1.88,7.23,6.55,9.89,8.08L250.4,274.9,476.62,407.31c1.93,1.1,8.67,4.57,11,5.09a43.65,43.65,0,0,0,19.15,2.12,39.43,39.43,0,0,0,8.28-2.15c.81-.28,4.27-2.06,4.89-2.43l111-64a10.33,10.33,0,0,0,4.14-4c1.11-2.42.83-5.46-1.89-8.47-.7-1.88-7.23-6.56-9.89-8.09L397.41,193.09,171.19,60.69c-1.92-1.11-8.67-4.57-11-5.09a43.49,43.49,0,0,0-19.15-2.13,40.39,40.39,0,0,0-8.28,2.15c-.81.28-4.27,2.07-4.89,2.43Z"/><path class="cls-38" d="M18.83,123.17a9.32,9.32,0,0,0-4,4.06c-.9,2.28-.43,5.26,2.58,8.2.58,1.57,7.8,6.5,10,7.78l223.87,131L475.51,405.5c1.61.93,8.89,4.79,10.82,5.22a42.53,42.53,0,0,0,18.92,2.49,38.22,38.22,0,0,0,8.25-1.95,49.36,49.36,0,0,0,4.89-2.34l110.06-63.47a9.4,9.4,0,0,0,4-4.05c.9-2.28.43-5.27-2.58-8.21-.58-1.56-7.8-6.5-10-7.77L396,194.38,171.76,63.12c-1.6-.92-8.88-4.78-10.81-5.21A42.29,42.29,0,0,0,142,55.41a38.31,38.31,0,0,0-8.26,2,50.28,50.28,0,0,0-4.88,2.35Z"/><path class="cls-39" d="M20.8,124.26c-1.56.9-3.36,2.39-3.9,4.07-.69,2.14,0,5.07,3.27,7.94.47,1.25,8.37,6.44,10.14,7.46L252.14,273.59,474.41,403.7c1.28.74,9.1,5,10.64,5.34a41.45,41.45,0,0,0,18.69,2.87,37.12,37.12,0,0,0,8.24-1.76,40.66,40.66,0,0,0,4.87-2.26L625.94,345c1.56-.9,3.36-2.38,3.9-4.06.69-2.14,0-5.08-3.27-7.95-.47-1.25-8.37-6.44-10.14-7.46L394.6,195.66,172.33,65.56c-1.28-.74-9.1-5-10.64-5.34A41,41,0,0,0,143,57.35a36.56,36.56,0,0,0-8.24,1.76,40.64,40.64,0,0,0-4.87,2.25Z"/><path class="cls-40" d="M22.77,125.34c-1.49.87-3.35,2.36-3.78,4.09-.5,2,.38,4.88,4,7.67.35.94,8.93,6.39,10.26,7.16L253,272.93l220.29,129c1,.56,9.32,5.21,10.47,5.47a40.3,40.3,0,0,0,18.47,3.24,35.93,35.93,0,0,0,8.21-1.57,31.52,31.52,0,0,0,4.86-2.17l108.12-62.32c1.49-.87,3.35-2.36,3.78-4.08.5-2-.37-4.89-4-7.68-.35-.94-8.94-6.39-10.26-7.16L393.19,197,172.9,68c-1-.56-9.31-5.21-10.47-5.46A40.18,40.18,0,0,0,144,59.28a35.84,35.84,0,0,0-8.2,1.57A32.05,32.05,0,0,0,130.9,63Z"/><path class="cls-41" d="M24.74,126.43c-1.42.82-3.35,2.32-3.66,4.1s.78,4.69,4.66,7.41c.23.62,9.5,6.33,10.39,6.84L253.88,272.27,472.2,400.09c.64.37,9.52,5.41,10.3,5.59a39,39,0,0,0,18.23,3.61,34.92,34.92,0,0,0,8.19-1.37,27.32,27.32,0,0,0,4.85-2.08l107.15-61.76c1.43-.82,3.36-2.32,3.66-4.1s-.78-4.69-4.65-7.41c-.24-.62-9.51-6.33-10.39-6.84L391.78,198.24,173.47,70.42c-.64-.37-9.53-5.41-10.3-5.59a39,39,0,0,0-18.24-3.61,34.84,34.84,0,0,0-8.18,1.37,26.32,26.32,0,0,0-4.85,2.09Z"/><path class="cls-42" d="M26.71,127.51c-1.36.79-3.38,2.29-3.54,4.12s1.19,4.5,5.35,7.14c.12.31,10.07,6.28,10.52,6.54L254.76,271.62,471.09,398.29c.32.18,9.74,5.62,10.13,5.71a37.8,37.8,0,0,0,18,4,33.5,33.5,0,0,0,8.16-1.17,23.3,23.3,0,0,0,4.84-2l106.19-61.18c1.35-.79,3.37-2.29,3.54-4.12s-1.19-4.5-5.36-7.14c-.11-.31-10.06-6.28-10.51-6.54L390.37,199.52,174,72.85c-.32-.18-9.75-5.62-10.13-5.71a37.83,37.83,0,0,0-18-4,33.5,33.5,0,0,0-8.16,1.17,22.77,22.77,0,0,0-4.84,2Z"/><path class="cls-23" d="M497.73,406.67c5.15,0,9.76-1,13-2.89l105.22-60.61c1.29-.75,3.42-2.26,3.42-4.13,0-1.57-1.59-4.31-6.05-6.88L389,200.81,164.65,69.45a36.63,36.63,0,0,0-17.79-4.36c-5.15,0-9.75,1-13,2.9L28.69,128.6c-1.3.75-3.43,2.26-3.43,4.13,0,1.57,1.59,4.31,6,6.87L255.63,271,479.94,402.32A36.52,36.52,0,0,0,497.73,406.67Z"/><path class="cls-43" d="M59.6,96c-7-4-13.41-4.58-18.15-2.2,4.42-1.24,9.91-.33,15.86,3.1,14.67,8.43,26.58,28.9,26.61,45.71,0,8.76-3.2,14.79-8.35,17.37,6.48-1.82,10.66-8.27,10.64-18.26C86.18,124.89,74.27,104.43,59.6,96Z"/><path class="cls-44" d="M58.14,108.72c-9.46-5.44-17.15-1-17.13,9.81s7.73,24.1,17.2,29.55,17.15,1,17.13-9.81S67.61,114.17,58.14,108.72Z"/><path class="cls-45" d="M64.3,144.14c-9.46-5.44-17.18-18.69-17.2-29.54a15,15,0,0,1,2-8.1c-4.86.68-8.11,5-8.1,12,0,10.85,7.73,24.1,17.2,29.55,6.54,3.76,12.23,2.81,15.12-1.72C70.7,146.73,67.62,146.05,64.3,144.14Z"/><path class="cls-46" d="M70.08,136.77c0,6.7-4.72,9.41-10.57,6s-10.6-11.52-10.61-18.22,4.72-9.41,10.57-6S70.07,130.06,70.08,136.77Z"/><path class="cls-47" d="M69.22,132.92c0,5.68-4,8-8.95,5.12s-9-9.76-9-15.43,4-8,8.95-5.13S69.21,127.24,69.22,132.92Z"/><path class="cls-48" d="M66.78,134.61c0,5.68-4,8-9,5.13s-9-9.76-9-15.44,4-8,8.95-5.12S66.77,128.94,66.78,134.61Z"/><path class="cls-49" d="M115.11,142.16c-9.47-5.44-17.15-1-17.13,9.8s7.73,24.11,17.19,29.55,17.15,1.05,17.14-9.8S124.57,147.6,115.11,142.16Z"/><path class="cls-50" d="M121.27,177.58c-9.47-5.44-17.18-18.7-17.2-29.55a14.85,14.85,0,0,1,2-8.09c-4.87.67-8.12,5-8.1,12,0,10.85,7.73,24.11,17.19,29.55,6.55,3.77,12.24,2.82,15.12-1.71A14.36,14.36,0,0,1,121.27,177.58Z"/><path class="cls-51" d="M127,170.2c0,6.71-4.72,9.41-10.56,6.05s-10.6-11.52-10.61-18.23,4.72-9.41,10.57-6S127,163.5,127,170.2Z"/><path class="cls-52" d="M126.18,166.36c0,5.67-4,8-9,5.12s-9-9.76-9-15.44,4-8,9-5.12S126.18,160.68,126.18,166.36Z"/><path class="cls-53" d="M123.75,168.05c0,5.68-4,8-9,5.12s-9-9.76-9-15.44,4-8,9-5.12S123.74,162.37,123.75,168.05Z"/><polygon class="cls-54" points="256.97 205.9 257.01 231.22 171.5 181.81 171.46 156.57 256.97 205.9"/><polygon class="cls-55" points="256.96 205.9 257.01 231.22 280.99 217.52 280.95 192.13 256.96 205.9"/><polygon class="cls-56" points="280.95 192.13 256.96 205.9 171.46 156.57 195.46 142.83 280.95 192.13"/><polygon class="cls-57" points="155.45 143.34 155.53 191.4 163.83 186.74 163.75 138.37 155.45 143.34"/><polygon class="cls-58" points="242.93 227.06 238.58 229.63 167.6 188.89 172 186.38 242.93 227.06"/><polygon class="cls-59" points="167.47 162.93 167.51 188.93 172 186.41 171.95 160.24 167.47 162.93"/><path class="cls-60" d="M245,204l.06,37-84-48.51L161,155.77Zm-77.38-15.3,70.89,41,0-21.86-70.89-40.69Z"/><polygon class="cls-61" points="244.95 203.96 245.01 240.94 250.51 238.14 250.44 200.93 244.95 203.96"/><polygon class="cls-62" points="250.44 200.93 244.95 203.96 161.01 155.77 166.56 152.82 250.44 200.93"/><path class="cls-63" d="M325.08,264.28c1.14,15.58-12.24,19.26-22.1,25.39-4.79,2.69-1.73-3.4-9-7.59-14.67-8.43-26.58-28.9-26.61-45.72,0-8.31-7.7-8.37-3-11.15,10.63-5.31,20.87-15.62,34.11-6.65C313.14,227,325.05,247.46,325.08,264.28Z"/><ellipse class="cls-64" cx="283.17" cy="257.75" rx="21.59" ry="37.4" transform="translate(-91.51 178.78) rotate(-30.41)"/><path class="cls-65" d="M284.39,226.67c-7-4-13.41-4.58-18.15-2.2,26.67-5.12,57.92,49,34.12,66.18C324.82,278.71,303,236.36,284.39,226.67Z"/><path class="cls-66" d="M282.93,239.4c-9.46-5.44-17.15-1-17.13,9.81s7.73,24.1,17.2,29.55,17.15,1,17.13-9.81S292.39,244.85,282.93,239.4Z"/><path class="cls-67" d="M289.09,274.82c-11.25-6.72-21.65-25.11-15.19-37.64-23.12,6.68,7.87,58.42,24.22,39.86C295.49,277.41,292.4,276.73,289.09,274.82Z"/><path class="cls-68" d="M294.87,267.45c-2.36,18.81-22.84-1.94-21.18-12.18,0-6.71,4.72-9.41,10.57-6.05S294.86,260.74,294.87,267.45Z"/><path class="cls-69" d="M294,263.6c-2,15.68-19.47-1.54-17.94-10.32C278.08,237.6,295.54,254.83,294,263.6Z"/><path class="cls-70" d="M291.57,265.29c0,5.68-4,8-8.95,5.12-8.43-3.07-14.72-26.68,0-20.56C287.54,252.7,291.56,259.61,291.57,265.29Z"/><polygon class="cls-71" points="421.62 306.27 421.69 343.25 310.89 279.53 310.83 242.86 421.62 306.27"/><polygon class="cls-72" points="342.39 261.18 342.45 296.83 340.67 295.89 340.61 260.17 342.39 261.18"/><polygon class="cls-73" points="340.61 260.2 340.67 295.85 339.61 295.3 339.55 259.58 340.61 260.2"/><path class="cls-74" d="M421.64,315.76l0,24.66-73.88-42.5h0A14.15,14.15,0,0,1,369,285.62Z"/><path class="cls-75" d="M369,285.62l52.66,30.14v3.3L369,288.92a14.16,14.16,0,0,0-20.83,9.21l-.36-.21A14.15,14.15,0,0,1,369,285.62Z"/><polygon class="cls-76" points="421.59 306.27 421.65 343.25 509 293.37 508.94 256.16 421.59 306.27"/><polygon class="cls-77" points="508.94 256.16 421.59 306.27 310.83 242.86 398.23 192.83 508.94 256.16"/><path class="cls-78" d="M514.05,226.32,406.91,287.55,16.58,61.23,123.73,0Z"/></g></g></g></svg>