<svg xmlns="http://www.w3.org/2000/svg" xmlns:xlink="http://www.w3.org/1999/xlink" viewBox="0 0 374.61 243.03"><defs><style>.cls-1{isolation:isolate;}.cls-2{fill:url(#linear-gradient);}.cls-3{fill:url(#linear-gradient-2);}.cls-4{fill:url(#radial-gradient);}.cls-5{fill:url(#linear-gradient-3);}.cls-6{fill:url(#linear-gradient-4);}.cls-7{fill:url(#linear-gradient-5);}.cls-8{fill:url(#linear-gradient-6);}.cls-9{fill:url(#linear-gradient-7);}.cls-10{fill:url(#linear-gradient-8);}.cls-11{fill:url(#linear-gradient-9);}.cls-12{fill:url(#radial-gradient-2);}.cls-13{fill:url(#linear-gradient-10);}.cls-14{fill:url(#linear-gradient-11);}.cls-15{fill:url(#linear-gradient-12);}.cls-16{fill:url(#linear-gradient-13);}.cls-17{fill:url(#linear-gradient-14);}.cls-18{fill:url(#linear-gradient-15);}.cls-19{fill:url(#linear-gradient-16);}.cls-20{fill:url(#linear-gradient-17);}.cls-21,.cls-31,.cls-32,.cls-33,.cls-34,.cls-35,.cls-36,.cls-37,.cls-38,.cls-39,.cls-40,.cls-41{fill:#010101;}.cls-21{opacity:0.2;}.cls-22{fill:url(#linear-gradient-18);}.cls-23{fill:url(#linear-gradient-19);}.cls-24{fill:url(#linear-gradient-20);}.cls-25{fill:url(#linear-gradient-21);}.cls-26{fill:url(#linear-gradient-22);}.cls-27{fill:url(#linear-gradient-23);}.cls-28{fill:url(#linear-gradient-24);}.cls-29{fill:url(#linear-gradient-25);}.cls-30,.cls-42,.cls-65{mix-blend-mode:screen;}.cls-30{fill:url(#Radial_Gradient_1);}.cls-31{opacity:0;}.cls-32{opacity:0.02;}.cls-33{opacity:0.04;}.cls-34{opacity:0.05;}.cls-35{opacity:0.07;}.cls-36{opacity:0.09;}.cls-37{opacity:0.11;}.cls-38{opacity:0.13;}.cls-39{opacity:0.15;}.cls-40{opacity:0.16;}.cls-41{opacity:0.18;}.cls-42{fill:url(#Radial_Gradient_1-2);}.cls-43{fill:url(#New_Gradient_Swatch_copy_11);}.cls-44{fill:url(#linear-gradient-26);}.cls-45,.cls-50,.cls-68,.cls-72,.cls-75{mix-blend-mode:multiply;}.cls-45{fill:url(#linear-gradient-27);}.cls-46{fill:url(#linear-gradient-28);}.cls-47{fill:url(#New_Gradient_Swatch_copy_11-2);}.cls-48{fill:url(#New_Gradient_Swatch_copy_11-3);}.cls-49{fill:url(#linear-gradient-29);}.cls-50{fill:url(#linear-gradient-30);}.cls-51{fill:url(#linear-gradient-31);}.cls-52{fill:url(#New_Gradient_Swatch_copy_11-4);}.cls-53{fill:url(#linear-gradient-32);}.cls-54{fill:url(#linear-gradient-33);}.cls-55{fill:url(#linear-gradient-34);}.cls-56{fill:url(#New_Gradient_Swatch_copy_9);}.cls-57{fill:url(#New_Gradient_Swatch_copy_9-2);}.cls-58{fill:url(#New_Gradient_Swatch_copy_9-3);}.cls-59{fill:url(#New_Gradient_Swatch_copy_9-4);}.cls-60{fill:url(#New_Gradient_Swatch_copy_9-5);}.cls-61{fill:url(#New_Gradient_Swatch_copy_9-6);}.cls-62{fill:url(#New_Gradient_Swatch_copy_9-7);}.cls-63{fill:url(#New_Gradient_Swatch_copy_10);}.cls-64{fill:url(#New_Gradient_Swatch_copy_9-8);}.cls-65{fill:url(#Radial_Gradient_1-3);}.cls-66{fill:url(#New_Gradient_Swatch_copy_11-5);}.cls-67{fill:url(#linear-gradient-35);}.cls-68{fill:url(#linear-gradient-36);}.cls-69{fill:url(#linear-gradient-37);}.cls-70{fill:url(#New_Gradient_Swatch_copy_11-6);}.cls-71{fill:url(#New_Gradient_Swatch_copy_11-7);}.cls-72{fill:url(#New_Gradient_Swatch_copy_11-8);}.cls-73{mix-blend-mode:color-dodge;fill:url(#Radial_Gradient_1-4);}.cls-74{fill:url(#New_Gradient_Swatch_copy_11-9);}.cls-75{fill:url(#New_Gradient_Swatch_copy_11-10);}.cls-76{fill:url(#New_Gradient_Swatch_copy_11-11);}.cls-77{fill:url(#New_Gradient_Swatch_copy_11-12);}.cls-78{fill:#424241;}</style><linearGradient id="linear-gradient" x1="5135.68" y1="136.44" x2="5161.95" y2="171.64" gradientTransform="translate(5192.03 223.18) rotate(180)" gradientUnits="userSpaceOnUse"><stop offset="0" stop-color="#17142b"/><stop offset="0.5" stop-color="#1b1836"/><stop offset="1" stop-color="#17142b"/></linearGradient><linearGradient id="linear-gradient-2" x1="5144.9" y1="154.76" x2="5185.48" y2="135.78" gradientTransform="translate(5192.03 223.18) rotate(180)" gradientUnits="userSpaceOnUse"><stop offset="0" stop-color="#17142b"/><stop offset="1" stop-color="#1b1836"/></linearGradient><radialGradient id="radial-gradient" cx="1214.49" cy="630.13" r="3.15" gradientTransform="translate(-6200.35 -3163.97) scale(5.14)" gradientUnits="userSpaceOnUse"><stop offset="0" stop-color="#fff"/><stop offset="1" stop-color="#010101"/></radialGradient><linearGradient id="linear-gradient-3" x1="5148.35" y1="152.91" x2="5182.96" y2="133.96" gradientTransform="translate(5192.03 223.18) rotate(180)" gradientUnits="userSpaceOnUse"><stop offset="0" stop-color="#a69db4"/><stop offset="0.14" stop-color="#aba2b9"/><stop offset="0.33" stop-color="#b192c4"/><stop offset="0.55" stop-color="#cbafd5"/><stop offset="0.58" stop-color="#ceb3d7"/><stop offset="0.76" stop-color="#d9c3e0"/><stop offset="1" stop-color="#eadeee"/></linearGradient><linearGradient id="linear-gradient-4" x1="5151.88" y1="136.08" x2="5165.71" y2="158.11" gradientTransform="translate(5192.03 223.18) rotate(180)" gradientUnits="userSpaceOnUse"><stop offset="0.01" stop-color="#c0a2cd"/><stop offset="0.23" stop-color="#c8abd2"/><stop offset="0.36" stop-color="#ceb3d7"/><stop offset="0.43" stop-color="#b094c6"/><stop offset="0.49" stop-color="#ad9bb7"/><stop offset="0.56" stop-color="#ae99af"/><stop offset="0.61" stop-color="#a7a5ac"/><stop offset="0.76" stop-color="#aa9cb0"/><stop offset="1" stop-color="#afa1bc"/></linearGradient><linearGradient id="linear-gradient-5" x1="5138.26" y1="156.24" x2="5163.74" y2="143.03" gradientTransform="translate(5192.03 223.18) rotate(180)" gradientUnits="userSpaceOnUse"><stop offset="0" stop-color="#9a9ab1"/><stop offset="1" stop-color="#fff"/></linearGradient><linearGradient id="linear-gradient-6" x1="5157.88" y1="155.05" x2="5151.83" y2="142.78" xlink:href="#linear-gradient-4"/><linearGradient id="linear-gradient-7" x1="5141.86" y1="155.65" x2="5163.45" y2="144.46" xlink:href="#linear-gradient-3"/><linearGradient id="linear-gradient-8" x1="5103.56" y1="117.53" x2="5129.82" y2="152.74" xlink:href="#linear-gradient"/><linearGradient id="linear-gradient-9" x1="5112.8" y1="135.87" x2="5153.38" y2="116.88" xlink:href="#linear-gradient-2"/><radialGradient id="radial-gradient-2" cx="1218.76" cy="632.64" r="3.15" gradientTransform="translate(-6190.15 -3157.96) scale(5.14)" xlink:href="#radial-gradient"/><linearGradient id="linear-gradient-10" x1="5116.26" y1="134.02" x2="5150.86" y2="115.07" xlink:href="#linear-gradient-3"/><linearGradient id="linear-gradient-11" x1="5119.75" y1="117.17" x2="5133.59" y2="139.2" xlink:href="#linear-gradient-4"/><linearGradient id="linear-gradient-12" x1="5106.16" y1="137.35" x2="5131.64" y2="124.13" xlink:href="#linear-gradient-5"/><linearGradient id="linear-gradient-13" x1="5125.84" y1="136.1" x2="5119.78" y2="123.82" xlink:href="#linear-gradient-4"/><linearGradient id="linear-gradient-14" x1="5109.64" y1="136.5" x2="5131.22" y2="125.31" xlink:href="#linear-gradient-3"/><linearGradient id="linear-gradient-15" x1="5052.27" y1="106.76" x2="5159.43" y2="138.84" gradientTransform="translate(5192.03 223.18) rotate(180)" gradientUnits="userSpaceOnUse"><stop offset="0.02" stop-color="#977e9a"/><stop offset="0.53" stop-color="#a69db4"/><stop offset="0.64" stop-color="#aba2b9"/><stop offset="0.8" stop-color="#b192c4"/><stop offset="0.98" stop-color="#cbafd5"/><stop offset="1" stop-color="#ceb3d7"/></linearGradient><linearGradient id="linear-gradient-16" x1="5106.77" y1="208.92" x2="5054.97" y2="110.21" xlink:href="#linear-gradient-15"/><linearGradient id="linear-gradient-17" x1="5180.31" y1="176.41" x2="5193.76" y2="180.44" xlink:href="#linear-gradient-3"/><linearGradient id="linear-gradient-18" x1="5163.97" y1="204.65" x2="5160.18" y2="197.43" xlink:href="#linear-gradient-3"/><linearGradient id="linear-gradient-19" x1="5153.98" y1="165.17" x2="5185.71" y2="172.29" xlink:href="#linear-gradient-2"/><linearGradient id="linear-gradient-20" x1="5113.15" y1="158.31" x2="5236.44" y2="110.7" xlink:href="#linear-gradient-2"/><linearGradient id="linear-gradient-21" x1="5083.39" y1="124.27" x2="5115.12" y2="131.38" xlink:href="#linear-gradient-2"/><linearGradient id="linear-gradient-22" x1="5110.47" y1="174.43" x2="5067.97" y2="93.44" xlink:href="#linear-gradient-2"/><linearGradient id="linear-gradient-23" x1="5084.81" y1="120.5" x2="5101.98" y2="124.35" xlink:href="#linear-gradient-2"/><linearGradient id="linear-gradient-24" x1="5058.31" y1="104.37" x2="5167.05" y2="136.93" xlink:href="#linear-gradient-2"/><linearGradient id="linear-gradient-25" x1="5116.74" y1="203.97" x2="5066.6" y2="108.41" xlink:href="#linear-gradient-2"/><radialGradient id="Radial_Gradient_1" cx="5072.15" cy="123.02" r="92.6" gradientTransform="translate(5192.03 223.18) rotate(180)" gradientUnits="userSpaceOnUse"><stop offset="0" stop-color="#fff"/><stop offset="1"/></radialGradient><radialGradient id="Radial_Gradient_1-2" cx="-1952.88" cy="70.87" r="16.51" gradientTransform="matrix(1, 0, 0, 1, 1989.53, -1.49)" xlink:href="#Radial_Gradient_1"/><linearGradient id="New_Gradient_Swatch_copy_11" x1="-1049.36" y1="-142.46" x2="-1084.68" y2="-123.12" gradientTransform="matrix(1, 0, 0, 1, 1091.05, 210.27)" gradientUnits="userSpaceOnUse"><stop offset="0" stop-color="#babfb3"/><stop offset="0.25" stop-color="#c0c4ba"/><stop offset="0.58" stop-color="#cfd2ca"/><stop offset="0.82" stop-color="#dddfda"/><stop offset="1" stop-color="#eaebe8"/></linearGradient><linearGradient id="linear-gradient-26" x1="-1951.61" y1="84.77" x2="-1965.73" y2="62.28" gradientTransform="matrix(1, 0, 0, 1, 1989.53, -1.49)" gradientUnits="userSpaceOnUse"><stop offset="0.01" stop-color="#c4c8bd"/><stop offset="0.3" stop-color="#cdd0c7"/><stop offset="0.36" stop-color="#cfd2ca"/><stop offset="0.36" stop-color="#cfd2ca"/><stop offset="0.5" stop-color="#c2c6bb"/><stop offset="0.61" stop-color="#bdc2b6"/><stop offset="1" stop-color="#bec3b7"/></linearGradient><linearGradient id="linear-gradient-27" x1="7130.37" y1="64.39" x2="7156.38" y2="77.87" gradientTransform="matrix(-1, 0, 0, 1, 7182, -10.22)" gradientUnits="userSpaceOnUse"><stop offset="0" stop-color="#e0e5da"/><stop offset="1" stop-color="#fff"/></linearGradient><linearGradient id="linear-gradient-28" x1="7150.49" y1="65.57" x2="7144.31" y2="78.1" gradientTransform="matrix(-1, 0, 0, 1, 7182, -10.22)" xlink:href="#linear-gradient-26"/><linearGradient id="New_Gradient_Swatch_copy_11-2" x1="7134.01" y1="65.07" x2="7156.04" y2="76.49" gradientTransform="matrix(-1, 0, 0, 1, 7182, -10.22)" xlink:href="#New_Gradient_Swatch_copy_11"/><linearGradient id="New_Gradient_Swatch_copy_11-3" x1="-1016.59" y1="-123.15" x2="-1051.91" y2="-103.81" xlink:href="#New_Gradient_Swatch_copy_11"/><linearGradient id="linear-gradient-29" x1="-1918.83" y1="104.08" x2="-1932.96" y2="81.59" xlink:href="#linear-gradient-26"/><linearGradient id="linear-gradient-30" x1="7097.6" y1="83.7" x2="7123.61" y2="97.18" xlink:href="#linear-gradient-27"/><linearGradient id="linear-gradient-31" x1="7117.71" y1="84.89" x2="7111.53" y2="97.41" gradientTransform="matrix(-1, 0, 0, 1, 7182, -10.22)" xlink:href="#linear-gradient-26"/><linearGradient id="New_Gradient_Swatch_copy_11-4" x1="7101.24" y1="84.38" x2="7123.27" y2="95.8" gradientTransform="matrix(-1, 0, 0, 1, 7182, -10.22)" xlink:href="#New_Gradient_Swatch_copy_11"/><linearGradient id="linear-gradient-32" x1="7042.64" y1="114.86" x2="7152.01" y2="82.11" gradientTransform="matrix(-1, 0, 0, 1, 7182, -10.22)" gradientUnits="userSpaceOnUse"><stop offset="0.02" stop-color="#a6af9f"/><stop offset="0.53" stop-color="#babfb3"/><stop offset="0.74" stop-color="#c0c4ba"/><stop offset="1" stop-color="#cfd2ca"/></linearGradient><linearGradient id="linear-gradient-33" x1="7003.92" y1="125.55" x2="7051.73" y2="114.83" xlink:href="#linear-gradient-32"/><linearGradient id="linear-gradient-34" x1="7098.2" y1="10.54" x2="7045.34" y2="111.28" xlink:href="#linear-gradient-32"/><linearGradient id="New_Gradient_Swatch_copy_9" x1="7146.44" y1="55.2" x2="7178.83" y2="47.94" gradientTransform="matrix(-1, 0, 0, 1, 7182, -10.22)" gradientUnits="userSpaceOnUse"><stop offset="0" stop-color="#070711"/><stop offset="1"/></linearGradient><linearGradient id="New_Gradient_Swatch_copy_9-2" x1="7074.37" y1="96.81" x2="7106.75" y2="89.55" xlink:href="#New_Gradient_Swatch_copy_9"/><linearGradient id="New_Gradient_Swatch_copy_9-3" x1="7101.97" y1="45.74" x2="7058.6" y2="128.39" xlink:href="#New_Gradient_Swatch_copy_9"/><linearGradient id="New_Gradient_Swatch_copy_9-4" x1="7075.84" y1="100.77" x2="7093.37" y2="96.85" xlink:href="#New_Gradient_Swatch_copy_9"/><linearGradient id="New_Gradient_Swatch_copy_9-5" x1="104.57" y1="116.17" x2="186.11" y2="91.76" gradientTransform="matrix(1, 0, 0, 1, 0.13, 1.85)" xlink:href="#New_Gradient_Swatch_copy_9"/><linearGradient id="New_Gradient_Swatch_copy_9-6" x1="7027.97" y1="128.21" x2="7051.62" y2="122.91" xlink:href="#New_Gradient_Swatch_copy_9"/><linearGradient id="New_Gradient_Swatch_copy_9-7" x1="7108.51" y1="15.65" x2="7057.33" y2="113.18" xlink:href="#New_Gradient_Swatch_copy_9"/><linearGradient id="New_Gradient_Swatch_copy_10" x1="-1806.11" y1="160.11" x2="-1832.92" y2="124.18" gradientTransform="matrix(1, 0, 0, 1, 1989.53, -1.49)" gradientUnits="userSpaceOnUse"><stop offset="0" stop-color="#070711"/><stop offset="0.5"/><stop offset="1" stop-color="#070711"/></linearGradient><linearGradient id="New_Gradient_Swatch_copy_9-8" x1="7007.76" y1="141.51" x2="7049.18" y2="160.89" gradientTransform="matrix(-0.86, -0.5, -0.5, 0.86, 6296.87, 3564.15)" xlink:href="#New_Gradient_Swatch_copy_9"/><radialGradient id="Radial_Gradient_1-3" cx="-1823.56" cy="146.34" r="16.51" gradientTransform="matrix(1, 0, 0, 1, 1989.53, -1.49)" xlink:href="#Radial_Gradient_1"/><linearGradient id="New_Gradient_Swatch_copy_11-5" x1="-920.04" y1="-66.99" x2="-955.36" y2="-47.65" xlink:href="#New_Gradient_Swatch_copy_11"/><linearGradient id="linear-gradient-35" x1="-1822.28" y1="160.24" x2="-1836.41" y2="137.76" xlink:href="#linear-gradient-26"/><linearGradient id="linear-gradient-36" x1="7001.05" y1="139.86" x2="7027.06" y2="153.34" xlink:href="#linear-gradient-27"/><linearGradient id="linear-gradient-37" x1="7021.16" y1="141.05" x2="7014.98" y2="153.57" gradientTransform="matrix(-1, 0, 0, 1, 7182, -10.22)" xlink:href="#linear-gradient-26"/><linearGradient id="New_Gradient_Swatch_copy_11-6" x1="7004.69" y1="140.54" x2="7026.72" y2="151.96" gradientTransform="matrix(-1, 0, 0, 1, 7182, -10.22)" xlink:href="#New_Gradient_Swatch_copy_11"/><linearGradient id="New_Gradient_Swatch_copy_11-7" x1="6950.25" y1="173.59" x2="7093.05" y2="130.83" gradientTransform="matrix(-1, 0, 0, 1, 7182, -10.22)" xlink:href="#New_Gradient_Swatch_copy_11"/><linearGradient id="New_Gradient_Swatch_copy_11-8" x1="6983.68" y1="159.43" x2="6996.61" y2="155.56" gradientTransform="matrix(-1, 0, 0, 1, 7182, -10.22)" xlink:href="#New_Gradient_Swatch_copy_11"/><radialGradient id="Radial_Gradient_1-4" cx="6993.56" cy="157.65" r="10.22" gradientTransform="matrix(-1, 0, 0, 1, 7182, -10.22)" xlink:href="#Radial_Gradient_1"/><linearGradient id="New_Gradient_Swatch_copy_11-9" x1="6955.23" y1="171.67" x2="6968.83" y2="195.2" gradientTransform="matrix(-1, 0, 0, 1, 7182, -10.22)" xlink:href="#New_Gradient_Swatch_copy_11"/><linearGradient id="New_Gradient_Swatch_copy_11-10" x1="6915.08" y1="171.92" x2="6981.45" y2="172.19" gradientTransform="matrix(-1, 0, 0, 1, 7182, -10.22)" xlink:href="#New_Gradient_Swatch_copy_11"/><linearGradient id="New_Gradient_Swatch_copy_11-11" x1="6840.04" y1="187.85" x2="6991.91" y2="153.8" gradientTransform="matrix(-1, 0, 0, 1, 7182, -10.22)" xlink:href="#New_Gradient_Swatch_copy_11"/><linearGradient id="New_Gradient_Swatch_copy_11-12" x1="7007.17" y1="26.04" x2="6937.54" y2="158.72" gradientTransform="matrix(-1, 0, 0, 1, 7182, -10.22)" xlink:href="#New_Gradient_Swatch_copy_11"/></defs><g class="cls-1"><g id="Capa_2" data-name="Capa 2"><g id="Capa_1-2" data-name="Capa 1"><path class="cls-2" d="M59.75,77.65c0,4.72-1.58,7.87-4.09,9.44l-8.19,4.72c-2.83,1.58-.94-1.89-5-4.4C34.25,82.68,27.32,71,27.32,61.59c0-4.72-4.4-4.72-1.57-6.3l8.81-4.72C37.4,49,40.86,49.31,45,51.83,52.82,56.55,59.75,68.2,59.75,77.65Z" transform="translate(0)"/><path class="cls-3" d="M50.93,82.37c0,9.44-6.61,13.22-15.11,8.5C27.64,86.15,20.71,74.5,20.71,65.05s6.61-13.22,15.11-8.5C44.32,61.59,50.93,72.92,50.93,82.37Z" transform="translate(0)"/><path class="cls-4" d="M36.77,56.24C32.68,54,29.21,53.72,26.38,55a10.63,10.63,0,0,1,8.81,1.89C43.38,61.59,50.3,73.24,50.3,82.68c0,5-1.88,8.19-4.72,9.76,3.78-.94,6-4.72,6-10.39C51.88,72.61,45,61,36.77,56.24Z" transform="translate(0)"/><path class="cls-5" d="M35.82,63.48c5.36,3.15,9.76,10.7,9.76,16.68s-4.4,8.5-9.76,5.67-9.76-10.7-9.76-16.68C26.38,62.85,30.47,60.33,35.82,63.48Z" transform="translate(0)"/><path class="cls-6" d="M39.29,83.63c-5.36-3.15-9.76-10.71-9.76-16.69,0-1.89.31-3.46,1.26-4.41-2.84.32-4.73,2.84-4.73,6.93,0,6,4.41,13.54,9.76,16.69,3.78,2.2,6.93,1.57,8.5-1A22.17,22.17,0,0,1,39.29,83.63Z" transform="translate(0)"/><path class="cls-7" d="M42.75,79.22c0,3.78-2.52,5.35-6,3.46s-6-6.61-6-10.39,2.51-5.35,6-3.46S42.75,75.44,42.75,79.22Z" transform="translate(0)"/><path class="cls-8" d="M42.12,77c0,3.14-2.2,4.4-5,2.83s-5-5.67-5-8.82,2.2-4.4,5-2.83A11.7,11.7,0,0,1,42.12,77Z" transform="translate(0)"/><path class="cls-9" d="M40.86,78c0,3.15-2.2,4.41-5,2.83a11.19,11.19,0,0,1-5-8.81c0-3.15,2.2-4.41,5-2.83A11.67,11.67,0,0,1,40.86,78Z" transform="translate(0)"/><path class="cls-10" d="M91.86,96.53c0,4.73-1.57,7.87-4.09,9.45l-8.19,4.72c-2.83,1.58-.94-1.89-5-4.41-8.19-4.72-15.12-16.37-15.12-25.81,0-4.72-4.4-4.72-1.57-6.3l8.81-4.72c2.84-1.57,6.3-1.26,10.39,1.26C84.93,75.44,91.86,87.09,91.86,96.53Z" transform="translate(0)"/><path class="cls-11" d="M83.05,101.26c0,9.44-6.62,13.22-15.12,8.5C59.75,105,52.82,93.39,52.82,83.94s6.61-13.22,15.11-8.5C76.43,80.48,83.05,91.81,83.05,101.26Z" transform="translate(0)"/><path class="cls-12" d="M68.88,75.13c-4.09-2.21-7.56-2.52-10.39-1.26a10.63,10.63,0,0,1,8.81,1.89c8.19,4.72,15.12,16.37,15.12,25.81,0,5-1.89,8.19-4.73,9.76,3.78-.94,6-4.72,6-10.39C84,91.5,77.06,79.85,68.88,75.13Z" transform="translate(0)"/><path class="cls-13" d="M67.93,82.37c5.36,3.15,9.76,10.7,9.76,16.68s-4.4,8.5-9.76,5.67C62.58,101.57,58.17,94,58.17,88,58.49,81.74,62.58,79.22,67.93,82.37Z" transform="translate(0)"/><path class="cls-14" d="M71.4,102.52c-5.35-3.15-9.76-10.71-9.76-16.69,0-1.89.31-3.46,1.26-4.41-2.84.32-4.73,2.84-4.73,6.93,0,6,4.41,13.54,9.76,16.68,3.78,2.21,6.93,1.58,8.5-.94A22.17,22.17,0,0,1,71.4,102.52Z" transform="translate(0)"/><path class="cls-15" d="M74.86,98.11c0,3.78-2.52,5.35-6,3.46-3.15-1.89-6-6.61-6-10.39s2.52-5.35,6-3.46C72,89.92,74.86,94.33,74.86,98.11Z" transform="translate(0)"/><path class="cls-16" d="M74.23,96.22c0,3.15-2.2,4.41-5,2.83a11.19,11.19,0,0,1-5-8.81c0-3.15,2.2-4.41,5-2.83A10.72,10.72,0,0,1,74.23,96.22Z" transform="translate(0)"/><path class="cls-17" d="M73,97.16c0,3.15-2.2,4.41-5,2.84a11.23,11.23,0,0,1-5-8.82c0-3.15,2.2-4.4,5-2.83A10.72,10.72,0,0,1,73,97.16Z" transform="translate(0)"/><path class="cls-18" d="M147.9,118.57v14.17l-48.17-28V90.55Z" transform="translate(0)"/><path class="cls-19" d="M161.43,110.7l-13.53,7.87-48.17-28L113.27,83Z" transform="translate(0)"/><path class="cls-20" d="M10.64,37.66V55.92L8.75,54.35V36.41Z" transform="translate(0)"/><path class="cls-21" d="M10.64,37.66V55.92L54.08,31.68V13.42Z" transform="translate(0)"/><path class="cls-22" d="M54.08,13.42,10.64,37.66,8.75,36.41,52.19,11.85Z" transform="translate(0)"/><path class="cls-23" d="M20.08,42.39V69.46l4.72-2.52V39.55Z" transform="translate(0)"/><path class="cls-24" d="M90.92,83v27.07l-5-2.83V85.83L20.08,47.74V69.46l-4.72-2.83V39.55Z" transform="translate(0)"/><path class="cls-25" d="M90.92,83v27.39l4.4-2.84V80.48Z" transform="translate(0)"/><path class="cls-26" d="M140,130.53l-2.52,1.26-40-23,2.52-1.26Z" transform="translate(0)"/><path class="cls-27" d="M97.53,94.33v14.48l2.52-1.26V92.76Z" transform="translate(0)"/><path class="cls-28" d="M141.29,117.31v20.78L94.06,110.7V89.92Zm-43.76-8.5,40,23.3V119.52l-40-23Z" transform="translate(0)"/><path class="cls-29" d="M144.43,115.74l-3.14,1.57L94.06,90.24l2.84-1.89Z" transform="translate(0)"/><path class="cls-30" d="M232.27,163.59v3.78L7.49,36.72V32.94Z" transform="translate(0)"/><path class="cls-31" d="M301,240.68l69.58-40.17c6-3.46,5.21-9.49-1.7-13.47l-136-79.55L97,28C90,24,79.59,23.56,73.61,27L4,67.19c-6,3.46-5.22,9.49,1.7,13.47l136,79.54,136,79.55C284.57,243.73,295,244.14,301,240.68Z" transform="translate(0)"/><path class="cls-32" d="M5.16,67.81A8.5,8.5,0,0,0,2.51,70.1,5.21,5.21,0,0,0,2,75.59c.68,1.8,2.86,3.9,5.41,5.37l134.79,78.87L277,238.71a25.88,25.88,0,0,0,6.72,2.65,27.4,27.4,0,0,0,11.55.37,27.93,27.93,0,0,0,4.83-1.69c.09,0,2.75-1.54,2.82-1.59l66.19-38.2a8.43,8.43,0,0,0,2.66-2.29,5.21,5.21,0,0,0,.52-5.49c-.68-1.8-2.86-3.9-5.41-5.37L232.1,108.24,97.28,29.35a26.24,26.24,0,0,0-6.72-2.65A27.44,27.44,0,0,0,79,26.33,27.82,27.82,0,0,0,74.18,28c-.09,0-2.75,1.55-2.82,1.59Z" transform="translate(0)"/><path class="cls-33" d="M6.3,68.44a7.79,7.79,0,0,0-2.59,2.29,4.87,4.87,0,0,0-.11,5.34c.6,1.62,3.18,3.87,5.47,5.19L142.7,159.45l133.69,78.22a28.09,28.09,0,0,0,6.62,2.72,26.66,26.66,0,0,0,11.42.58,26.08,26.08,0,0,0,4.81-1.57c.18-.07,2.67-1.46,2.82-1.54L367.69,200a7.81,7.81,0,0,0,2.59-2.3,4.87,4.87,0,0,0,.11-5.34c-.6-1.62-3.18-3.87-5.47-5.19L231.29,109,97.6,30.75A28.52,28.52,0,0,0,91,28a26.82,26.82,0,0,0-11.42-.58A26.86,26.86,0,0,0,74.75,29c-.18.08-2.67,1.46-2.82,1.54Z" transform="translate(0)"/><path class="cls-34" d="M7.43,69.06a7.17,7.17,0,0,0-2.52,2.31,4.62,4.62,0,0,0,.29,5.18c.54,1.44,3.51,3.84,5.55,5L143.2,159.07l132.55,77.57a31.62,31.62,0,0,0,6.52,2.79,26.38,26.38,0,0,0,11.29.79,25.23,25.23,0,0,0,4.8-1.46c.27-.11,2.6-1.37,2.81-1.49l65.08-37.55a6.94,6.94,0,0,0,2.51-2.3,4.61,4.61,0,0,0-.28-5.19c-.54-1.44-3.51-3.83-5.55-5L230.48,109.72,97.93,32.15a31.62,31.62,0,0,0-6.52-2.79,26.39,26.39,0,0,0-11.29-.8A25.23,25.23,0,0,0,75.32,30c-.27.1-2.6,1.36-2.81,1.49Z" transform="translate(0)"/><path class="cls-35" d="M8.57,69.68A6.47,6.47,0,0,0,6.12,72a4.46,4.46,0,0,0,.68,5c.48,1.26,3.83,3.8,5.62,4.83L143.7,158.69,275.11,235.6a35.82,35.82,0,0,0,6.43,2.86,25.69,25.69,0,0,0,11.15,1,24.23,24.23,0,0,0,4.79-1.35c.37-.14,2.52-1.28,2.81-1.44l64.51-37.22a6.44,6.44,0,0,0,2.45-2.31,4.47,4.47,0,0,0-.68-5c-.47-1.26-3.83-3.8-5.62-4.82L229.67,110.46,98.26,33.55a35.82,35.82,0,0,0-6.43-2.86,25.54,25.54,0,0,0-11.15-1A23.29,23.29,0,0,0,75.9,31c-.38.13-2.53,1.27-2.82,1.44Z" transform="translate(0)"/><path class="cls-36" d="M9.71,70.31a5.88,5.88,0,0,0-2.39,2.32c-.64,1.4-.48,3.15,1.09,4.88.4,1.08,4.15,3.77,5.68,4.65L144.2,158.31l130.27,76.25a40.52,40.52,0,0,0,6.33,2.93,25.21,25.21,0,0,0,11,1.22,22.94,22.94,0,0,0,4.77-1.23c.46-.17,2.44-1.19,2.8-1.4l64-36.88a5.92,5.92,0,0,0,2.38-2.32c.64-1.4.48-3.15-1.09-4.88-.4-1.09-4.15-3.77-5.68-4.65L228.86,111.2,98.59,35A40.52,40.52,0,0,0,92.26,32a25.06,25.06,0,0,0-11-1.23A22.68,22.68,0,0,0,76.47,32c-.47.16-2.45,1.19-2.81,1.39Z" transform="translate(0)"/><path class="cls-37" d="M10.84,70.93a5.43,5.43,0,0,0-2.31,2.34C8,74.58,8.28,76.3,10,78c.34.9,4.48,3.74,5.75,4.47L144.7,157.93l129.14,75.59a47.55,47.55,0,0,0,6.22,3A24.54,24.54,0,0,0,291,238a22.75,22.75,0,0,0,4.76-1.12,29.15,29.15,0,0,0,2.8-1.35l63.39-36.55a5.32,5.32,0,0,0,2.31-2.34c.52-1.31.25-3-1.48-4.72-.34-.9-4.48-3.74-5.75-4.47L228.05,111.94,98.91,36.35a47.55,47.55,0,0,0-6.22-3,24.38,24.38,0,0,0-10.9-1.44A21.9,21.9,0,0,0,77,33a30.56,30.56,0,0,0-2.81,1.35Z" transform="translate(0)"/><path class="cls-38" d="M12,71.56A4.9,4.9,0,0,0,9.73,73.9c-.4,1.23,0,2.92,1.89,4.57.26.72,4.8,3.71,5.82,4.29L145.2,157.55l128,74.93a57.54,57.54,0,0,0,6.13,3.08,23.9,23.9,0,0,0,10.76,1.65,21.53,21.53,0,0,0,4.75-1,21.79,21.79,0,0,0,2.79-1.29l62.84-36.23a4.88,4.88,0,0,0,2.24-2.34c.4-1.23,0-2.92-1.88-4.57-.27-.72-4.8-3.7-5.82-4.29L227.24,112.68l-128-74.93a59.42,59.42,0,0,0-6.13-3.07A23.77,23.77,0,0,0,82.35,33a20.77,20.77,0,0,0-4.74,1,22.7,22.7,0,0,0-2.8,1.29Z" transform="translate(0)"/><path class="cls-39" d="M13.11,72.18a4.48,4.48,0,0,0-2.17,2.35c-.29,1.15.21,2.82,2.28,4.42.2.54,5.13,3.67,5.89,4.11L145.7,157.18l126.86,74.26c.56.32,5.37,3,6,3.15a23.22,23.22,0,0,0,10.64,1.86,19.86,19.86,0,0,0,4.73-.9,19.38,19.38,0,0,0,2.79-1.24L359,198.41a4.5,4.5,0,0,0,2.18-2.35c.29-1.15-.22-2.81-2.29-4.42-.2-.54-5.12-3.67-5.89-4.11L226.43,113.42,99.57,39.15c-.55-.32-5.36-3-6-3.14A23.07,23.07,0,0,0,82.9,34.14a20.81,20.81,0,0,0-4.72.9,17.51,17.51,0,0,0-2.79,1.25Z" transform="translate(0)"/><path class="cls-40" d="M14.25,72.81a4.09,4.09,0,0,0-2.11,2.36c-.18,1.06.45,2.7,2.68,4.26a64.81,64.81,0,0,0,6,3.93L146.21,156.8l125.72,73.6c.37.22,5.48,3.12,5.93,3.22a22.42,22.42,0,0,0,10.5,2.08,19.88,19.88,0,0,0,4.72-.79,14.46,14.46,0,0,0,2.78-1.2l61.72-35.56a4.1,4.1,0,0,0,2.1-2.36c.19-1.06-.44-2.7-2.68-4.27-.13-.36-5.45-3.64-6-3.93L225.62,114.16,99.9,40.55c-.37-.21-5.49-3.11-5.93-3.21a22.59,22.59,0,0,0-10.51-2.09,20.31,20.31,0,0,0-4.71.79A16.26,16.26,0,0,0,76,37.24Z" transform="translate(0)"/><path class="cls-41" d="M15.38,73.43c-.78.45-1.94,1.32-2,2.37s.69,2.59,3.09,4.11c.06.18,5.77,3.61,6,3.76l124.25,72.75,124.58,73c.19.1,5.61,3.23,5.83,3.28A21.82,21.82,0,0,0,287.5,235a19.27,19.27,0,0,0,4.69-.68,12.71,12.71,0,0,0,2.79-1.15l61.15-35.23c.78-.46,1.95-1.32,2-2.37s-.68-2.6-3.08-4.12c-.07-.18-5.78-3.6-6-3.75L224.81,114.9,100.23,42c-.19-.1-5.62-3.23-5.84-3.28A21.69,21.69,0,0,0,84,36.37a19.35,19.35,0,0,0-4.7.68,12.82,12.82,0,0,0-2.78,1.15Z" transform="translate(0)"/><path class="cls-21" d="M286.63,234.19a15.3,15.3,0,0,0,7.47-1.66l60.59-34.9c.74-.44,2-1.31,2-2.38,0-.91-.92-2.49-3.48-4L224,115.64,94.82,40a21.07,21.07,0,0,0-10.24-2.52,15.41,15.41,0,0,0-7.47,1.67L16.52,74.06c-.75.43-2,1.3-2,2.37,0,.91.91,2.49,3.48,4L147.21,156l129.18,75.64A20.93,20.93,0,0,0,286.63,234.19Z" transform="translate(0)"/><path class="cls-42" d="M34.33,55.28C30.28,53,26.6,52.64,23.87,54c2.55-.71,5.71-.19,9.14,1.78,8.44,4.86,15.3,16.65,15.32,26.33,0,5-1.84,8.52-4.81,10,3.73-1,6.14-4.77,6.13-10.52C49.63,71.92,42.77,60.14,34.33,55.28Z" transform="translate(0)"/><path class="cls-43" d="M33.48,62.61c-5.45-3.13-9.87-.6-9.86,5.65s4.45,13.88,9.9,17,9.88.61,9.87-5.64S38.93,65.75,33.48,62.61Z" transform="translate(0)"/><path class="cls-44" d="M37,83c-5.45-3.14-9.89-10.77-9.9-17a8.57,8.57,0,0,1,1.15-4.66c-2.8.39-4.67,2.87-4.66,6.93,0,6.25,4.45,13.88,9.9,17,3.77,2.17,7,1.63,8.71-1A8.27,8.27,0,0,1,37,83Z" transform="translate(0)"/><path class="cls-45" d="M40.36,78.76c0,3.86-2.72,5.42-6.09,3.48a13.4,13.4,0,0,1-6.11-10.49c0-3.86,2.72-5.42,6.09-3.49A13.44,13.44,0,0,1,40.36,78.76Z" transform="translate(0)"/><path class="cls-46" d="M39.86,76.55c0,3.26-2.3,4.59-5.15,3a11.39,11.39,0,0,1-5.18-8.89c0-3.27,2.31-4.59,5.16-3A11.35,11.35,0,0,1,39.86,76.55Z" transform="translate(0)"/><path class="cls-47" d="M38.46,77.52c0,3.27-2.3,4.59-5.16,3a11.38,11.38,0,0,1-5.17-8.89c0-3.27,2.3-4.59,5.15-3A11.36,11.36,0,0,1,38.46,77.52Z" transform="translate(0)"/><path class="cls-48" d="M66.29,81.87c-5.45-3.14-9.88-.61-9.87,5.64s4.46,13.88,9.91,17,9.87.6,9.86-5.65S71.74,85,66.29,81.87Z" transform="translate(0)"/><path class="cls-49" d="M69.83,102.26c-5.45-3.13-9.89-10.76-9.9-17a8.61,8.61,0,0,1,1.16-4.66c-2.8.39-4.67,2.86-4.67,6.92,0,6.25,4.46,13.88,9.91,17,3.77,2.17,7,1.62,8.7-1A8.27,8.27,0,0,1,69.83,102.26Z" transform="translate(0)"/><path class="cls-50" d="M73.16,98c0,3.86-2.72,5.42-6.08,3.48A13.41,13.41,0,0,1,61,91c0-3.86,2.72-5.42,6.08-3.48A13.41,13.41,0,0,1,73.16,98Z" transform="translate(0)"/><path class="cls-51" d="M72.67,95.8c0,3.27-2.3,4.59-5.16,3a11.35,11.35,0,0,1-5.17-8.89c0-3.27,2.3-4.59,5.15-3A11.36,11.36,0,0,1,72.67,95.8Z" transform="translate(0)"/><path class="cls-52" d="M71.26,96.78c0,3.26-2.3,4.59-5.15,3a11.35,11.35,0,0,1-5.17-8.89c0-3.27,2.3-4.59,5.15-3A11.35,11.35,0,0,1,71.26,96.78Z" transform="translate(0)"/><polygon class="cls-53" points="147.99 118.57 148.01 133.16 98.76 104.7 98.74 90.16 147.99 118.57"/><polygon class="cls-54" points="147.98 118.57 148 133.16 161.82 125.27 161.79 110.65 147.98 118.57"/><polygon class="cls-55" points="161.79 110.65 147.98 118.57 98.74 90.16 112.56 82.25 161.79 110.65"/><polygon class="cls-56" points="17.38 41.05 17.43 68.73 22.2 66.05 22.16 38.2 17.38 41.05"/><polygon class="cls-57" points="89.52 82.55 89.57 110.22 94.35 107.54 94.3 79.69 89.52 82.55"/><polygon class="cls-58" points="139.9 130.76 137.39 132.24 96.52 108.78 99.05 107.33 139.9 130.76"/><polygon class="cls-59" points="96.44 93.83 96.47 108.8 99.05 107.35 99.02 92.28 96.44 93.83"/><path class="cls-60" d="M141.08,117.46l0,21.29L92.76,110.82l0-21.12Zm-44.56-8.82,40.82,23.58,0-12.58L96.5,96.21Z" transform="translate(0)"/><polygon class="cls-61" points="141.06 117.45 141.09 138.75 144.26 137.14 144.22 115.71 141.06 117.45"/><polygon class="cls-62" points="144.22 115.71 141.06 117.45 92.72 89.7 95.92 88.01 144.22 115.71"/><path class="cls-63" d="M187.21,152.19c0,4.73-1.62,8.09-4.27,9.71l-8.46,4.92c-2.76,1.54-1-2-5.19-4.38C160.84,157.59,154,145.8,154,136.12c0-4.79-4.43-4.82-1.72-6.43l9-5c2.75-1.49,6.51-1.22,10.66,1.16C180.33,130.72,187.19,142.51,187.21,152.19Z" transform="translate(0)"/><ellipse class="cls-64" cx="163.07" cy="148.43" rx="12.44" ry="21.54" transform="matrix(0.86, -0.51, 0.51, 0.86, -52.7, 102.95)"/><path class="cls-65" d="M163.78,130.53c-4.05-2.32-7.73-2.63-10.46-1.26,2.55-.72,5.71-.19,9.14,1.78,8.44,4.86,15.3,16.64,15.32,26.33,0,5-1.84,8.51-4.81,10,3.73-1,6.14-4.76,6.13-10.52C179.08,147.18,172.22,135.39,163.78,130.53Z" transform="translate(0)"/><path class="cls-66" d="M162.93,137.87c-5.45-3.14-9.87-.61-9.86,5.64s4.45,13.88,9.9,17,9.88.6,9.87-5.65S168.38,141,162.93,137.87Z" transform="translate(0)"/><path class="cls-67" d="M166.48,158.27c-5.45-3.14-9.89-10.77-9.9-17a8.52,8.52,0,0,1,1.15-4.66c-2.8.39-4.67,2.86-4.66,6.92,0,6.25,4.45,13.88,9.9,17,3.77,2.17,7.05,1.62,8.71-1A8.32,8.32,0,0,1,166.48,158.27Z" transform="translate(0)"/><path class="cls-68" d="M169.81,154c0,3.86-2.72,5.42-6.09,3.48a13.44,13.44,0,0,1-6.11-10.5c0-3.86,2.72-5.42,6.09-3.48A13.44,13.44,0,0,1,169.81,154Z" transform="translate(0)"/><path class="cls-69" d="M169.31,151.8c0,3.27-2.3,4.59-5.15,2.95a11.39,11.39,0,0,1-5.18-8.89c0-3.27,2.31-4.59,5.16-3A11.35,11.35,0,0,1,169.31,151.8Z" transform="translate(0)"/><path class="cls-70" d="M167.91,152.78c0,3.27-2.3,4.59-5.16,2.95a11.38,11.38,0,0,1-5.17-8.89c0-3.27,2.3-4.59,5.15-3A11.36,11.36,0,0,1,167.91,152.78Z" transform="translate(0)"/><polygon class="cls-71" points="242.8 176.38 242.84 197.67 179.04 160.97 179 139.86 242.8 176.38"/><polygon class="cls-72" points="197.17 150.41 197.21 170.94 196.19 170.4 196.15 149.82 197.17 150.41"/><polygon class="cls-73" points="196.15 149.84 196.19 170.37 195.57 170.06 195.54 149.49 196.15 149.84"/><path class="cls-74" d="M242.81,181.84l0,14.2-42.55-24.47h0a8.15,8.15,0,0,1,12.2-7.09Z" transform="translate(0)"/><path class="cls-75" d="M212.49,164.48l30.32,17.36v1.9l-30.33-17.35a8.14,8.14,0,0,0-12,5.3l-.21-.12h0A8.15,8.15,0,0,1,212.49,164.48Z" transform="translate(0)"/><polygon class="cls-76" points="242.78 176.38 242.82 197.67 293.12 168.94 293.08 147.51 242.78 176.38"/><polygon class="cls-77" points="293.08 147.51 242.78 176.38 179 139.86 229.33 111.05 293.08 147.51"/><path class="cls-78" d="M296,130.33l-61.7,35.26L9.55,35.26,71.25,0Z" transform="translate(0)"/></g></g></g></svg>