<svg xmlns="http://www.w3.org/2000/svg" xmlns:xlink="http://www.w3.org/1999/xlink" viewBox="0 0 406.88 243.03"><defs><style>.cls-1{isolation:isolate;}.cls-2{fill:url(#linear-gradient);}.cls-3{fill:url(#linear-gradient-2);}.cls-4{fill:url(#radial-gradient);}.cls-5{fill:url(#linear-gradient-3);}.cls-6{fill:url(#linear-gradient-4);}.cls-7{fill:url(#linear-gradient-5);}.cls-8{fill:url(#linear-gradient-6);}.cls-9{fill:url(#linear-gradient-7);}.cls-10{fill:url(#linear-gradient-8);}.cls-11{fill:url(#linear-gradient-9);}.cls-12{fill:url(#radial-gradient-2);}.cls-13{fill:url(#linear-gradient-10);}.cls-14{fill:url(#linear-gradient-11);}.cls-15{fill:url(#linear-gradient-12);}.cls-16{fill:url(#linear-gradient-13);}.cls-17{fill:url(#linear-gradient-14);}.cls-18{fill:url(#linear-gradient-15);}.cls-19{fill:url(#linear-gradient-16);}.cls-20{fill:url(#linear-gradient-17);}.cls-21,.cls-32,.cls-33,.cls-34,.cls-35,.cls-36,.cls-37,.cls-38,.cls-39,.cls-40,.cls-41,.cls-42{fill:#010101;}.cls-21{opacity:0.2;}.cls-22{fill:url(#linear-gradient-18);}.cls-23{fill:url(#linear-gradient-19);}.cls-24{fill:url(#linear-gradient-20);}.cls-25{fill:url(#linear-gradient-21);}.cls-26{fill:url(#linear-gradient-22);}.cls-27{fill:url(#linear-gradient-23);}.cls-28{fill:url(#linear-gradient-24);}.cls-29{fill:url(#linear-gradient-25);}.cls-110,.cls-154,.cls-158,.cls-159,.cls-160,.cls-162,.cls-163,.cls-164,.cls-165,.cls-30,.cls-43,.cls-66,.cls-96{mix-blend-mode:screen;}.cls-30{fill:url(#Radial_Gradient_1);}.cls-31{fill:#424241;}.cls-32{opacity:0;}.cls-33{opacity:0.02;}.cls-34{opacity:0.04;}.cls-35{opacity:0.05;}.cls-36{opacity:0.07;}.cls-37{opacity:0.09;}.cls-38{opacity:0.11;}.cls-39{opacity:0.13;}.cls-40{opacity:0.15;}.cls-41{opacity:0.16;}.cls-42{opacity:0.18;}.cls-43{fill:url(#Radial_Gradient_1-2);}.cls-44{fill:url(#New_Gradient_Swatch_copy_11);}.cls-45{fill:url(#linear-gradient-26);}.cls-100,.cls-103,.cls-129,.cls-130,.cls-133,.cls-135,.cls-137,.cls-138,.cls-139,.cls-46,.cls-51,.cls-69,.cls-73,.cls-76{mix-blend-mode:multiply;}.cls-46{fill:url(#linear-gradient-27);}.cls-47{fill:url(#linear-gradient-28);}.cls-48{fill:url(#New_Gradient_Swatch_copy_11-2);}.cls-49{fill:url(#New_Gradient_Swatch_copy_11-3);}.cls-50{fill:url(#linear-gradient-29);}.cls-51{fill:url(#linear-gradient-30);}.cls-52{fill:url(#linear-gradient-31);}.cls-53{fill:url(#New_Gradient_Swatch_copy_11-4);}.cls-54{fill:url(#linear-gradient-32);}.cls-55{fill:url(#linear-gradient-33);}.cls-56{fill:url(#linear-gradient-34);}.cls-57{fill:url(#New_Gradient_Swatch_copy_9);}.cls-58{fill:url(#New_Gradient_Swatch_copy_9-2);}.cls-59{fill:url(#New_Gradient_Swatch_copy_9-3);}.cls-60{fill:url(#New_Gradient_Swatch_copy_9-4);}.cls-61{fill:url(#New_Gradient_Swatch_copy_9-5);}.cls-62{fill:url(#New_Gradient_Swatch_copy_9-6);}.cls-63{fill:url(#New_Gradient_Swatch_copy_9-7);}.cls-64{fill:url(#New_Gradient_Swatch_copy_10);}.cls-65{fill:url(#New_Gradient_Swatch_copy_9-8);}.cls-66{fill:url(#Radial_Gradient_1-3);}.cls-67{fill:url(#New_Gradient_Swatch_copy_11-5);}.cls-68{fill:url(#linear-gradient-35);}.cls-69{fill:url(#linear-gradient-36);}.cls-70{fill:url(#linear-gradient-37);}.cls-71{fill:url(#New_Gradient_Swatch_copy_11-6);}.cls-72{fill:url(#New_Gradient_Swatch_copy_11-7);}.cls-73{fill:url(#New_Gradient_Swatch_copy_11-8);}.cls-125,.cls-128,.cls-156,.cls-157,.cls-161,.cls-74,.cls-81,.cls-85,.cls-90{mix-blend-mode:color-dodge;}.cls-74{fill:url(#Radial_Gradient_1-4);}.cls-75{fill:url(#New_Gradient_Swatch_copy_11-9);}.cls-76{fill:url(#New_Gradient_Swatch_copy_11-10);}.cls-77{fill:url(#New_Gradient_Swatch_copy_11-11);}.cls-78{fill:url(#New_Gradient_Swatch_copy_11-12);}.cls-79{fill:url(#New_Gradient_Swatch_copy_9-9);}.cls-80{fill:url(#New_Gradient_Swatch_copy_13);}.cls-81{fill:url(#Radial_Gradient_1-5);}.cls-82{fill:url(#New_Gradient_Swatch_copy_9-10);}.cls-83{fill:url(#linear-gradient-38);}.cls-84{fill:url(#New_Gradient_Swatch_copy_11-13);}.cls-85{fill:url(#Radial_Gradient_1-6);}.cls-86{fill:url(#New_Gradient_Swatch_copy_9-11);}.cls-87{fill:url(#New_Gradient_Swatch_copy_9-12);}.cls-88{fill:url(#New_Gradient_Swatch_copy_9-13);}.cls-162,.cls-163,.cls-164,.cls-165,.cls-89{opacity:0.5;}.cls-89{fill:url(#New_Gradient_Swatch_copy_11-14);}.cls-91{fill:url(#Radial_Gradient_1-7);}.cls-92{fill:url(#Radial_Gradient_1-8);}.cls-93{fill:url(#Radial_Gradient_1-9);}.cls-94{fill:url(#Radial_Gradient_1-10);}.cls-95{fill:url(#New_Gradient_Swatch_copy_9-14);}.cls-96{fill:url(#linear-gradient-39);}.cls-97{fill:url(#New_Gradient_Swatch_copy_9-15);}.cls-98{fill:url(#New_Gradient_Swatch_copy_9-16);}.cls-99{fill:url(#New_Gradient_Swatch_copy_9-17);}.cls-101{fill:#bec3b7;}.cls-102{fill:url(#New_Gradient_Swatch_copy_11-15);}.cls-103{fill:url(#linear-gradient-40);}.cls-104{fill:url(#linear-gradient-41);}.cls-105{fill:url(#New_Gradient_Swatch_copy_10-2);}.cls-106{fill:url(#New_Gradient_Swatch_copy_9-18);}.cls-107{fill:url(#New_Gradient_Swatch_copy_11-16);}.cls-108{fill:url(#New_Gradient_Swatch_copy_11-17);}.cls-109{fill:url(#New_Gradient_Swatch_copy_15);}.cls-110{fill:url(#Radial_Gradient_1-11);}.cls-111{fill:url(#New_Gradient_Swatch_copy_9-19);}.cls-112{fill:url(#New_Gradient_Swatch_copy_14);}.cls-113{fill:url(#New_Gradient_Swatch_copy_11-18);}.cls-114{fill:url(#New_Gradient_Swatch_copy_11-19);}.cls-115{fill:url(#New_Gradient_Swatch_copy_11-20);}.cls-116{fill:url(#New_Gradient_Swatch_copy_11-21);}.cls-117{fill:url(#Radial_Gradient_1-12);}.cls-118{fill:url(#Radial_Gradient_1-13);}.cls-119{fill:url(#linear-gradient-42);}.cls-120{fill:url(#New_Gradient_Swatch_copy_11-22);}.cls-121{fill:url(#radial-gradient-3);}.cls-122{fill:url(#radial-gradient-4);}.cls-123{fill:url(#New_Gradient_Swatch_copy_9-20);}.cls-124{fill:url(#New_Gradient_Swatch_copy_13-2);}.cls-125{fill:url(#Radial_Gradient_1-14);}.cls-126{fill:url(#linear-gradient-43);}.cls-127{fill:url(#New_Gradient_Swatch_copy_11-23);}.cls-128{fill:url(#Radial_Gradient_1-15);}.cls-129{fill:url(#New_Gradient_Swatch_copy_11-24);}.cls-130{fill:url(#New_Gradient_Swatch_copy_11-25);}.cls-131{fill:url(#linear-gradient-44);}.cls-132{fill:url(#linear-gradient-45);}.cls-133{fill:url(#linear-gradient-46);}.cls-134{fill:url(#linear-gradient-47);}.cls-135{fill:url(#linear-gradient-48);}.cls-136{fill:url(#linear-gradient-49);}.cls-137{fill:url(#linear-gradient-50);}.cls-138{fill:url(#New_Gradient_Swatch_copy_11-26);}.cls-139{fill:url(#linear-gradient-51);}.cls-140{fill:url(#New_Gradient_Swatch_copy_12);}.cls-141{fill:url(#New_Gradient_Swatch_copy_12-2);}.cls-142{fill:url(#New_Gradient_Swatch_copy_12-3);}.cls-143{fill:url(#New_Gradient_Swatch_copy_12-4);}.cls-144{fill:url(#New_Gradient_Swatch_copy_12-5);}.cls-145{fill:url(#New_Gradient_Swatch_copy_12-6);}.cls-146{fill:url(#New_Gradient_Swatch_copy_12-7);}.cls-147{fill:url(#New_Gradient_Swatch_copy_12-8);}.cls-148{fill:url(#New_Gradient_Swatch_copy_12-9);}.cls-149{fill:url(#New_Gradient_Swatch_copy_12-10);}.cls-150{fill:url(#New_Gradient_Swatch_copy_12-11);}.cls-151{fill:url(#New_Gradient_Swatch_copy_12-12);}.cls-152{fill:url(#New_Gradient_Swatch_copy_12-13);}.cls-153{fill:url(#New_Gradient_Swatch_copy_12-14);}.cls-154{fill:url(#Radial_Gradient_1-16);}.cls-155{fill:url(#New_Gradient_Swatch_copy_11-27);}.cls-156{fill:url(#Radial_Gradient_1-17);}.cls-157{fill:url(#Radial_Gradient_1-18);}.cls-158{fill:url(#Radial_Gradient_1-19);}.cls-159{fill:url(#Radial_Gradient_1-20);}.cls-160{fill:url(#Radial_Gradient_1-21);}.cls-161{fill:url(#radial-gradient-5);}.cls-162{fill:url(#linear-gradient-52);}.cls-163{fill:url(#linear-gradient-53);}.cls-164{fill:url(#linear-gradient-54);}.cls-165{fill:url(#linear-gradient-55);}.cls-166{fill:url(#New_Gradient_Swatch_copy_10-3);}.cls-167{fill:url(#New_Gradient_Swatch_copy_10-4);}.cls-168{fill:url(#New_Gradient_Swatch_copy_10-5);}.cls-169{fill:url(#New_Gradient_Swatch_copy_10-6);}.cls-170{fill:url(#New_Gradient_Swatch_copy_10-7);}</style><linearGradient id="linear-gradient" x1="3338.72" y1="559.97" x2="3364.99" y2="595.17" gradientTransform="translate(3395.07 646.7) rotate(180)" gradientUnits="userSpaceOnUse"><stop offset="0" stop-color="#17142b"/><stop offset="0.5" stop-color="#1b1836"/><stop offset="1" stop-color="#17142b"/></linearGradient><linearGradient id="linear-gradient-2" x1="3347.94" y1="578.28" x2="3388.52" y2="559.3" gradientTransform="translate(3395.07 646.7) rotate(180)" gradientUnits="userSpaceOnUse"><stop offset="0" stop-color="#17142b"/><stop offset="1" stop-color="#1b1836"/></linearGradient><radialGradient id="radial-gradient" cx="490.9" cy="800.68" r="3.15" gradientTransform="translate(-2482.89 -4040.14) scale(5.14)" gradientUnits="userSpaceOnUse"><stop offset="0" stop-color="#fff"/><stop offset="1" stop-color="#010101"/></radialGradient><linearGradient id="linear-gradient-3" x1="3351.39" y1="576.44" x2="3386" y2="557.49" gradientTransform="translate(3395.07 646.7) rotate(180)" gradientUnits="userSpaceOnUse"><stop offset="0" stop-color="#a69db4"/><stop offset="0.14" stop-color="#aba2b9"/><stop offset="0.33" stop-color="#b192c4"/><stop offset="0.55" stop-color="#cbafd5"/><stop offset="0.58" stop-color="#ceb3d7"/><stop offset="0.76" stop-color="#d9c3e0"/><stop offset="1" stop-color="#eadeee"/></linearGradient><linearGradient id="linear-gradient-4" x1="3354.92" y1="559.61" x2="3368.76" y2="581.63" gradientTransform="translate(3395.07 646.7) rotate(180)" gradientUnits="userSpaceOnUse"><stop offset="0.01" stop-color="#c0a2cd"/><stop offset="0.23" stop-color="#c8abd2"/><stop offset="0.36" stop-color="#ceb3d7"/><stop offset="0.43" stop-color="#b094c6"/><stop offset="0.49" stop-color="#ad9bb7"/><stop offset="0.56" stop-color="#ae99af"/><stop offset="0.61" stop-color="#a7a5ac"/><stop offset="0.76" stop-color="#aa9cb0"/><stop offset="1" stop-color="#afa1bc"/></linearGradient><linearGradient id="linear-gradient-5" x1="3341.3" y1="579.77" x2="3366.78" y2="566.55" gradientTransform="translate(3395.07 646.7) rotate(180)" gradientUnits="userSpaceOnUse"><stop offset="0" stop-color="#9a9ab1"/><stop offset="1" stop-color="#fff"/></linearGradient><linearGradient id="linear-gradient-6" x1="3360.92" y1="578.57" x2="3354.87" y2="566.3" xlink:href="#linear-gradient-4"/><linearGradient id="linear-gradient-7" x1="3344.91" y1="579.17" x2="3366.49" y2="567.98" xlink:href="#linear-gradient-3"/><linearGradient id="linear-gradient-8" x1="3306.6" y1="541.06" x2="3332.87" y2="576.26" xlink:href="#linear-gradient"/><linearGradient id="linear-gradient-9" x1="3315.84" y1="559.39" x2="3356.42" y2="540.41" xlink:href="#linear-gradient-2"/><radialGradient id="radial-gradient-2" cx="495.17" cy="803.18" r="3.15" gradientTransform="translate(-2472.69 -4034.13) scale(5.14)" xlink:href="#radial-gradient"/><linearGradient id="linear-gradient-10" x1="3319.3" y1="557.54" x2="3353.9" y2="538.59" xlink:href="#linear-gradient-3"/><linearGradient id="linear-gradient-11" x1="3322.79" y1="540.7" x2="3336.63" y2="562.72" xlink:href="#linear-gradient-4"/><linearGradient id="linear-gradient-12" x1="3309.2" y1="560.87" x2="3334.69" y2="547.66" xlink:href="#linear-gradient-5"/><linearGradient id="linear-gradient-13" x1="3328.88" y1="559.62" x2="3322.83" y2="547.35" xlink:href="#linear-gradient-4"/><linearGradient id="linear-gradient-14" x1="3312.68" y1="560.03" x2="3334.26" y2="548.84" xlink:href="#linear-gradient-3"/><linearGradient id="linear-gradient-15" x1="3255.31" y1="530.28" x2="3362.47" y2="562.37" gradientTransform="translate(3395.07 646.7) rotate(180)" gradientUnits="userSpaceOnUse"><stop offset="0.02" stop-color="#977e9a"/><stop offset="0.53" stop-color="#a69db4"/><stop offset="0.64" stop-color="#aba2b9"/><stop offset="0.8" stop-color="#b192c4"/><stop offset="0.98" stop-color="#cbafd5"/><stop offset="1" stop-color="#ceb3d7"/></linearGradient><linearGradient id="linear-gradient-16" x1="3309.81" y1="632.44" x2="3258.01" y2="533.73" xlink:href="#linear-gradient-15"/><linearGradient id="linear-gradient-17" x1="3383.35" y1="599.93" x2="3396.8" y2="603.96" xlink:href="#linear-gradient-3"/><linearGradient id="linear-gradient-18" x1="3367.01" y1="628.18" x2="3363.22" y2="620.96" xlink:href="#linear-gradient-3"/><linearGradient id="linear-gradient-19" x1="3357.02" y1="588.7" x2="3388.75" y2="595.81" xlink:href="#linear-gradient-2"/><linearGradient id="linear-gradient-20" x1="3316.19" y1="581.83" x2="3439.48" y2="534.22" xlink:href="#linear-gradient-2"/><linearGradient id="linear-gradient-21" x1="3286.43" y1="547.79" x2="3318.17" y2="554.91" xlink:href="#linear-gradient-2"/><linearGradient id="linear-gradient-22" x1="3313.51" y1="597.95" x2="3271.01" y2="516.96" xlink:href="#linear-gradient-2"/><linearGradient id="linear-gradient-23" x1="3287.85" y1="544.03" x2="3305.02" y2="547.88" xlink:href="#linear-gradient-2"/><linearGradient id="linear-gradient-24" x1="3261.35" y1="527.89" x2="3370.1" y2="560.45" xlink:href="#linear-gradient-2"/><linearGradient id="linear-gradient-25" x1="3319.79" y1="627.5" x2="3269.64" y2="531.93" xlink:href="#linear-gradient-2"/><radialGradient id="Radial_Gradient_1" cx="3275.19" cy="546.55" r="92.6" gradientTransform="translate(3395.07 646.7) rotate(180)" gradientUnits="userSpaceOnUse"><stop offset="0" stop-color="#fff"/><stop offset="1"/></radialGradient><radialGradient id="Radial_Gradient_1-2" cx="-1952.53" cy="72.38" r="16.51" gradientTransform="matrix(1, 0, 0, 1, 1989.18, -3)" xlink:href="#Radial_Gradient_1"/><linearGradient id="New_Gradient_Swatch_copy_11" x1="-1947.84" y1="69.3" x2="-1983.16" y2="88.64" gradientTransform="matrix(1, 0, 0, 1, 1989.18, -3)" gradientUnits="userSpaceOnUse"><stop offset="0" stop-color="#babfb3"/><stop offset="0.25" stop-color="#c0c4ba"/><stop offset="0.58" stop-color="#cfd2ca"/><stop offset="0.82" stop-color="#dddfda"/><stop offset="1" stop-color="#eaebe8"/></linearGradient><linearGradient id="linear-gradient-26" x1="-1951.25" y1="86.28" x2="-1965.38" y2="63.8" gradientTransform="matrix(1, 0, 0, 1, 1989.18, -3)" gradientUnits="userSpaceOnUse"><stop offset="0.01" stop-color="#c4c8bd"/><stop offset="0.3" stop-color="#cdd0c7"/><stop offset="0.36" stop-color="#cfd2ca"/><stop offset="0.36" stop-color="#cfd2ca"/><stop offset="0.5" stop-color="#c2c6bb"/><stop offset="0.61" stop-color="#bdc2b6"/><stop offset="1" stop-color="#bec3b7"/></linearGradient><linearGradient id="linear-gradient-27" x1="5333.06" y1="65.9" x2="5359.07" y2="79.38" gradientTransform="matrix(-1, 0, 0, 1, 5384.69, -8.71)" gradientUnits="userSpaceOnUse"><stop offset="0" stop-color="#e0e5da"/><stop offset="1" stop-color="#fff"/></linearGradient><linearGradient id="linear-gradient-28" x1="5353.18" y1="67.09" x2="5347" y2="79.61" gradientTransform="matrix(-1, 0, 0, 1, 5384.69, -8.71)" xlink:href="#linear-gradient-26"/><linearGradient id="New_Gradient_Swatch_copy_11-2" x1="5336.7" y1="66.58" x2="5358.73" y2="78" gradientTransform="matrix(-1, 0, 0, 1, 5384.69, -8.71)" xlink:href="#New_Gradient_Swatch_copy_11"/><linearGradient id="New_Gradient_Swatch_copy_11-3" x1="-1915.07" y1="88.61" x2="-1950.39" y2="107.95" xlink:href="#New_Gradient_Swatch_copy_11"/><linearGradient id="linear-gradient-29" x1="-1918.48" y1="105.59" x2="-1932.6" y2="83.11" xlink:href="#linear-gradient-26"/><linearGradient id="linear-gradient-30" x1="5300.28" y1="85.21" x2="5326.29" y2="98.69" xlink:href="#linear-gradient-27"/><linearGradient id="linear-gradient-31" x1="5320.4" y1="86.4" x2="5314.22" y2="98.92" gradientTransform="matrix(-1, 0, 0, 1, 5384.69, -8.71)" xlink:href="#linear-gradient-26"/><linearGradient id="New_Gradient_Swatch_copy_11-4" x1="5303.93" y1="85.89" x2="5325.96" y2="97.31" gradientTransform="matrix(-1, 0, 0, 1, 5384.69, -8.71)" xlink:href="#New_Gradient_Swatch_copy_11"/><linearGradient id="linear-gradient-32" x1="5245.33" y1="116.37" x2="5354.7" y2="83.62" gradientTransform="matrix(-1, 0, 0, 1, 5384.69, -8.71)" gradientUnits="userSpaceOnUse"><stop offset="0.02" stop-color="#a6af9f"/><stop offset="0.53" stop-color="#babfb3"/><stop offset="0.74" stop-color="#c0c4ba"/><stop offset="1" stop-color="#cfd2ca"/></linearGradient><linearGradient id="linear-gradient-33" x1="5206.6" y1="127.06" x2="5254.42" y2="116.34" xlink:href="#linear-gradient-32"/><linearGradient id="linear-gradient-34" x1="5300.89" y1="12.05" x2="5248.03" y2="112.79" xlink:href="#linear-gradient-32"/><linearGradient id="New_Gradient_Swatch_copy_9" x1="5349.13" y1="56.71" x2="5381.51" y2="49.45" gradientTransform="matrix(-1, 0, 0, 1, 5384.69, -8.71)" gradientUnits="userSpaceOnUse"><stop offset="0" stop-color="#070711"/><stop offset="1"/></linearGradient><linearGradient id="New_Gradient_Swatch_copy_9-2" x1="5277.05" y1="98.32" x2="5309.44" y2="91.06" xlink:href="#New_Gradient_Swatch_copy_9"/><linearGradient id="New_Gradient_Swatch_copy_9-3" x1="5304.66" y1="47.25" x2="5261.29" y2="129.9" xlink:href="#New_Gradient_Swatch_copy_9"/><linearGradient id="New_Gradient_Swatch_copy_9-4" x1="5278.53" y1="102.29" x2="5296.05" y2="98.36" xlink:href="#New_Gradient_Swatch_copy_9"/><linearGradient id="New_Gradient_Swatch_copy_9-5" x1="104.92" y1="117.68" x2="186.46" y2="93.27" gradientTransform="matrix(1, 0, 0, 1, -0.23, 0.34)" xlink:href="#New_Gradient_Swatch_copy_9"/><linearGradient id="New_Gradient_Swatch_copy_9-6" x1="5230.66" y1="129.72" x2="5254.31" y2="124.42" xlink:href="#New_Gradient_Swatch_copy_9"/><linearGradient id="New_Gradient_Swatch_copy_9-7" x1="5311.2" y1="17.16" x2="5260.02" y2="114.7" xlink:href="#New_Gradient_Swatch_copy_9"/><linearGradient id="New_Gradient_Swatch_copy_10" x1="-1805.76" y1="161.62" x2="-1832.57" y2="125.69" gradientTransform="matrix(1, 0, 0, 1, 1989.18, -3)" gradientUnits="userSpaceOnUse"><stop offset="0" stop-color="#070711"/><stop offset="0.5"/><stop offset="1" stop-color="#070711"/></linearGradient><linearGradient id="New_Gradient_Swatch_copy_9-8" x1="5210.45" y1="143.02" x2="5251.86" y2="162.4" gradientTransform="matrix(-0.86, -0.5, -0.5, 0.86, 4746.01, 2655.76)" xlink:href="#New_Gradient_Swatch_copy_9"/><radialGradient id="Radial_Gradient_1-3" cx="-1823.21" cy="147.85" r="16.51" gradientTransform="matrix(1, 0, 0, 1, 1989.18, -3)" xlink:href="#Radial_Gradient_1"/><linearGradient id="New_Gradient_Swatch_copy_11-5" x1="-1818.52" y1="144.77" x2="-1853.84" y2="164.11" xlink:href="#New_Gradient_Swatch_copy_11"/><linearGradient id="linear-gradient-35" x1="-1821.93" y1="161.75" x2="-1836.05" y2="139.27" xlink:href="#linear-gradient-26"/><linearGradient id="linear-gradient-36" x1="5203.73" y1="141.37" x2="5229.74" y2="154.86" xlink:href="#linear-gradient-27"/><linearGradient id="linear-gradient-37" x1="5223.85" y1="142.56" x2="5217.67" y2="155.08" gradientTransform="matrix(-1, 0, 0, 1, 5384.69, -8.71)" xlink:href="#linear-gradient-26"/><linearGradient id="New_Gradient_Swatch_copy_11-6" x1="5207.37" y1="142.05" x2="5229.4" y2="153.48" gradientTransform="matrix(-1, 0, 0, 1, 5384.69, -8.71)" xlink:href="#New_Gradient_Swatch_copy_11"/><linearGradient id="New_Gradient_Swatch_copy_11-7" x1="5152.94" y1="175.1" x2="5295.74" y2="132.34" gradientTransform="matrix(-1, 0, 0, 1, 5384.69, -8.71)" xlink:href="#New_Gradient_Swatch_copy_11"/><linearGradient id="New_Gradient_Swatch_copy_11-8" x1="5186.37" y1="160.94" x2="5199.3" y2="157.07" gradientTransform="matrix(-1, 0, 0, 1, 5384.69, -8.71)" xlink:href="#New_Gradient_Swatch_copy_11"/><radialGradient id="Radial_Gradient_1-4" cx="5196.25" cy="159.16" r="10.22" gradientTransform="matrix(-1, 0, 0, 1, 5384.69, -8.71)" xlink:href="#Radial_Gradient_1"/><linearGradient id="New_Gradient_Swatch_copy_11-9" x1="5157.92" y1="173.19" x2="5171.52" y2="196.71" gradientTransform="matrix(-1, 0, 0, 1, 5384.69, -8.71)" xlink:href="#New_Gradient_Swatch_copy_11"/><linearGradient id="New_Gradient_Swatch_copy_11-10" x1="5117.77" y1="173.43" x2="5184.13" y2="173.71" gradientTransform="matrix(-1, 0, 0, 1, 5384.69, -8.71)" xlink:href="#New_Gradient_Swatch_copy_11"/><linearGradient id="New_Gradient_Swatch_copy_11-11" x1="5042.73" y1="189.36" x2="5194.59" y2="155.31" gradientTransform="matrix(-1, 0, 0, 1, 5384.69, -8.71)" xlink:href="#New_Gradient_Swatch_copy_11"/><linearGradient id="New_Gradient_Swatch_copy_11-12" x1="5209.86" y1="27.55" x2="5140.23" y2="160.24" gradientTransform="matrix(-1, 0, 0, 1, 5384.69, -8.71)" xlink:href="#New_Gradient_Swatch_copy_11"/><linearGradient id="New_Gradient_Swatch_copy_9-9" x1="5031.03" y1="123.23" x2="5042.32" y2="123.23" xlink:href="#New_Gradient_Swatch_copy_9"/><radialGradient id="New_Gradient_Swatch_copy_13" cx="5033.42" cy="119.89" r="11.59" gradientTransform="matrix(-1, 0, 0, 1, 5384.69, -8.71)" gradientUnits="userSpaceOnUse"><stop offset="0.01" stop-color="#fff"/><stop offset="0.1" stop-color="#eff0ed"/><stop offset="0.26" stop-color="#d8dad3"/><stop offset="0.36" stop-color="#cfd2ca"/><stop offset="0.62" stop-color="#c1c5ba"/><stop offset="0.72" stop-color="#babfb3"/><stop offset="0.99" stop-color="#babfb3"/><stop offset="1" stop-color="#babfb3"/></radialGradient><radialGradient id="Radial_Gradient_1-5" cx="5032.43" cy="120.21" r="3.59" gradientTransform="matrix(-1, 0, 0, 1, 5384.69, -8.71)" xlink:href="#Radial_Gradient_1"/><linearGradient id="New_Gradient_Swatch_copy_9-10" x1="5009.5" y1="138.14" x2="5234.77" y2="87.64" xlink:href="#New_Gradient_Swatch_copy_9"/><linearGradient id="linear-gradient-38" x1="5105.87" y1="90.08" x2="5046.31" y2="195.47" gradientTransform="matrix(-1, 0, 0, 1, 5384.69, -8.71)" gradientUnits="userSpaceOnUse"><stop offset="0.01" stop-color="#c4c8bd"/><stop offset="0.15" stop-color="#c7cac0"/><stop offset="0.24" stop-color="#cfd2c9"/><stop offset="0.33" stop-color="#dddfd9"/><stop offset="0.41" stop-color="#f1f2ef"/><stop offset="0.45" stop-color="#fff"/><stop offset="0.58" stop-color="#e7e9e5"/><stop offset="0.7" stop-color="#d5d8d1"/><stop offset="0.78" stop-color="#cfd2ca"/><stop offset="0.9" stop-color="#c3c7bc"/><stop offset="1" stop-color="#bec3b7"/></linearGradient><linearGradient id="New_Gradient_Swatch_copy_11-13" x1="5093.04" y1="174.01" x2="5255.84" y2="125.27" gradientTransform="matrix(-1, 0, 0, 1, 5384.69, -8.71)" xlink:href="#New_Gradient_Swatch_copy_11"/><radialGradient id="Radial_Gradient_1-6" cx="5114.12" cy="159.19" r="31.29" gradientTransform="matrix(-1, 0, 0, 1, 5384.69, -8.71)" xlink:href="#Radial_Gradient_1"/><linearGradient id="New_Gradient_Swatch_copy_9-11" x1="5098.52" y1="158.23" x2="5168.33" y2="137.32" xlink:href="#New_Gradient_Swatch_copy_9"/><linearGradient id="New_Gradient_Swatch_copy_9-12" x1="4995.58" y1="189.1" x2="5120.07" y2="161.19" xlink:href="#New_Gradient_Swatch_copy_9"/><linearGradient id="New_Gradient_Swatch_copy_9-13" x1="5043.97" y1="176.92" x2="5119.58" y2="187.07" xlink:href="#New_Gradient_Swatch_copy_9"/><linearGradient id="New_Gradient_Swatch_copy_11-14" x1="318.34" y1="176.44" x2="383.33" y2="185.17" gradientTransform="matrix(1, 0, 0, 1, -0.23, 0.34)" xlink:href="#New_Gradient_Swatch_copy_11"/><radialGradient id="Radial_Gradient_1-7" cx="5055.32" cy="187" r="11.32" gradientTransform="matrix(-1, 0, 0, 1, 5384.69, -8.71)" xlink:href="#Radial_Gradient_1"/><radialGradient id="Radial_Gradient_1-8" cx="5055.89" cy="181.96" r="13.74" gradientTransform="matrix(-1, 0, 0, 1, 5384.69, -8.71)" xlink:href="#Radial_Gradient_1"/><radialGradient id="Radial_Gradient_1-9" cx="5056.2" cy="176.77" r="14.44" gradientTransform="matrix(-1, 0, 0, 1, 5384.69, -8.71)" xlink:href="#Radial_Gradient_1"/><radialGradient id="Radial_Gradient_1-10" cx="5056.2" cy="171.34" r="14.44" gradientTransform="matrix(-1, 0, 0, 1, 5384.69, -8.71)" xlink:href="#Radial_Gradient_1"/><linearGradient id="New_Gradient_Swatch_copy_9-14" x1="5059.72" y1="168.1" x2="5068.77" y2="123.12" xlink:href="#New_Gradient_Swatch_copy_9"/><linearGradient id="linear-gradient-39" x1="5071.48" y1="185.32" x2="5059.15" y2="114.97" gradientTransform="matrix(-1, 0, 0, 1, 5384.69, -8.71)" gradientUnits="userSpaceOnUse"><stop offset="0" stop-color="#b2c2a5"/><stop offset="0.14" stop-color="#8d9a83"/><stop offset="0.36" stop-color="#5c6455"/><stop offset="0.56" stop-color="#343931"/><stop offset="0.74" stop-color="#181a17"/><stop offset="0.89" stop-color="#070807"/><stop offset="1" stop-color="#010101"/></linearGradient><linearGradient id="New_Gradient_Swatch_copy_9-15" x1="5059.08" y1="159.96" x2="5071.86" y2="129.5" xlink:href="#New_Gradient_Swatch_copy_9"/><linearGradient id="New_Gradient_Swatch_copy_9-16" x1="5052.66" y1="142.15" x2="5078.05" y2="110.6" xlink:href="#New_Gradient_Swatch_copy_9"/><linearGradient id="New_Gradient_Swatch_copy_9-17" x1="5071.5" y1="157.3" x2="5096.88" y2="125.75" xlink:href="#New_Gradient_Swatch_copy_9"/><linearGradient id="New_Gradient_Swatch_copy_11-15" x1="5116.24" y1="160.81" x2="5131.15" y2="163.27" gradientTransform="matrix(-1, 0, 0, 1, 5384.69, -8.71)" xlink:href="#New_Gradient_Swatch_copy_11"/><linearGradient id="linear-gradient-40" x1="5110.94" y1="184.8" x2="5136.94" y2="173.15" xlink:href="#linear-gradient-27"/><linearGradient id="linear-gradient-41" x1="5133.22" y1="183.41" x2="5145.19" y2="217.27" xlink:href="#linear-gradient-32"/><linearGradient id="New_Gradient_Swatch_copy_10-2" x1="-2116.95" y1="218.33" x2="-2143.88" y2="182.24" gradientTransform="matrix(1, 0, 0, 1, 2398.57, -3.69)" xlink:href="#New_Gradient_Swatch_copy_10"/><linearGradient id="New_Gradient_Swatch_copy_9-18" x1="5109.64" y1="202.25" x2="5161.91" y2="212.27" gradientTransform="matrix(-0.86, -0.5, -0.5, 0.86, 4788.07, 2613.73)" xlink:href="#New_Gradient_Swatch_copy_9"/><linearGradient id="New_Gradient_Swatch_copy_11-16" x1="5112.62" y1="204.92" x2="5134.52" y2="204.92" gradientTransform="matrix(-0.86, -0.5, -0.5, 0.86, 4788.08, 2613.72)" xlink:href="#New_Gradient_Swatch_copy_11"/><linearGradient id="New_Gradient_Swatch_copy_11-17" x1="5112.62" y1="204.38" x2="5131.89" y2="204.38" gradientTransform="matrix(-1, 0, 0, 1, 5384.69, -8.71)" xlink:href="#New_Gradient_Swatch_copy_11"/><radialGradient id="New_Gradient_Swatch_copy_15" cx="5122.27" cy="204.97" r="3.3" gradientTransform="matrix(-1, 0, 0, 1, 5384.69, -8.71)" gradientUnits="userSpaceOnUse"><stop offset="0" stop-color="#eeecf7"/><stop offset="0.58" stop-color="#d5d0e9"/><stop offset="1" stop-color="#e0e5da"/></radialGradient><radialGradient id="Radial_Gradient_1-11" cx="-2134.29" cy="204.4" r="16.6" gradientTransform="matrix(1, 0, 0, 1, 2398.57, -3.69)" xlink:href="#Radial_Gradient_1"/><linearGradient id="New_Gradient_Swatch_copy_9-19" x1="254.17" y1="204.71" x2="271.64" y2="204.71" gradientTransform="matrix(1, 0, 0, 1, -0.23, 0.34)" xlink:href="#New_Gradient_Swatch_copy_9"/><linearGradient id="New_Gradient_Swatch_copy_14" x1="-2132.2" y1="209.06" x2="-2139.57" y2="199.19" gradientTransform="matrix(1, 0, 0, 1, 2398.57, -3.69)" gradientUnits="userSpaceOnUse"><stop offset="0.01" stop-color="#c4c8bd"/><stop offset="0.06" stop-color="#cdd0c7"/><stop offset="0.15" stop-color="#e5e7e2"/><stop offset="0.22" stop-color="#fff"/><stop offset="0.26" stop-color="#f6f7f5"/><stop offset="0.32" stop-color="#dfe1db"/><stop offset="0.36" stop-color="#cfd2ca"/><stop offset="0.36" stop-color="#cfd2ca"/><stop offset="0.5" stop-color="#c2c6bb"/><stop offset="0.61" stop-color="#bdc2b6"/><stop offset="1" stop-color="#bec3b7"/></linearGradient><linearGradient id="New_Gradient_Swatch_copy_11-18" x1="5119.33" y1="203.55" x2="5137.15" y2="210.62" gradientTransform="matrix(-1, 0, 0, 1, 5384.69, -8.71)" xlink:href="#New_Gradient_Swatch_copy_11"/><linearGradient id="New_Gradient_Swatch_copy_11-19" x1="5113.67" y1="224.02" x2="5112.14" y2="171.64" gradientTransform="matrix(-1, 0, 0, 1, 5384.69, -8.71)" xlink:href="#New_Gradient_Swatch_copy_11"/><linearGradient id="New_Gradient_Swatch_copy_11-20" x1="5119.09" y1="203.83" x2="5095.7" y2="185.33" gradientTransform="matrix(-1, 0, 0, 1, 5384.69, -8.71)" xlink:href="#New_Gradient_Swatch_copy_11"/><linearGradient id="New_Gradient_Swatch_copy_11-21" x1="5110.15" y1="199.37" x2="5201.8" y2="200.19" gradientTransform="matrix(-1, 0, 0, 1, 5384.69, -8.71)" xlink:href="#New_Gradient_Swatch_copy_11"/><radialGradient id="Radial_Gradient_1-12" cx="5117.16" cy="197.88" r="10.75" gradientTransform="matrix(-1, 0, 0, 1, 5384.69, -8.71)" xlink:href="#Radial_Gradient_1"/><radialGradient id="Radial_Gradient_1-13" cx="5135.28" cy="187.73" r="5.39" gradientTransform="matrix(-1, 0, 0, 1, 5384.69, -8.71)" xlink:href="#Radial_Gradient_1"/><linearGradient id="linear-gradient-42" x1="5103.14" y1="205" x2="5024.63" y2="205" gradientTransform="matrix(-1, 0, 0, 1, 5384.69, -8.71)" gradientUnits="userSpaceOnUse"><stop offset="0" stop-color="#c8ccc3"/><stop offset="0.12" stop-color="#bbc1b5"/><stop offset="0.14" stop-color="#b8beb1"/><stop offset="0.2" stop-color="#fff"/><stop offset="0.22" stop-color="#f6f7f5"/><stop offset="0.24" stop-color="#dfe1db"/><stop offset="0.26" stop-color="#cfd2ca"/><stop offset="0.66" stop-color="#c3c7bc"/><stop offset="1" stop-color="#bec3b7"/></linearGradient><linearGradient id="New_Gradient_Swatch_copy_11-22" x1="5076.77" y1="170.42" x2="5060.42" y2="201.58" gradientTransform="matrix(-1, 0, 0, 1, 5384.69, -8.71)" xlink:href="#New_Gradient_Swatch_copy_11"/><radialGradient id="radial-gradient-3" cx="5028.11" cy="179.67" r="1.19" gradientTransform="matrix(-1, 0, 0, 1, 5384.69, -8.71)" gradientUnits="userSpaceOnUse"><stop offset="0" stop-color="#9fa998"/><stop offset="0" stop-color="#9ea897"/><stop offset="0.12" stop-color="#757c70"/><stop offset="0.25" stop-color="#51564e"/><stop offset="0.38" stop-color="#343732"/><stop offset="0.51" stop-color="#1e1f1c"/><stop offset="0.65" stop-color="#0e0e0d"/><stop offset="0.81" stop-color="#040404"/><stop offset="1" stop-color="#010101"/></radialGradient><radialGradient id="radial-gradient-4" cx="5063.34" cy="199.93" r="30.85" xlink:href="#radial-gradient-3"/><linearGradient id="New_Gradient_Swatch_copy_9-20" x1="5102.89" y1="158.72" x2="5111.09" y2="158.72" xlink:href="#New_Gradient_Swatch_copy_9"/><radialGradient id="New_Gradient_Swatch_copy_13-2" cx="5112.48" cy="156.74" r="11.59" xlink:href="#New_Gradient_Swatch_copy_13"/><radialGradient id="Radial_Gradient_1-14" cx="5111.76" cy="156.92" r="3.59" gradientTransform="matrix(-1, 0, 0, 1, 5384.69, -8.71)" xlink:href="#Radial_Gradient_1"/><linearGradient id="linear-gradient-43" x1="5110.81" y1="74.42" x2="5084.83" y2="119.7" gradientTransform="matrix(-1, 0, 0, 1, 5384.69, -8.71)" gradientUnits="userSpaceOnUse"><stop offset="0.01" stop-color="#c4c8bd"/><stop offset="0.14" stop-color="#cdd0c7"/><stop offset="0.37" stop-color="#e5e7e2"/><stop offset="0.57" stop-color="#fff"/><stop offset="0.63" stop-color="#f6f7f5"/><stop offset="0.72" stop-color="#dfe1db"/><stop offset="0.78" stop-color="#cfd2ca"/><stop offset="0.9" stop-color="#c3c7bc"/><stop offset="1" stop-color="#bec3b7"/></linearGradient><linearGradient id="New_Gradient_Swatch_copy_11-23" x1="5115.81" y1="118.27" x2="5202.38" y2="92.34" gradientTransform="matrix(-1, 0, 0, 1, 5384.69, -8.71)" xlink:href="#New_Gradient_Swatch_copy_11"/><radialGradient id="Radial_Gradient_1-15" cx="5127.93" cy="114.02" r="19.21" gradientTransform="matrix(-1, 0, 0, 1, 5384.69, -8.71)" xlink:href="#Radial_Gradient_1"/><linearGradient id="New_Gradient_Swatch_copy_11-24" x1="5087.21" y1="201.01" x2="5075.79" y2="204.45" gradientTransform="matrix(-1, 0, 0, 1, 5384.69, -8.71)" xlink:href="#New_Gradient_Swatch_copy_11"/><linearGradient id="New_Gradient_Swatch_copy_11-25" x1="5027.03" y1="170.14" x2="5035" y2="181.93" gradientTransform="matrix(-1, 0, 0, 1, 5384.69, -8.71)" xlink:href="#New_Gradient_Swatch_copy_11"/><linearGradient id="linear-gradient-44" x1="5087.21" y1="200.19" x2="5075.79" y2="203.64" gradientTransform="matrix(-1, 0, 0, 1, 5384.69, -8.71)" gradientUnits="userSpaceOnUse"><stop offset="0" stop-color="#f5ece9"/><stop offset="1" stop-color="#fff"/></linearGradient><linearGradient id="linear-gradient-45" x1="5027.03" y1="169.51" x2="5035" y2="181.29" xlink:href="#linear-gradient-44"/><linearGradient id="linear-gradient-46" x1="5035.31" y1="179.23" x2="5028.11" y2="169.03" gradientTransform="matrix(-1, 0, 0, 1, 5384.69, -8.71)" gradientUnits="userSpaceOnUse"><stop offset="0" stop-color="#a5ad9e"/><stop offset="0.28" stop-color="#c8cdc3"/><stop offset="0.57" stop-color="#e6e8e4"/><stop offset="0.81" stop-color="#f8f9f8"/><stop offset="0.97" stop-color="#fff"/><stop offset="1" stop-color="#fff"/></linearGradient><linearGradient id="linear-gradient-47" x1="5084.37" y1="215.72" x2="5069.69" y2="218.98" xlink:href="#linear-gradient-44"/><linearGradient id="linear-gradient-48" x1="5067.83" y1="214.37" x2="5084.89" y2="217.9" gradientTransform="matrix(-1, 0, 0, 1, 5384.69, -8.71)" gradientUnits="userSpaceOnUse"><stop offset="0" stop-color="#a5ad9e"/><stop offset="0.31" stop-color="#cbd0c7"/><stop offset="0.59" stop-color="#e7eae6"/><stop offset="0.83" stop-color="#f9f9f8"/><stop offset="1" stop-color="#fff"/></linearGradient><linearGradient id="linear-gradient-49" x1="5024.86" y1="184.6" x2="5037.01" y2="198.93" xlink:href="#linear-gradient-44"/><linearGradient id="linear-gradient-50" x1="5039.11" y1="199.68" x2="5026.46" y2="184.79" xlink:href="#linear-gradient-48"/><linearGradient id="New_Gradient_Swatch_copy_11-26" x1="5038.71" y1="198.28" x2="5096.55" y2="232.73" gradientTransform="matrix(-1, 0, 0, 1, 5384.69, -8.71)" xlink:href="#New_Gradient_Swatch_copy_11"/><linearGradient id="linear-gradient-51" x1="5072.66" y1="201.06" x2="5090.11" y2="195.84" xlink:href="#linear-gradient-48"/><linearGradient id="New_Gradient_Swatch_copy_12" x1="3354.51" y1="198.94" x2="3358.94" y2="198.94" gradientTransform="matrix(1, 0, 0, 1, -3050.75, 5.47)" gradientUnits="userSpaceOnUse"><stop offset="0.04" stop-color="#f4f3fa"/><stop offset="1" stop-color="#fffefa"/></linearGradient><linearGradient id="New_Gradient_Swatch_copy_12-2" x1="-202.72" y1="199.1" x2="-199.55" y2="199.1" gradientTransform="matrix(-1, 0, 0, 1, 106.14, 0.16)" xlink:href="#New_Gradient_Swatch_copy_12"/><linearGradient id="New_Gradient_Swatch_copy_12-3" x1="3401.97" y1="175.49" x2="3406.4" y2="175.49" xlink:href="#New_Gradient_Swatch_copy_12"/><linearGradient id="New_Gradient_Swatch_copy_12-4" x1="-250.18" y1="175.64" x2="-247.01" y2="175.64" gradientTransform="matrix(-1, 0, 0, 1, 106.14, 0.16)" xlink:href="#New_Gradient_Swatch_copy_12"/><linearGradient id="New_Gradient_Swatch_copy_12-5" x1="3355.89" y1="218.97" x2="3359.38" y2="218.97" xlink:href="#New_Gradient_Swatch_copy_12"/><linearGradient id="New_Gradient_Swatch_copy_12-6" x1="-203.04" y1="219.02" x2="-200.43" y2="219.02" gradientTransform="matrix(-1, 0, 0, 1, 106.14, 0.16)" xlink:href="#New_Gradient_Swatch_copy_12"/><linearGradient id="New_Gradient_Swatch_copy_12-7" x1="3359.97" y1="216.45" x2="3363.46" y2="216.45" xlink:href="#New_Gradient_Swatch_copy_12"/><linearGradient id="New_Gradient_Swatch_copy_12-8" x1="-207.12" y1="216.5" x2="-204.51" y2="216.5" gradientTransform="matrix(-1, 0, 0, 1, 106.14, 0.16)" xlink:href="#New_Gradient_Swatch_copy_12"/><linearGradient id="New_Gradient_Swatch_copy_12-9" x1="3399.75" y1="194.15" x2="3403.24" y2="194.15" xlink:href="#New_Gradient_Swatch_copy_12"/><linearGradient id="New_Gradient_Swatch_copy_12-10" x1="-246.9" y1="194.2" x2="-244.28" y2="194.2" gradientTransform="matrix(-1, 0, 0, 1, 106.14, 0.16)" xlink:href="#New_Gradient_Swatch_copy_12"/><linearGradient id="New_Gradient_Swatch_copy_12-11" x1="3403.62" y1="191.77" x2="3407.12" y2="191.77" xlink:href="#New_Gradient_Swatch_copy_12"/><linearGradient id="New_Gradient_Swatch_copy_12-12" x1="-250.77" y1="191.82" x2="-248.16" y2="191.82" gradientTransform="matrix(-1, 0, 0, 1, 106.14, 0.16)" xlink:href="#New_Gradient_Swatch_copy_12"/><linearGradient id="New_Gradient_Swatch_copy_12-13" x1="3348.93" y1="202.11" x2="3356.08" y2="202.11" xlink:href="#New_Gradient_Swatch_copy_12"/><linearGradient id="New_Gradient_Swatch_copy_12-14" x1="-199.86" y1="202.63" x2="-196.66" y2="202.63" gradientTransform="matrix(-1, 0, 0, 1, 106.14, 0.16)" xlink:href="#New_Gradient_Swatch_copy_12"/><radialGradient id="Radial_Gradient_1-16" cx="5082.92" cy="204.97" r="9.41" gradientTransform="matrix(-1, 0, 0, 1, 5384.69, -8.71)" xlink:href="#Radial_Gradient_1"/><linearGradient id="New_Gradient_Swatch_copy_11-27" x1="5020.12" y1="179.52" x2="5071.25" y2="223.56" gradientTransform="matrix(-1, 0, 0, 1, 5384.69, -8.71)" xlink:href="#New_Gradient_Swatch_copy_11"/><radialGradient id="Radial_Gradient_1-17" cx="5060.02" cy="205.01" r="7.6" gradientTransform="matrix(-1, 0, 0, 1, 5384.69, -8.71)" xlink:href="#Radial_Gradient_1"/><radialGradient id="Radial_Gradient_1-18" cx="5056.18" cy="164.95" r="17.77" gradientTransform="matrix(-1, 0, 0, 1, 5384.69, -8.71)" xlink:href="#Radial_Gradient_1"/><radialGradient id="Radial_Gradient_1-19" cx="5077.14" cy="217.35" r="4.85" gradientTransform="matrix(-1, 0, 0, 1, 5384.69, -8.71)" xlink:href="#Radial_Gradient_1"/><radialGradient id="Radial_Gradient_1-20" cx="5030.94" cy="190.22" r="4.46" gradientTransform="matrix(-1, 0, 0, 1, 5384.69, -8.71)" xlink:href="#Radial_Gradient_1"/><radialGradient id="Radial_Gradient_1-21" cx="5032.38" cy="177.17" r="6.96" gradientTransform="matrix(-1, 0, 0, 1, 5384.69, -8.71)" xlink:href="#Radial_Gradient_1"/><radialGradient id="radial-gradient-5" cx="11845.02" cy="2821.67" r="25.84" gradientTransform="matrix(-0.09, -0.18, -0.88, 0.47, 3894.73, 901.33)" xlink:href="#radial-gradient-3"/><linearGradient id="linear-gradient-52" x1="5029.57" y1="174.29" x2="4989.03" y2="195.42" gradientTransform="matrix(-1, 0, 0, 1, 5384.69, -8.71)" gradientUnits="userSpaceOnUse"><stop offset="0" stop-color="#a99690"/><stop offset="0.07" stop-color="#b5a49f"/><stop offset="0.25" stop-color="#cfc5c2"/><stop offset="0.43" stop-color="#e4dedd"/><stop offset="0.61" stop-color="#f3f1f0"/><stop offset="0.8" stop-color="#fcfbfb"/><stop offset="1" stop-color="#fff"/></linearGradient><linearGradient id="linear-gradient-53" x1="5031.57" y1="192.53" x2="5012.6" y2="202.42" xlink:href="#linear-gradient-52"/><linearGradient id="linear-gradient-54" x1="5077.54" y1="218.64" x2="5058.56" y2="228.53" xlink:href="#linear-gradient-52"/><linearGradient id="linear-gradient-55" x1="5078.28" y1="200.73" x2="5028.98" y2="226.42" xlink:href="#linear-gradient-52"/><linearGradient id="New_Gradient_Swatch_copy_10-3" x1="277.02" y1="105.51" x2="325.57" y2="105.51" gradientTransform="matrix(1, 0, 0, 1, 0, 0)" xlink:href="#New_Gradient_Swatch_copy_10"/><linearGradient id="New_Gradient_Swatch_copy_10-4" x1="282.59" y1="89.08" x2="315.28" y2="89.08" gradientTransform="matrix(1, 0, 0, 1, 0, 0)" xlink:href="#New_Gradient_Swatch_copy_10"/><linearGradient id="New_Gradient_Swatch_copy_10-5" x1="281.75" y1="117.21" x2="282.74" y2="117.21" gradientTransform="matrix(1, 0, 0, 1, 0, 0)" xlink:href="#New_Gradient_Swatch_copy_10"/><linearGradient id="New_Gradient_Swatch_copy_10-6" x1="312.37" y1="98.66" x2="313.31" y2="98.66" gradientTransform="matrix(1, 0, 0, 1, 0, 0)" xlink:href="#New_Gradient_Swatch_copy_10"/><linearGradient id="New_Gradient_Swatch_copy_10-7" x1="290.01" y1="111.31" x2="290.89" y2="111.31" gradientTransform="matrix(1, 0, 0, 1, 0, 0)" xlink:href="#New_Gradient_Swatch_copy_10"/></defs><g class="cls-1"><g id="Capa_2" data-name="Capa 2"><g id="Capa_1-2" data-name="Capa 1"><path class="cls-2" d="M59.75,77.65c0,4.72-1.58,7.87-4.09,9.44l-8.19,4.72c-2.83,1.58-.94-1.89-5-4.4C34.25,82.68,27.32,71,27.32,61.59c0-4.72-4.4-4.72-1.57-6.3l8.81-4.72C37.4,49,40.86,49.31,45,51.83,52.82,56.55,59.75,68.2,59.75,77.65Z"/><path class="cls-3" d="M50.93,82.37c0,9.44-6.61,13.22-15.11,8.5C27.64,86.15,20.71,74.5,20.71,65.05s6.61-13.22,15.11-8.5C44.32,61.59,50.93,72.92,50.93,82.37Z"/><path class="cls-4" d="M36.77,56.24C32.68,54,29.21,53.72,26.38,55a10.63,10.63,0,0,1,8.81,1.89C43.38,61.59,50.3,73.24,50.3,82.68c0,5-1.88,8.19-4.72,9.76,3.78-.94,6-4.72,6-10.39C51.88,72.61,45,61,36.77,56.24Z"/><path class="cls-5" d="M35.82,63.48c5.36,3.15,9.76,10.7,9.76,16.68s-4.4,8.5-9.76,5.67-9.76-10.7-9.76-16.68C26.38,62.85,30.47,60.33,35.82,63.48Z"/><path class="cls-6" d="M39.29,83.63c-5.36-3.15-9.76-10.71-9.76-16.69,0-1.89.31-3.46,1.26-4.41-2.84.32-4.73,2.84-4.73,6.93,0,6,4.41,13.54,9.76,16.69,3.78,2.2,6.93,1.57,8.5-1A22.17,22.17,0,0,1,39.29,83.63Z"/><path class="cls-7" d="M42.75,79.22c0,3.78-2.52,5.35-6,3.46s-6-6.61-6-10.39,2.51-5.35,6-3.46S42.75,75.44,42.75,79.22Z"/><path class="cls-8" d="M42.12,77c0,3.14-2.2,4.4-5,2.83s-5-5.67-5-8.82,2.2-4.4,5-2.83A11.7,11.7,0,0,1,42.12,77Z"/><path class="cls-9" d="M40.86,78c0,3.15-2.2,4.41-5,2.83a11.19,11.19,0,0,1-5-8.81c0-3.15,2.2-4.41,5-2.83A11.67,11.67,0,0,1,40.86,78Z"/><path class="cls-10" d="M91.86,96.53c0,4.73-1.57,7.87-4.09,9.45l-8.19,4.72c-2.83,1.58-.94-1.89-5-4.41-8.19-4.72-15.12-16.37-15.12-25.81,0-4.72-4.4-4.72-1.57-6.3l8.81-4.72c2.84-1.57,6.3-1.26,10.39,1.26C84.93,75.44,91.86,87.09,91.86,96.53Z"/><path class="cls-11" d="M83.05,101.26c0,9.44-6.62,13.22-15.12,8.5C59.75,105,52.82,93.39,52.82,83.94s6.61-13.22,15.11-8.5C76.43,80.48,83.05,91.81,83.05,101.26Z"/><path class="cls-12" d="M68.88,75.13c-4.09-2.21-7.56-2.52-10.39-1.26a10.63,10.63,0,0,1,8.81,1.89c8.19,4.72,15.12,16.37,15.12,25.81,0,5-1.89,8.19-4.73,9.76,3.78-.94,6-4.72,6-10.39C84,91.5,77.06,79.85,68.88,75.13Z"/><path class="cls-13" d="M67.93,82.37c5.36,3.15,9.76,10.7,9.76,16.68s-4.4,8.5-9.76,5.67C62.58,101.57,58.17,94,58.17,88,58.49,81.74,62.58,79.22,67.93,82.37Z"/><path class="cls-14" d="M71.4,102.52c-5.35-3.15-9.76-10.71-9.76-16.69,0-1.89.31-3.46,1.26-4.41-2.84.32-4.73,2.84-4.73,6.93,0,6,4.41,13.54,9.76,16.68,3.78,2.21,6.93,1.58,8.5-.94A22.17,22.17,0,0,1,71.4,102.52Z"/><path class="cls-15" d="M74.86,98.11c0,3.78-2.52,5.35-6,3.46-3.15-1.89-6-6.61-6-10.39s2.52-5.35,6-3.46C72,89.92,74.86,94.33,74.86,98.11Z"/><path class="cls-16" d="M74.23,96.22c0,3.15-2.2,4.41-5,2.83a11.19,11.19,0,0,1-5-8.81c0-3.15,2.2-4.41,5-2.83A10.72,10.72,0,0,1,74.23,96.22Z"/><path class="cls-17" d="M73,97.16c0,3.15-2.2,4.41-5,2.84a11.23,11.23,0,0,1-5-8.82c0-3.15,2.2-4.4,5-2.83A10.72,10.72,0,0,1,73,97.16Z"/><path class="cls-18" d="M147.9,118.57v14.17l-48.17-28V90.55Z"/><path class="cls-19" d="M161.43,110.7l-13.53,7.87-48.17-28L113.27,83Z"/><path class="cls-20" d="M10.64,37.66V55.92L8.75,54.35V36.41Z"/><path class="cls-21" d="M10.64,37.66V55.92L54.08,31.68V13.42Z"/><path class="cls-22" d="M54.08,13.42,10.64,37.66,8.75,36.41,52.19,11.85Z"/><path class="cls-23" d="M20.08,42.39V69.46l4.72-2.52V39.55Z"/><path class="cls-24" d="M90.92,83v27.07l-5-2.83V85.83L20.08,47.74V69.46l-4.72-2.83V39.55Z"/><path class="cls-25" d="M90.92,83v27.39l4.4-2.84V80.48Z"/><path class="cls-26" d="M140,130.53l-2.52,1.26-40-23,2.52-1.26Z"/><path class="cls-27" d="M97.53,94.33v14.48l2.52-1.26V92.76Z"/><path class="cls-28" d="M141.29,117.31v20.78L94.06,110.7V89.92Zm-43.76-8.5,40,23.3V119.52l-40-23Z"/><path class="cls-29" d="M144.43,115.74l-3.14,1.57L94.06,90.24l2.84-1.89Z"/><path class="cls-30" d="M232.27,163.59v3.78L7.49,36.72V32.94Z"/><path class="cls-31" d="M296,130.33l-61.7,35.26L9.55,35.26,71.25,0Z"/><path class="cls-32" d="M301,240.68l69.58-40.17c6-3.46,5.21-9.49-1.7-13.47l-136-79.55L97,28C90,24,79.59,23.56,73.61,27L4,67.19c-6,3.46-5.22,9.49,1.7,13.47l136,79.54,136,79.55C284.57,243.73,295,244.14,301,240.68Z"/><path class="cls-33" d="M5.16,67.81A8.5,8.5,0,0,0,2.51,70.1,5.21,5.21,0,0,0,2,75.59c.68,1.8,2.86,3.9,5.41,5.37l134.79,78.87L277,238.71a25.88,25.88,0,0,0,6.72,2.65,27.4,27.4,0,0,0,11.55.37,27.93,27.93,0,0,0,4.83-1.69c.09,0,2.75-1.54,2.82-1.59l66.19-38.2a8.43,8.43,0,0,0,2.66-2.29,5.21,5.21,0,0,0,.52-5.49c-.68-1.8-2.86-3.9-5.41-5.37L232.1,108.24,97.28,29.35a26.24,26.24,0,0,0-6.72-2.65A27.44,27.44,0,0,0,79,26.33,27.82,27.82,0,0,0,74.18,28c-.09,0-2.75,1.55-2.82,1.59Z"/><path class="cls-34" d="M6.3,68.44a7.79,7.79,0,0,0-2.59,2.29,4.87,4.87,0,0,0-.11,5.34c.6,1.62,3.18,3.87,5.47,5.19L142.7,159.45l133.69,78.22a28.09,28.09,0,0,0,6.62,2.72,26.66,26.66,0,0,0,11.42.58,26.08,26.08,0,0,0,4.81-1.57c.18-.07,2.67-1.46,2.82-1.54L367.69,200a7.81,7.81,0,0,0,2.59-2.3,4.87,4.87,0,0,0,.11-5.34c-.6-1.62-3.18-3.87-5.47-5.19L231.29,109,97.6,30.75A28.52,28.52,0,0,0,91,28a26.82,26.82,0,0,0-11.42-.58A26.86,26.86,0,0,0,74.75,29c-.18.08-2.67,1.46-2.82,1.54Z"/><path class="cls-35" d="M7.43,69.06a7.17,7.17,0,0,0-2.52,2.31,4.62,4.62,0,0,0,.29,5.18c.54,1.44,3.51,3.84,5.55,5L143.2,159.07l132.55,77.57a31.62,31.62,0,0,0,6.52,2.79,26.38,26.38,0,0,0,11.29.79,25.23,25.23,0,0,0,4.8-1.46c.27-.11,2.6-1.37,2.81-1.49l65.08-37.55a6.94,6.94,0,0,0,2.51-2.3,4.61,4.61,0,0,0-.28-5.19c-.54-1.44-3.51-3.83-5.55-5L230.48,109.72,97.93,32.15a31.62,31.62,0,0,0-6.52-2.79,26.39,26.39,0,0,0-11.29-.8A25.23,25.23,0,0,0,75.32,30c-.27.1-2.6,1.36-2.81,1.49Z"/><path class="cls-36" d="M8.57,69.68A6.47,6.47,0,0,0,6.12,72a4.46,4.46,0,0,0,.68,5c.48,1.26,3.83,3.8,5.62,4.83L143.7,158.69,275.11,235.6a35.82,35.82,0,0,0,6.43,2.86,25.69,25.69,0,0,0,11.15,1,24.23,24.23,0,0,0,4.79-1.35c.37-.14,2.52-1.28,2.81-1.44l64.51-37.22a6.44,6.44,0,0,0,2.45-2.31,4.47,4.47,0,0,0-.68-5c-.47-1.26-3.83-3.8-5.62-4.82L229.67,110.46,98.26,33.55a35.82,35.82,0,0,0-6.43-2.86,25.54,25.54,0,0,0-11.15-1A23.29,23.29,0,0,0,75.9,31c-.38.13-2.53,1.27-2.82,1.44Z"/><path class="cls-37" d="M9.71,70.31a5.88,5.88,0,0,0-2.39,2.32c-.64,1.4-.48,3.15,1.09,4.88.4,1.08,4.15,3.77,5.68,4.65L144.2,158.31l130.27,76.25a40.52,40.52,0,0,0,6.33,2.93,25.21,25.21,0,0,0,11,1.22,22.94,22.94,0,0,0,4.77-1.23c.46-.17,2.44-1.19,2.8-1.4l64-36.88a5.92,5.92,0,0,0,2.38-2.32c.64-1.4.48-3.15-1.09-4.88-.4-1.09-4.15-3.77-5.68-4.65L228.86,111.2,98.59,35A40.52,40.52,0,0,0,92.26,32a25.06,25.06,0,0,0-11-1.23A22.68,22.68,0,0,0,76.47,32c-.47.16-2.45,1.19-2.81,1.39Z"/><path class="cls-38" d="M10.84,70.93a5.43,5.43,0,0,0-2.31,2.34C8,74.58,8.28,76.3,10,78c.34.9,4.48,3.74,5.75,4.47L144.7,157.93l129.14,75.59a47.55,47.55,0,0,0,6.22,3A24.54,24.54,0,0,0,291,238a22.75,22.75,0,0,0,4.76-1.12,29.15,29.15,0,0,0,2.8-1.35l63.39-36.55a5.32,5.32,0,0,0,2.31-2.34c.52-1.31.25-3-1.48-4.72-.34-.9-4.48-3.74-5.75-4.47L228.05,111.94,98.91,36.35a47.55,47.55,0,0,0-6.22-3,24.38,24.38,0,0,0-10.9-1.44A21.9,21.9,0,0,0,77,33a30.56,30.56,0,0,0-2.81,1.35Z"/><path class="cls-39" d="M12,71.56A4.9,4.9,0,0,0,9.73,73.9c-.4,1.23,0,2.92,1.89,4.57.26.72,4.8,3.71,5.82,4.29L145.2,157.55l128,74.93a57.54,57.54,0,0,0,6.13,3.08,23.9,23.9,0,0,0,10.76,1.65,21.53,21.53,0,0,0,4.75-1,21.79,21.79,0,0,0,2.79-1.29l62.84-36.23a4.88,4.88,0,0,0,2.24-2.34c.4-1.23,0-2.92-1.88-4.57-.27-.72-4.8-3.7-5.82-4.29L227.24,112.68l-128-74.93a59.42,59.42,0,0,0-6.13-3.07A23.77,23.77,0,0,0,82.35,33a20.77,20.77,0,0,0-4.74,1,22.7,22.7,0,0,0-2.8,1.29Z"/><path class="cls-40" d="M13.11,72.18a4.48,4.48,0,0,0-2.17,2.35c-.29,1.15.21,2.82,2.28,4.42.2.54,5.13,3.67,5.89,4.11L145.7,157.18l126.86,74.26c.56.32,5.37,3,6,3.15a23.22,23.22,0,0,0,10.64,1.86,19.86,19.86,0,0,0,4.73-.9,19.38,19.38,0,0,0,2.79-1.24L359,198.41a4.5,4.5,0,0,0,2.18-2.35c.29-1.15-.22-2.81-2.29-4.42-.2-.54-5.12-3.67-5.89-4.11L226.43,113.42,99.57,39.15c-.55-.32-5.36-3-6-3.14A23.07,23.07,0,0,0,82.9,34.14a20.81,20.81,0,0,0-4.72.9,17.51,17.51,0,0,0-2.79,1.25Z"/><path class="cls-41" d="M14.25,72.81a4.09,4.09,0,0,0-2.11,2.36c-.18,1.06.45,2.7,2.68,4.26a64.81,64.81,0,0,0,6,3.93L146.21,156.8l125.72,73.6c.37.22,5.48,3.12,5.93,3.22a22.42,22.42,0,0,0,10.5,2.08,19.88,19.88,0,0,0,4.72-.79,14.46,14.46,0,0,0,2.78-1.2l61.72-35.56a4.1,4.1,0,0,0,2.1-2.36c.19-1.06-.44-2.7-2.68-4.27-.13-.36-5.45-3.64-6-3.93L225.62,114.16,99.9,40.55c-.37-.21-5.49-3.11-5.93-3.21a22.59,22.59,0,0,0-10.51-2.09,20.31,20.31,0,0,0-4.71.79A16.26,16.26,0,0,0,76,37.24Z"/><path class="cls-42" d="M15.38,73.43c-.78.45-1.94,1.32-2,2.37s.69,2.59,3.09,4.11c.06.18,5.77,3.61,6,3.76l124.25,72.75,124.58,73c.19.1,5.61,3.23,5.83,3.28A21.82,21.82,0,0,0,287.5,235a19.27,19.27,0,0,0,4.69-.68,12.71,12.71,0,0,0,2.79-1.15l61.15-35.23c.78-.46,1.95-1.32,2-2.37s-.68-2.6-3.08-4.12c-.07-.18-5.78-3.6-6-3.75L224.81,114.9,100.23,42c-.19-.1-5.62-3.23-5.84-3.28A21.69,21.69,0,0,0,84,36.37a19.35,19.35,0,0,0-4.7.68,12.82,12.82,0,0,0-2.78,1.15Z"/><path class="cls-21" d="M286.63,234.19a15.3,15.3,0,0,0,7.47-1.66l60.59-34.9c.74-.44,2-1.31,2-2.38,0-.91-.92-2.49-3.48-4L224,115.64,94.82,40a21.07,21.07,0,0,0-10.24-2.52,15.41,15.41,0,0,0-7.47,1.67L16.52,74.06c-.75.43-2,1.3-2,2.37,0,.91.91,2.49,3.48,4L147.21,156l129.18,75.64A20.93,20.93,0,0,0,286.63,234.19Z"/><path class="cls-43" d="M34.33,55.28C30.28,53,26.6,52.64,23.87,54c2.55-.71,5.71-.19,9.14,1.78,8.44,4.86,15.3,16.65,15.32,26.33,0,5-1.84,8.52-4.81,10,3.73-1,6.14-4.77,6.13-10.52C49.63,71.92,42.77,60.14,34.33,55.28Z"/><path class="cls-44" d="M33.48,62.61c-5.45-3.13-9.87-.6-9.86,5.65s4.45,13.88,9.9,17,9.88.61,9.87-5.64S38.93,65.75,33.48,62.61Z"/><path class="cls-45" d="M37,83c-5.45-3.14-9.89-10.77-9.9-17a8.57,8.57,0,0,1,1.15-4.66c-2.8.39-4.67,2.87-4.66,6.93,0,6.25,4.45,13.88,9.9,17,3.77,2.17,7,1.63,8.71-1A8.27,8.27,0,0,1,37,83Z"/><path class="cls-46" d="M40.36,78.76c0,3.86-2.72,5.42-6.09,3.48a13.4,13.4,0,0,1-6.11-10.49c0-3.86,2.72-5.42,6.09-3.49A13.44,13.44,0,0,1,40.36,78.76Z"/><path class="cls-47" d="M39.86,76.55c0,3.26-2.3,4.59-5.15,3a11.39,11.39,0,0,1-5.18-8.89c0-3.27,2.31-4.59,5.16-3A11.35,11.35,0,0,1,39.86,76.55Z"/><path class="cls-48" d="M38.46,77.52c0,3.27-2.3,4.59-5.16,3a11.38,11.38,0,0,1-5.17-8.89c0-3.27,2.3-4.59,5.15-3A11.36,11.36,0,0,1,38.46,77.52Z"/><path class="cls-49" d="M66.29,81.87c-5.45-3.14-9.88-.61-9.87,5.64s4.46,13.88,9.91,17,9.87.6,9.86-5.65S71.74,85,66.29,81.87Z"/><path class="cls-50" d="M69.83,102.26c-5.45-3.13-9.89-10.76-9.9-17a8.61,8.61,0,0,1,1.16-4.66c-2.8.39-4.67,2.86-4.67,6.92,0,6.25,4.46,13.88,9.91,17,3.77,2.17,7,1.62,8.7-1A8.27,8.27,0,0,1,69.83,102.26Z"/><path class="cls-51" d="M73.16,98c0,3.86-2.72,5.42-6.08,3.48A13.41,13.41,0,0,1,61,91c0-3.86,2.72-5.42,6.08-3.48A13.41,13.41,0,0,1,73.16,98Z"/><path class="cls-52" d="M72.67,95.8c0,3.27-2.3,4.59-5.16,3a11.35,11.35,0,0,1-5.17-8.89c0-3.27,2.3-4.59,5.15-3A11.36,11.36,0,0,1,72.67,95.8Z"/><path class="cls-53" d="M71.26,96.78c0,3.26-2.3,4.59-5.15,3a11.35,11.35,0,0,1-5.17-8.89c0-3.27,2.3-4.59,5.15-3A11.35,11.35,0,0,1,71.26,96.78Z"/><polygon class="cls-54" points="147.99 118.57 148.01 133.16 98.76 104.7 98.74 90.16 147.99 118.57"/><polygon class="cls-55" points="147.98 118.57 148 133.16 161.82 125.27 161.79 110.65 147.98 118.57"/><polygon class="cls-56" points="161.79 110.65 147.98 118.57 98.74 90.16 112.56 82.25 161.79 110.65"/><polygon class="cls-57" points="17.38 41.05 17.43 68.73 22.2 66.05 22.16 38.2 17.38 41.05"/><polygon class="cls-58" points="89.52 82.55 89.57 110.22 94.35 107.54 94.3 79.69 89.52 82.55"/><polygon class="cls-59" points="139.9 130.76 137.39 132.24 96.52 108.78 99.05 107.33 139.9 130.76"/><polygon class="cls-60" points="96.44 93.83 96.47 108.8 99.05 107.35 99.02 92.28 96.44 93.83"/><path class="cls-61" d="M141.08,117.46l0,21.29L92.76,110.82l0-21.12Zm-44.56-8.82,40.82,23.58,0-12.58L96.5,96.21Z"/><polygon class="cls-62" points="141.06 117.45 141.09 138.75 144.26 137.14 144.22 115.71 141.06 117.45"/><polygon class="cls-63" points="144.22 115.71 141.06 117.45 92.72 89.7 95.92 88.01 144.22 115.71"/><path class="cls-64" d="M187.21,152.19c0,4.73-1.62,8.09-4.27,9.71l-8.46,4.92c-2.76,1.54-1-2-5.19-4.38C160.84,157.59,154,145.8,154,136.12c0-4.79-4.43-4.82-1.72-6.43l9-5c2.75-1.49,6.51-1.22,10.66,1.16C180.33,130.72,187.19,142.51,187.21,152.19Z"/><ellipse class="cls-65" cx="163.07" cy="148.43" rx="12.44" ry="21.54" transform="translate(-52.7 102.95) rotate(-30.41)"/><path class="cls-66" d="M163.78,130.53c-4.05-2.32-7.73-2.63-10.46-1.26,2.55-.72,5.71-.19,9.14,1.78,8.44,4.86,15.3,16.64,15.32,26.33,0,5-1.84,8.51-4.81,10,3.73-1,6.14-4.76,6.13-10.52C179.08,147.18,172.22,135.39,163.78,130.53Z"/><path class="cls-67" d="M162.93,137.87c-5.45-3.14-9.87-.61-9.86,5.64s4.45,13.88,9.9,17,9.88.6,9.87-5.65S168.38,141,162.93,137.87Z"/><path class="cls-68" d="M166.48,158.27c-5.45-3.14-9.89-10.77-9.9-17a8.52,8.52,0,0,1,1.15-4.66c-2.8.39-4.67,2.86-4.66,6.92,0,6.25,4.45,13.88,9.9,17,3.77,2.17,7.05,1.62,8.71-1A8.32,8.32,0,0,1,166.48,158.27Z"/><path class="cls-69" d="M169.81,154c0,3.86-2.72,5.42-6.09,3.48a13.44,13.44,0,0,1-6.11-10.5c0-3.86,2.72-5.42,6.09-3.48A13.44,13.44,0,0,1,169.81,154Z"/><path class="cls-70" d="M169.31,151.8c0,3.27-2.3,4.59-5.15,2.95a11.39,11.39,0,0,1-5.18-8.89c0-3.27,2.31-4.59,5.16-3A11.35,11.35,0,0,1,169.31,151.8Z"/><path class="cls-71" d="M167.91,152.78c0,3.27-2.3,4.59-5.16,2.95a11.38,11.38,0,0,1-5.17-8.89c0-3.27,2.3-4.59,5.15-3A11.36,11.36,0,0,1,167.91,152.78Z"/><polygon class="cls-72" points="242.8 176.38 242.84 197.67 179.04 160.97 179 139.86 242.8 176.38"/><polygon class="cls-73" points="197.17 150.41 197.21 170.94 196.19 170.4 196.15 149.82 197.17 150.41"/><polygon class="cls-74" points="196.15 149.84 196.19 170.37 195.57 170.06 195.54 149.49 196.15 149.84"/><path class="cls-75" d="M242.81,181.84l0,14.2-42.55-24.47h0a8.15,8.15,0,0,1,12.2-7.09Z"/><path class="cls-76" d="M212.49,164.48l30.32,17.36v1.9l-30.33-17.35a8.14,8.14,0,0,0-12,5.3l-.21-.12h0A8.15,8.15,0,0,1,212.49,164.48Z"/><polygon class="cls-77" points="242.78 176.38 242.82 197.67 293.12 168.94 293.08 147.51 242.78 176.38"/><polygon class="cls-78" points="293.08 147.51 242.78 176.38 179 139.86 229.33 111.05 293.08 147.51"/><path class="cls-79" d="M348.75,136.38a.51.51,0,0,0,.43-.22l3.23-4.41a7.53,7.53,0,0,0,1.46-4.51v-9a7.6,7.6,0,0,0-5.77-7.37l-4.86-1.22a.54.54,0,1,0-.26,1l4.86,1.22a6.52,6.52,0,0,1,4.94,6.32l0,9a6.53,6.53,0,0,1-1.26,3.86l-3.22,4.41a.54.54,0,0,0,.11.76A.56.56,0,0,0,348.75,136.38Z"/><path class="cls-80" d="M351.37,129.76l2.62-1.52a5,5,0,0,0,2.1-4l0-7.92c0-1.54-.95-2.25-2.1-1.58l-2.62,1.52a5,5,0,0,0-2.09,4v7.92C349.27,129.72,350.22,130.43,351.37,129.76Z"/><path class="cls-81" d="M351.35,116.25l2.62-1.52a1.24,1.24,0,0,1,1.64.12,1.56,1.56,0,0,0-.91.24l-2.63,1.52a5.05,5.05,0,0,0-2.09,4l0,7.92a2.11,2.11,0,0,0,.46,1.46c-.7-.05-1.19-.72-1.19-1.82v-7.92A5,5,0,0,1,351.35,116.25Z"/><polygon class="cls-82" points="233.9 91.64 234.03 168.92 296.92 133 295.9 57.66 233.9 91.64"/><path class="cls-83" d="M296.73,79.07l41.42,24a21.42,21.42,0,0,1,10.2,13.34l5.86,22.93a85.38,85.38,0,0,1,2.65,21l0,26.87L298,220.73l0-23.89a85.56,85.56,0,0,0-4-25.71l-7.56-23.81a21.44,21.44,0,0,0-9.87-12.15l-38.73-22.5Z"/><path class="cls-84" d="M297.93,196.72l0,24-31.62-18.08-2.46-13.94-26-15.45-.1-60.59,38.88,22.58a21.4,21.4,0,0,1,9.88,12.21L294,171.23A85.43,85.43,0,0,1,297.93,196.72Z"/><path class="cls-85" d="M297.11,196.59a85.17,85.17,0,0,0-3.94-25.5l-7.48-23.77a21.45,21.45,0,0,0-9.89-12.21l-37.65-21.87v-1L277,134.84a21.38,21.38,0,0,1,9.89,12.21l7.48,23.77a85.44,85.44,0,0,1,3.95,25.49l0,24-1.23-.7Z"/><path class="cls-86" d="M282.91,148.59l7.49,23.78a1.88,1.88,0,0,1-2.74,2.2L264.26,161a5,5,0,0,1-2.51-4.35l0-19.53a1.88,1.88,0,0,1,2.83-1.63l14.53,8.44a8.36,8.36,0,0,1,3.82,4.65Z"/><path class="cls-87" d="M307.93,178l0,8.81a12.2,12.2,0,0,0,18.28,10.57l8.44-4.84a29.77,29.77,0,0,0,14.95-25.86l0-12.73Z"/><path class="cls-88" d="M320.19,195.78a8.71,8.71,0,0,0,4.41-1.2l8.45-4.85a26.56,26.56,0,0,0,13.31-23l0-7.08L311.2,179.91v6.93A9,9,0,0,0,320.19,195.78Z"/><path class="cls-89" d="M342,181.28l-24.42,14.09a9.16,9.16,0,0,1-1.71-.73l27.63-15.95A26.78,26.78,0,0,1,342,181.28Zm3.37-7.39-32.16,18.56a9,9,0,0,1-.86-1.23l33.5-19.33C345.72,172.57,345.55,173.23,345.37,173.89Zm1-7.18c0,.4,0,.79,0,1.19l-35,20.21a8.71,8.71,0,0,1-.1-1.27v-.4l35.15-20.29Zm0-6v1.73l-35.14,20.28V181Z"/><g class="cls-90"><path class="cls-91" d="M343.07,179.48l-26.69,15.41c-.17-.08-.35-.16-.51-.25l27.63-15.95C343.36,179,343.21,179.22,343.07,179.48Z"/><path class="cls-92" d="M345.7,172.52l-33.08,19.09c-.08-.13-.19-.25-.27-.39l33.5-19.33C345.81,172.1,345.75,172.31,345.7,172.52Z"/><path class="cls-93" d="M346.36,166.7,311.22,187s0-.09,0-.14v-.4l35.15-20.29Z"/><polygon class="cls-94" points="346.35 160.71 346.35 161.26 311.2 181.54 311.2 181 346.35 160.71"/></g><path class="cls-95" d="M299.93,174.83a3.36,3.36,0,0,0,1.72-.46l47.84-27.24a5.87,5.87,0,0,0,2.78-6.54l-6-23.61a19.25,19.25,0,0,0-1.28-3.52,2.12,2.12,0,0,0-1.92-1.22,2,2,0,0,0-1,.28l-52.11,30a3.43,3.43,0,0,0-1.51,4.05l8.2,25.8a3.49,3.49,0,0,0,3.34,2.44Z"/><path class="cls-96" d="M352.27,140.59l-6-23.61a19.25,19.25,0,0,0-1.28-3.52,2.12,2.12,0,0,0-1.92-1.22,2,2,0,0,0-1,.28l-52.11,30C288.51,143.34,352.92,143.14,352.27,140.59Z"/><path class="cls-97" d="M298.82,172.11a3.46,3.46,0,0,0,1.74-.46L349.09,144a5.92,5.92,0,0,0,2.93-4.38l.25,1a5.87,5.87,0,0,1-2.78,6.54l-47.84,27.24a3.36,3.36,0,0,1-1.72.46,3.49,3.49,0,0,1-3.34-2.44l-.5-1.55A3.53,3.53,0,0,0,298.82,172.11Z"/><path class="cls-98" d="M323.29,146.49l13.54-3a.53.53,0,0,1,.51-.12h0l8-1.75a.54.54,0,0,1,.65.42.53.53,0,0,1-.41.64l-8,1.75L335,153.41a.56.56,0,0,1-.52.4.4.4,0,0,1-.15,0,.53.53,0,0,1-.37-.67l2.42-8.38-12.85,2.83h-.12a.53.53,0,0,1-.53-.43A.55.55,0,0,1,323.29,146.49Z"/><path class="cls-99" d="M301.92,158.5l13.54-3a.52.52,0,0,1,.5-.12h0l8-1.76a.55.55,0,0,1,.23,1.07l-7.95,1.74-2.59,9a.56.56,0,0,1-.52.39l-.16,0a.55.55,0,0,1-.37-.68l2.43-8.38-12.86,2.83H302a.54.54,0,0,1-.53-.43A.54.54,0,0,1,301.92,158.5Z"/><g class="cls-100"><path class="cls-101" d="M246.54,126.34a.81.81,0,0,0-.8.8l0,19.54a4,4,0,0,0,2,3.41l6.52,3.79a1.31,1.31,0,0,0,.66.18,1.33,1.33,0,0,0,1.32-1.33l0-18.51a4.14,4.14,0,0,0-2.07-3.58l-7.2-4.19a.8.8,0,0,0-.4-.11Zm0-1.09a1.87,1.87,0,0,1,1,.26l7.2,4.19a5.24,5.24,0,0,1,2.61,4.52l0,18.51a2.42,2.42,0,0,1-2.41,2.42,2.48,2.48,0,0,1-1.21-.33L247.2,151a5,5,0,0,1-2.51-4.35l0-19.53a1.88,1.88,0,0,1,1.88-1.9Z"/></g><path class="cls-102" d="M257.26,159.69l3.42,2a2.48,2.48,0,0,1,1.24,2.15V164a1.14,1.14,0,0,1-1.72,1l-3.1-1.8a2.4,2.4,0,0,1-1.19-2.07v-.64A.9.9,0,0,1,257.26,159.69Z"/><g class="cls-100"><path class="cls-101" d="M257.1,163.18l3.1,1.8a1.14,1.14,0,0,0,1.71-.9s0,.06,0,.1v.58a1.14,1.14,0,0,1-1.72,1l-3.09-1.8a2.39,2.39,0,0,1-1.2-2.07v-.77A2.4,2.4,0,0,0,257.1,163.18Z"/></g><polygon class="cls-103" points="263.49 171.53 237.84 173.26 263.83 188.56 263.49 171.53"/><polygon class="cls-104" points="245.68 184.66 245.7 196.34 254.58 191.34 253.97 179.69 245.68 184.66"/><path class="cls-105" d="M285.36,208.81c0,4.76-1.63,8.13-4.3,9.77l-8.13,4.73c-2.77,1.56-1-2-5.22-4.4-8.5-4.88-15.4-16.74-15.41-26.48,0-4.81-4.46-4.85-1.74-6.46l8.66-4.81c2.76-1.5,6.55-1.23,10.73,1.17C278.44,187.22,285.34,199.07,285.36,208.81Z"/><ellipse class="cls-106" cx="261.46" cy="204.82" rx="12.51" ry="21.67" transform="translate(-67.7 160.51) rotate(-30.41)"/><ellipse class="cls-107" cx="261.46" cy="204.82" rx="8.91" ry="15.44" transform="translate(-67.7 160.51) rotate(-30.41)"/><path class="cls-108" d="M272.42,211.12a9.4,9.4,0,0,1-1.38,5.32c-1.87,1.36-4.6,1.32-7.66-.44-5.65-3.25-10.24-11.13-10.25-17.61,0-4.68,2.38-7.34,5.83-7.23a11.74,11.74,0,0,1,2.48,1.09C267.49,195.74,272.41,204.18,272.42,211.12Z"/><path class="cls-101" d="M255.18,190.91c-2,1.14-3.15,3.57-3.15,7,0,6.94,4.93,15.38,11,18.87a8.79,8.79,0,0,0,6.25,1.34c-2,1.17-4.74,1-7.79-.74-6.05-3.49-11-11.93-11-18.87C250.49,194.25,252.34,191.55,255.18,190.91Z"/><path class="cls-109" d="M265.63,206.52c0,1.82-1.27,2.55-2.86,1.64a6.31,6.31,0,0,1-2.87-4.94c0-1.81,1.28-2.55,2.86-1.63A6.31,6.31,0,0,1,265.63,206.52Z"/><path class="cls-110" d="M262.17,186.82c-4.08-2.35-7.77-2.66-10.52-1.28,2.56-.72,5.74-.19,9.19,1.79,8.5,4.89,15.4,16.75,15.41,26.49,0,5.07-1.85,8.56-4.83,10.06,3.75-1.06,6.17-4.8,6.16-10.58C277.56,203.56,270.66,191.7,262.17,186.82Z"/><path class="cls-111" d="M263,194.59a3.17,3.17,0,0,1,1.44,2.47c0,.91-.64,1.27-1.43.82a3.19,3.19,0,0,1-1.44-2.47C261.57,194.51,262.21,194.14,263,194.59Zm0,16.76a3.17,3.17,0,0,1,1.44,2.47c0,.9-.64,1.27-1.43.82a3.17,3.17,0,0,1-1.44-2.47C261.6,211.26,262.24,210.9,263,211.35Zm-4.17-13.89c-.56.32-1.47-.2-2-1.16s-.56-2,0-2.33,1.46.21,2,1.17S259.42,197.14,258.86,197.46Zm8.32,14.31c.56-.32,1.47.2,2,1.16s.56,2,0,2.32-1.46-.2-2-1.16S266.63,212.09,267.18,211.77Zm-11.47-13a3.14,3.14,0,0,1,1.43,2.46c0,.91-.63,1.28-1.43.82a3.14,3.14,0,0,1-1.43-2.46C254.28,198.68,254.92,198.31,255.71,198.77Zm14.62,8.41a3.12,3.12,0,0,1,1.43,2.46c0,.91-.64,1.27-1.43.82A3.16,3.16,0,0,1,268.9,208C268.9,207.09,269.54,206.72,270.33,207.18Zm-13.48-1.36c.56-.32,1.46.21,2,1.17s.57,2,0,2.32-1.47-.2-2-1.16S256.29,206.14,256.85,205.82Zm10.31-5.9c.56-.32,1.47.2,2,1.16s.56,2,0,2.33-1.46-.21-2-1.17S266.61,200.24,267.16,199.92Z"/><path class="cls-112" d="M267.45,206.52a3,3,0,0,1-1.18,2.69l-1.79,1.08c-.76.43-.27-.55-1.44-1.22a9.3,9.3,0,0,1-4.24-7.29c0-1.33-1.23-1.34-.48-1.78l1.93-1.09a3,3,0,0,1,2.95.32A9.31,9.31,0,0,1,267.45,206.52Z"/><path class="cls-113" d="M265.56,207.63c0,2.68-1.89,3.77-4.23,2.42a9.35,9.35,0,0,1-4.25-7.3c0-2.68,1.89-3.76,4.23-2.42A9.34,9.34,0,0,1,265.56,207.63Z"/><polygon class="cls-114" points="280.74 221.72 280.71 204.8 269.67 185.82 254.13 176.89 263.49 171.53 279.08 180.5 290.13 199.47 290.15 216.4 280.74 221.72"/><polygon class="cls-115" points="280.71 204.8 269.67 185.82 279.08 180.5 290.13 199.47 280.71 204.8"/><polygon class="cls-116" points="278.14 220.32 278.11 205.5 267.77 187.73 254.07 179.85 245.68 184.66 245.7 196.34 243.1 194.85 243.08 183.15 254.08 176.85 269.67 185.82 280.71 204.8 280.74 221.81 278.14 220.32"/><g class="cls-90"><polygon class="cls-117" points="280.44 204.46 269.39 185.48 254.03 176.65 254.62 176.31 270.21 185.28 281.25 204.25 281.28 221.27 280.47 220.8 280.44 204.46"/><polygon class="cls-118" points="245.43 195.33 245.41 184.32 253.8 179.51 254.03 179.64 246.22 184.11 246.24 195.8 245.43 195.33"/></g><path class="cls-119" d="M361.33,181.53l-59,35.13a9.36,9.36,0,0,1-9.29,0L282,210.52l0,10,11.14,6.25a9.41,9.41,0,0,0,9.33,0l58.85-33.92Z"/><path class="cls-120" d="M360.33,183.44l-58,33.22a9.36,9.36,0,0,1-9.29,0L282,210.52l3-1.74,8,4.51a9.39,9.39,0,0,0,9.37,0l54.46-31.53,0-4,3.55,2.17A2.06,2.06,0,0,1,360.33,183.44Z"/><g class="cls-90"><polygon class="cls-121" points="356.92 181.06 356.85 181.1 356.83 177.73 356.9 177.77 356.92 181.06"/><path class="cls-122" d="M282.65,210.16,293.13,216a9.36,9.36,0,0,0,9.29,0l58-33.22a2,2,0,0,0,1-1.22,2,2,0,0,1-1,1.9l-58,33.22a9.36,9.36,0,0,1-9.29,0L282,210.52Z"/></g><path class="cls-123" d="M281.55,174.61a.55.55,0,0,0,.28-1l-3.69-2.22A6.55,6.55,0,0,1,275,165.8l0-14.38a6.48,6.48,0,0,1,2.89-5.44l3.62-2.42a.55.55,0,1,0-.61-.91l-3.61,2.42a7.59,7.59,0,0,0-3.38,6.35l0,14.38a7.65,7.65,0,0,0,3.7,6.51l3.69,2.22A.54.54,0,0,0,281.55,174.61Z"/><path class="cls-124" d="M272.11,166.61l2.62-1.52a5,5,0,0,0,2.09-4v-7.92c0-1.54-.95-2.25-2.1-1.58l-2.63,1.52a5.05,5.05,0,0,0-2.09,4l0,7.92C270,166.57,271,167.28,272.11,166.61Z"/><path class="cls-125" d="M272.08,153.1l2.63-1.52a1.22,1.22,0,0,1,1.63.12,1.6,1.6,0,0,0-.91.24l-2.62,1.52a5.05,5.05,0,0,0-2.09,4v7.92a2.11,2.11,0,0,0,.47,1.46c-.7,0-1.19-.72-1.19-1.82l0-7.92A5.05,5.05,0,0,1,272.08,153.1Z"/><path class="cls-126" d="M237.6,94.77l58-33.42,21.92,13.11A30.79,30.79,0,0,1,332.88,101l-.09-.05-57.88,33.09Z"/><path class="cls-127" d="M275,134h0l-37.38-21.86,0-17.53,22.07,12.8A30.79,30.79,0,0,1,275,134Z"/><path class="cls-128" d="M259.23,107.59l-21-12.17V94.24L260.31,107a30.81,30.81,0,0,1,15.34,26.59l-1.13-.66A30.76,30.76,0,0,0,259.23,107.59Z"/><path class="cls-129" d="M311.18,202l-11,6.23a1.53,1.53,0,0,1-2.29-1.33v-4.81a4.12,4.12,0,0,1,2.2-3.66l3.45-1.82a4.14,4.14,0,0,1,4.37.31l3.42,2.5A1.54,1.54,0,0,1,311.18,202Z"/><path class="cls-130" d="M356.9,172.6v4a1.47,1.47,0,0,1-.79,1.31l-4.79,2.46a1.12,1.12,0,0,1-1.57-1.39l1.9-5.21a3.12,3.12,0,0,1,1.57-1.72l1.58-.76A1.47,1.47,0,0,1,356.9,172.6Z"/><path class="cls-131" d="M311.18,201.2l-11,6.23a1.54,1.54,0,0,1-2.3-1.33v-4.81a4.12,4.12,0,0,1,2.2-3.66l3.45-1.82a4.1,4.1,0,0,1,4.36.32l3.43,2.49A1.54,1.54,0,0,1,311.18,201.2Z"/><path class="cls-132" d="M356.89,172v4a1.47,1.47,0,0,1-.79,1.3l-4.79,2.47a1.13,1.13,0,0,1-1.57-1.39l1.9-5.21a3.1,3.1,0,0,1,1.57-1.73l1.57-.75A1.46,1.46,0,0,1,356.89,172Z"/><path class="cls-133" d="M356.89,172s-6.41,7.9-6.73,7.68a1.12,1.12,0,0,1-.41-1.31l1.9-5.21a3.1,3.1,0,0,1,1.57-1.73l1.57-.75A1.46,1.46,0,0,1,356.89,172Z"/><path class="cls-134" d="M310.25,214.22,302,219l2.44,1.61a3.76,3.76,0,0,0,4,.11l8.51-5-3.09-1.58A3.78,3.78,0,0,0,310.25,214.22Z"/><path class="cls-135" d="M310.25,214.22,302,219l14.94-3.27-3.09-1.58A3.78,3.78,0,0,0,310.25,214.22Z"/><path class="cls-136" d="M359.32,186.47l-8.87,5.1a3.74,3.74,0,0,0-1.63,1.9l-2.12,5.46,9.32-5.47a3.77,3.77,0,0,0,1.67-2.07Z"/><path class="cls-137" d="M359.32,186.47l-8.87,5.1a3.74,3.74,0,0,0-1.63,1.9l-2.12,5.46Z"/><path class="cls-138" d="M344.75,202.35l.07-1.88a2.58,2.58,0,0,0-3.88-2.23L324,208a8.48,8.48,0,0,0-4.24,7.37v1.46Z"/><path class="cls-139" d="M298,200.28a4.14,4.14,0,0,1,2.07-2.65l3.45-1.82a4.1,4.1,0,0,1,4.36.32l3.43,2.49a1.55,1.55,0,0,1,.57,1.64Z"/><path class="cls-140" d="M308.52,197l-1.87,4s-3.06-2.65-2.49-3.88S308.52,197,308.52,197Z"/><path class="cls-141" d="M306,199.84c0,1,.71,1.41,1.59.9A3.51,3.51,0,0,0,309.2,198c0-1-.71-1.41-1.59-.91A3.53,3.53,0,0,0,306,199.84Z"/><path class="cls-142" d="M355.94,173.47l-1.87,4s-3.06-2.65-2.49-3.88S355.94,173.47,355.94,173.47Z"/><path class="cls-143" d="M353.45,176.3c0,1,.71,1.41,1.59.9a3.49,3.49,0,0,0,1.58-2.73c0-1-.71-1.41-1.59-.9A3.49,3.49,0,0,0,353.45,176.3Z"/><path class="cls-144" d="M309,217.26l-1.55,3.29s-2.35-1.94-1.88-3S309,217.26,309,217.26Z"/><path class="cls-145" d="M306.94,219.6c0,.83.59,1.16,1.31.74a2.89,2.89,0,0,0,1.3-2.25c0-.83-.58-1.17-1.31-.75A2.89,2.89,0,0,0,306.94,219.6Z"/><path class="cls-146" d="M313.07,214.74,311.52,218s-2.34-1.95-1.88-3S313.07,214.74,313.07,214.74Z"/><path class="cls-147" d="M311,217.08c0,.82.58,1.16,1.31.74a2.89,2.89,0,0,0,1.3-2.26c0-.83-.59-1.16-1.31-.74A2.89,2.89,0,0,0,311,217.08Z"/><path class="cls-148" d="M352.81,192.37l-1.55,3.29s-2.35-1.94-1.88-3S352.81,192.37,352.81,192.37Z"/><path class="cls-149" d="M350.76,194.71c0,.83.58,1.16,1.3.74a2.87,2.87,0,0,0,1.31-2.26c0-.82-.59-1.16-1.31-.74A2.86,2.86,0,0,0,350.76,194.71Z"/><path class="cls-150" d="M356.68,190l-1.55,3.28s-2.34-1.94-1.88-3S356.68,190,356.68,190Z"/><path class="cls-151" d="M354.63,192.32c0,.83.58,1.16,1.31.74a2.86,2.86,0,0,0,1.3-2.25c0-.83-.59-1.16-1.31-.75A2.89,2.89,0,0,0,354.63,192.32Z"/><path class="cls-152" d="M305.66,200.53l-1.89,4s-5.79-3.57-5.22-4.8S305.66,200.53,305.66,200.53Z"/><path class="cls-153" d="M303.15,203.38c0,1,.72,1.42,1.6.91a3.52,3.52,0,0,0,1.59-2.76c0-1-.71-1.42-1.6-.9A3.51,3.51,0,0,0,303.15,203.38Z"/><path class="cls-154" d="M297.89,206.1v-4.81a4.12,4.12,0,0,1,2.2-3.66l3.45-1.82a4.1,4.1,0,0,1,4.36.32Z"/><polygon class="cls-155" points="324.45 209.49 324.46 214.02 340.82 204.74 340.81 200.09 324.45 209.49"/><polygon class="cls-156" points="340.81 200.09 340.81 200.76 324.99 209.85 325 213.72 324.46 214.02 324.45 209.49 340.81 200.09"/><polygon class="cls-157" points="308 174.34 308 178.88 349.58 155.26 349.57 150.61 308 174.34"/><path class="cls-158" d="M310.25,214.22,302,219l2.44,1.61c1.2.8,9.41-6.46,9.41-6.46A3.78,3.78,0,0,0,310.25,214.22Z"/><path class="cls-159" d="M359.32,186.47l-8.87,5.1a3.74,3.74,0,0,0-1.63,1.9s8.58-1.21,8.87-2.08Z"/><path class="cls-160" d="M356.89,172v4c0,.55-5.25-2.83-5.25-2.83a3.1,3.1,0,0,1,1.57-1.73l1.57-.75A1.46,1.46,0,0,1,356.89,172Z"/><path class="cls-161" d="M287.22,135.5c-12.59,6.72-21.71,14.2-20.36,16.72s12.64-.89,25.23-7.61,21.7-14.2,20.36-16.72S299.81,128.78,287.22,135.5Z"/><path class="cls-162" d="M406.88,188s-16.27,17.1-16.56,16.89S351.48,178.49,351.65,178l1.74-4.73a2.78,2.78,0,0,1,1.42-1.57l1.43-.69C357.13,170.58,406.88,187.06,406.88,188Z"/><path class="cls-163" d="M377.53,198.83s-7.62,8-7.75,7.91-18.18-12.38-18.1-12.6l.81-2.22a1.35,1.35,0,0,1,.67-.74l.67-.32C354.24,190.66,377.53,198.37,377.53,198.83Z"/><path class="cls-164" d="M331.61,225s-7.62,8-7.75,7.91-18.18-12.38-18.1-12.61l.81-2.21a1.32,1.32,0,0,1,.67-.74l.67-.32C308.32,216.85,331.61,224.56,331.61,225Z"/><path class="cls-165" d="M368.84,218.55s-18.18,19.18-18.53,18.93-48.85-30.55-48.63-31.14l2.1-5.76a3.43,3.43,0,0,1,1.74-1.91l1.74-.83C308.33,197.32,368.84,217.36,368.84,218.55Z"/><path class="cls-166" d="M325,89a1.72,1.72,0,0,0-.15-.53c-.59-1.2-2.19-1.25-4-.13l-20.23,12.38-20.31,12.42c-2,1.2-3.44,3.41-3.29,5,.13,1.35.34,2.65.54,4a1.53,1.53,0,0,0,1.6,1.35,4.75,4.75,0,0,0,2.71-.88Q302,110.29,322.05,98l.3-.19c2-1.3,3.43-3.57,3.2-5.2C325.38,91.42,325.2,90.22,325,89Zm-40.36,27.68a4.28,4.28,0,0,1-2,2.83,8.66,8.66,0,0,1-2.14,1.09c-.16,0-.23,0-.25-.11-.08-.66-.18-1.31-.27-2l-.27-2c0-.09,0-.16.1-.29a8.5,8.5,0,0,1,3-1.92c.75-.25,1.27-.1,1.57.35A2.71,2.71,0,0,1,284.67,116.69Zm2.85-.22-1.62,1c-.14.09-.19.08-.2,0-.2-1.46-.41-2.92-.62-4.37,0-.13,0-.19.18-.28.54-.33,1.08-.65,1.61-1,.17-.1.2-.07.22,0l.3,2.19c.11.72.2,1.44.31,2.15C287.72,116.31,287.68,116.37,287.52,116.47Zm3.92-4.2a6.56,6.56,0,0,1-.91.64c-.16.09-.21.16-.19.29.07.41.12.84.18,1.24,0,.13,0,.2-.18.3-.5.3-1,.6-1.51.92-.18.12-.25.12-.27,0-.08-.68-.18-1.35-.28-2s-.19-1.38-.29-2.07a.27.27,0,0,1,.13-.31,10.28,10.28,0,0,1,3.05-2c1-.38,1.53-.12,1.61.71A3,3,0,0,1,291.44,112.27Zm4-3.83c.15,0,.44-.24.68-.37l.2-.12c.13-.1.18-.07.19,0,0,.26.06.52.11.77s0,.18-.18.26l-.73.44c-.12.07-.16.13-.14.23s.05.33.07.5.07.11.19,0l.91-.56c.15-.1.21-.11.23,0s.06.51.1.76,0,.16-.14.24l-3,1.81c-.18.11-.17,0-.18-.07-.1-.73-.21-1.46-.31-2.19s-.2-1.43-.31-2.14c0-.13,0-.2.2-.31.94-.57,1.88-1.14,2.82-1.73.2-.12.25-.1.26,0a5.52,5.52,0,0,0,.1.71c0,.14,0,.22-.2.32l-.89.53c-.12.08-.18.14-.15.24S295.32,108.4,295.48,108.44Zm5.43-.17L298.09,110c-.16.1-.2.08-.21,0-.1-.73-.2-1.45-.31-2.18l-.3-2.17c0-.12,0-.19.17-.29q.8-.46,1.56-1c.19-.11.23-.09.25,0,.14,1.08.3,2.14.44,3.22,0,.19.1.2.32.05s.52-.32.78-.48.16-.07.17,0c0,.27.07.54.11.8S301,108.2,300.91,108.27Zm6.43-5.19a3.44,3.44,0,0,1-1.43,2.17,6.65,6.65,0,0,1-2,1.07c-.17.05-.24,0-.19-.17.09-.4.16-.78.24-1.18a1.89,1.89,0,0,0,1-.39.61.61,0,0,0,.27-.33.17.17,0,0,0-.12-.23,2.41,2.41,0,0,0-.74.06c-.73.09-1.08-.24-1.08-.92a2.74,2.74,0,0,1,.93-1.88,5.1,5.1,0,0,1,2.37-1.37c.11,0,.15,0,.12.11-.07.31-.15.62-.21.93a.19.19,0,0,1-.18.18,2.06,2.06,0,0,0-.8.35.64.64,0,0,0-.3.35.17.17,0,0,0,.14.24,1.41,1.41,0,0,0,.5,0,3.11,3.11,0,0,1,.44-.07C307.11,101.93,307.38,102.23,307.34,103.08Zm1.78.25c-.55.34-1.07.24-1.12-.21a1.8,1.8,0,0,1,.91-1.45c.58-.35,1.08-.25,1.14.21A1.67,1.67,0,0,1,309.12,103.33Zm6.67-4.16-1.68,1c-.15.09-.2.07-.24,0s-.07-.35-.2-.35a2.26,2.26,0,0,0-.59.33c-.18.11-.37.24-.55.33a.54.54,0,0,0-.36.49c0,.42-.06.43-.52.71l-1.29.79c.23-1.16.46-2.29.68-3.42.15-.71.3-1.44.44-2.15a.39.39,0,0,1,.24-.33c.54-.32,1.08-.65,1.61-1,.13-.08.2-.08.25,0,.78,1.12,1.55,2.24,2.33,3.35C316,99,315.94,99.08,315.79,99.17Zm1.81-1c-.57.35-1.08.27-1.14-.18a1.77,1.77,0,0,1,.91-1.47c.56-.34,1.07-.25,1.14.19A1.73,1.73,0,0,1,317.6,98.15Zm5.13-4.71a2.84,2.84,0,0,1-1.13,2.13,5.93,5.93,0,0,1-2.35,1.34c-.16,0-.23,0-.18-.16.09-.39.16-.77.24-1.19a2,2,0,0,0,1-.38.59.59,0,0,0,.28-.33.17.17,0,0,0-.14-.25,2,2,0,0,0-.58.05c-.81.12-1.25-.2-1.22-.9A3.21,3.21,0,0,1,320,91.51a5.25,5.25,0,0,1,1.94-1c.14,0,.18,0,.15.14-.07.3-.14.6-.19.89,0,.13-.08.17-.21.2a2,2,0,0,0-.75.31.78.78,0,0,0-.33.37.19.19,0,0,0,.16.26,1.52,1.52,0,0,0,.47,0l.42-.07C322.36,92.49,322.71,92.79,322.73,93.44Z"/><path class="cls-167" d="M315.16,78.79l-2.83-.47c-.14,0-.2,0-.31.18-.72,1.15-1.45,2.3-2.16,3.45-.11.17-.17.22-.31.19L304,81.21c-.15,0-.15-.08,0-.26.73-1.15,1.45-2.31,2.19-3.47.12-.19.1-.23,0-.25q-1.42-.23-2.82-.48c-.16,0-.23,0-.34.22-.71,1.14-1.44,2.28-2.15,3.42-.12.21-.2.25-.36.22L295,79.68c-.19,0-.27,0-.44.26q-2.22,3.56-4.47,7.11c-.15.24-.17.33,0,.36l5.52.91c.15,0,.16.09,0,.28-.71,1.11-1.4,2.21-2.09,3.32-.12.2-.19.26-.37.23l-5.6-1c-.14,0-.21,0-.34.19-1.51,2.42-3,4.84-4.56,7.26-.12.19-.12.25,0,.28q2.88.46,5.75,1c.15,0,.21,0,.31-.2.44-.7.88-1.41,1.33-2.11l3.16-5a.82.82,0,0,1,.17-.22l.17,0,2.58.43c.28,0,.28,0,.07.38l-4.4,7c-.13.2-.14.27,0,.3,1.9.31,3.79.62,5.68,1,.16,0,.24,0,.39-.23,1.46-2.35,2.94-4.7,4.41-7,.12-.19.18-.24.34-.21.91.17,1.85.31,2.77.48.13,0,.19,0,.29-.18.77-1.23,1.54-2.47,2.32-3.7.12-.18.1-.22,0-.24l-2.81-.47c-.14,0-.16-.06,0-.26q2.21-3.48,4.4-7c.11-.19.18-.21.31-.19.89.16,1.8.3,2.69.47.16,0,.23,0,.35-.22.74-1.19,1.49-2.38,2.24-3.57C315.31,78.88,315.32,78.82,315.16,78.79ZM304.77,90.07c-.73,1.15-1.45,2.3-2.17,3.45-.09.14-.15.17-.26.15-1.86-.31-3.71-.63-5.57-.93-.11,0-.1-.08,0-.2.73-1.15,1.46-2.31,2.18-3.47l.11-.15h.13c1.85.31,3.71.63,5.57.93C304.85,89.88,304.85,89.93,304.77,90.07Zm-1.19-8.63q-2.25,3.56-4.48,7.11c-.08.13-.12.15-.21.13-.91-.16-1.81-.31-2.72-.45-.14,0-.07-.12,0-.23.55-.86,1.09-1.72,1.63-2.59L300.57,81a1.5,1.5,0,0,1,.15-.23h.13c.9.15,1.8.31,2.7.45C303.65,81.27,303.66,81.31,303.58,81.44Z"/><path class="cls-168" d="M281.93,117.31c-.06-.39-.11-.78-.17-1.17,0-.13,0-.2.2-.27s.43-.05.5.12a3.86,3.86,0,0,1,.26,1.87.92.92,0,0,1-.4.66c-.15.13-.21.13-.23,0C282,118.11,282,117.71,281.93,117.31Z"/><path class="cls-169" d="M313.31,99.06l-.94.58c.06-.64.22-1.31.27-2Z"/><path class="cls-170" d="M290.1,111.46c0-.18-.05-.38-.08-.56s0-.15.14-.23c.32-.21.53-.23.62,0a1.22,1.22,0,0,1,.08.77,1.09,1.09,0,0,1-.58.67c-.11,0-.09,0-.1-.07C290.15,111.84,290.13,111.65,290.1,111.46Z"/></g></g></g></svg>