<svg width="79" height="64" viewBox="0 0 79 64" fill="none" xmlns="http://www.w3.org/2000/svg">
<path d="M51.8424 42.5272L61.0452 26.5872H42.6396L51.8424 42.5272Z" fill="white"/>
<path d="M62.2827 61.9309L71.4856 45.9897H53.0789L62.2827 61.9309Z" fill="white"/>
<path d="M19.5483 45.5907L30.0965 27.3203H9L19.5483 45.5907Z" fill="white"/>
<path d="M39.2507 18.2704L49.7989 0H28.7024L39.2507 18.2704Z" fill="white"/>
<path d="M53.1193 4.85449L42.571 23.1238H63.6687L53.1193 4.85449Z" fill="white"/>
<path d="M29.0457 42.7625H27.797L24.8665 47.8376H29.0457V42.7625Z" fill="white"/>
<path d="M42.1113 42.7625H31.3135V47.8376H42.1113V42.7625Z" fill="white"/>
<path d="M44.3792 47.8376H48.5573L45.6268 42.7625H44.3792V47.8376Z" fill="white"/>
<path d="M29.0457 50.4282H23.3704L20.4409 55.5034H29.0457V50.4282Z" fill="white"/>
<path d="M42.1113 50.4282H31.3135V55.5034H42.1113V50.4282Z" fill="white"/>
<path d="M44.3792 55.5034H52.984L50.0534 50.4282H44.3792V55.5034Z" fill="white"/>
<path d="M29.0455 63.1709V58.0957H18.9435L18.2466 59.3027V63.1709H29.0455Z" fill="white"/>
<path d="M42.1113 58.0957H31.3135V63.1709H42.1113V58.0957Z" fill="white"/>
<path d="M44.3792 63.1709H55.1769V59.3027L54.48 58.0957H44.3792V63.1709Z" fill="white"/>
<path d="M42.0956 40.2023L42.1165 36.7034L41.2152 35.1216L32.2377 35.0688L31.3187 36.6408L31.2979 40.1385L42.0956 40.2023Z" fill="white"/>
<path d="M36.7114 27.3203L33.782 32.3955H39.642L36.7114 27.3203Z" fill="white"/>
<path d="M9 23.1232H12.6484V16.8037L9 23.1232Z" fill="white"/>
<path d="M18.4118 16.8008H14.7634V23.1247H18.4118V16.8008Z" fill="white"/>
<path d="M18.4118 14.7243V8.40039H17.5016L14.7634 13.1414V14.7243H18.4118Z" fill="white"/>
<path d="M24.1747 16.8008H20.5264V23.1247H24.1747V16.8008Z" fill="white"/>
<path d="M24.1747 8.40039H20.5264V14.7243H24.1747V8.40039Z" fill="white"/>
<path d="M24.1747 6.32389V3.1592L22.3511 0L20.5264 3.1592V6.32389H24.1747Z" fill="white"/>
<path d="M29.9381 16.8008H26.2898V23.1247H29.9381V16.8008Z" fill="white"/>
<path d="M26.2898 14.7243H29.9381V13.1414L27.2011 8.40039H26.2898V14.7243Z" fill="white"/>
<path d="M32.053 23.1232H35.7013L32.053 16.8037V23.1232Z" fill="white"/>
</svg>
