<svg xmlns="http://www.w3.org/2000/svg" xmlns:xlink="http://www.w3.org/1999/xlink" viewBox="0 0 172.98 179.83"><defs><style>.cls-1{isolation:isolate;}.cls-2{fill:url(#New_Gradient_Swatch_copy_9);}.cls-3{fill:url(#New_Gradient_Swatch_copy_13);}.cls-13,.cls-4,.cls-48,.cls-51,.cls-79,.cls-8,.cls-80,.cls-84{mix-blend-mode:color-dodge;}.cls-4{fill:url(#Radial_Gradient_1);}.cls-5{fill:url(#New_Gradient_Swatch_copy_9-2);}.cls-6{fill:url(#linear-gradient);}.cls-7{fill:url(#New_Gradient_Swatch_copy_11);}.cls-8{fill:url(#Radial_Gradient_1-2);}.cls-9{fill:url(#New_Gradient_Swatch_copy_9-3);}.cls-10{fill:url(#New_Gradient_Swatch_copy_9-4);}.cls-11{fill:url(#New_Gradient_Swatch_copy_9-5);}.cls-12,.cls-85,.cls-86,.cls-87,.cls-88{opacity:0.5;}.cls-12{fill:url(#New_Gradient_Swatch_copy_11-2);}.cls-14{fill:url(#Radial_Gradient_1-3);}.cls-15{fill:url(#Radial_Gradient_1-4);}.cls-16{fill:url(#Radial_Gradient_1-5);}.cls-17{fill:url(#Radial_Gradient_1-6);}.cls-18{fill:url(#New_Gradient_Swatch_copy_9-6);}.cls-19,.cls-33,.cls-77,.cls-81,.cls-82,.cls-83,.cls-85,.cls-86,.cls-87,.cls-88{mix-blend-mode:screen;}.cls-19{fill:url(#linear-gradient-2);}.cls-20{fill:url(#New_Gradient_Swatch_copy_9-7);}.cls-21{fill:url(#New_Gradient_Swatch_copy_9-8);}.cls-22{fill:url(#New_Gradient_Swatch_copy_9-9);}.cls-23,.cls-26,.cls-52,.cls-53,.cls-56,.cls-58,.cls-60,.cls-61,.cls-62{mix-blend-mode:multiply;}.cls-24{fill:#bec3b7;}.cls-25{fill:url(#New_Gradient_Swatch_copy_11-3);}.cls-26{fill:url(#linear-gradient-3);}.cls-27{fill:url(#linear-gradient-4);}.cls-28{fill:url(#New_Gradient_Swatch_copy_10);}.cls-29{fill:url(#New_Gradient_Swatch_copy_9-10);}.cls-30{fill:url(#New_Gradient_Swatch_copy_11-4);}.cls-31{fill:url(#New_Gradient_Swatch_copy_11-5);}.cls-32{fill:url(#New_Gradient_Swatch_copy_15);}.cls-33{fill:url(#Radial_Gradient_1-7);}.cls-34{fill:url(#New_Gradient_Swatch_copy_9-11);}.cls-35{fill:url(#New_Gradient_Swatch_copy_14);}.cls-36{fill:url(#New_Gradient_Swatch_copy_11-6);}.cls-37{fill:url(#New_Gradient_Swatch_copy_11-7);}.cls-38{fill:url(#New_Gradient_Swatch_copy_11-8);}.cls-39{fill:url(#New_Gradient_Swatch_copy_11-9);}.cls-40{fill:url(#Radial_Gradient_1-8);}.cls-41{fill:url(#Radial_Gradient_1-9);}.cls-42{fill:url(#linear-gradient-5);}.cls-43{fill:url(#New_Gradient_Swatch_copy_11-10);}.cls-44{fill:url(#radial-gradient);}.cls-45{fill:url(#radial-gradient-2);}.cls-46{fill:url(#New_Gradient_Swatch_copy_9-12);}.cls-47{fill:url(#New_Gradient_Swatch_copy_13-2);}.cls-48{fill:url(#Radial_Gradient_1-10);}.cls-49{fill:url(#linear-gradient-6);}.cls-50{fill:url(#New_Gradient_Swatch_copy_11-11);}.cls-51{fill:url(#Radial_Gradient_1-11);}.cls-52{fill:url(#New_Gradient_Swatch_copy_11-12);}.cls-53{fill:url(#New_Gradient_Swatch_copy_11-13);}.cls-54{fill:url(#linear-gradient-7);}.cls-55{fill:url(#linear-gradient-8);}.cls-56{fill:url(#linear-gradient-9);}.cls-57{fill:url(#linear-gradient-10);}.cls-58{fill:url(#linear-gradient-11);}.cls-59{fill:url(#linear-gradient-12);}.cls-60{fill:url(#linear-gradient-13);}.cls-61{fill:url(#New_Gradient_Swatch_copy_11-14);}.cls-62{fill:url(#linear-gradient-14);}.cls-63{fill:url(#New_Gradient_Swatch_copy_12);}.cls-64{fill:url(#New_Gradient_Swatch_copy_12-2);}.cls-65{fill:url(#New_Gradient_Swatch_copy_12-3);}.cls-66{fill:url(#New_Gradient_Swatch_copy_12-4);}.cls-67{fill:url(#New_Gradient_Swatch_copy_12-5);}.cls-68{fill:url(#New_Gradient_Swatch_copy_12-6);}.cls-69{fill:url(#New_Gradient_Swatch_copy_12-7);}.cls-70{fill:url(#New_Gradient_Swatch_copy_12-8);}.cls-71{fill:url(#New_Gradient_Swatch_copy_12-9);}.cls-72{fill:url(#New_Gradient_Swatch_copy_12-10);}.cls-73{fill:url(#New_Gradient_Swatch_copy_12-11);}.cls-74{fill:url(#New_Gradient_Swatch_copy_12-12);}.cls-75{fill:url(#New_Gradient_Swatch_copy_12-13);}.cls-76{fill:url(#New_Gradient_Swatch_copy_12-14);}.cls-77{fill:url(#Radial_Gradient_1-12);}.cls-78{fill:url(#New_Gradient_Swatch_copy_11-15);}.cls-79{fill:url(#Radial_Gradient_1-13);}.cls-80{fill:url(#Radial_Gradient_1-14);}.cls-81{fill:url(#Radial_Gradient_1-15);}.cls-82{fill:url(#Radial_Gradient_1-16);}.cls-83{fill:url(#Radial_Gradient_1-17);}.cls-84{fill:url(#radial-gradient-3);}.cls-85{fill:url(#linear-gradient-15);}.cls-86{fill:url(#linear-gradient-16);}.cls-87{fill:url(#linear-gradient-17);}.cls-88{fill:url(#linear-gradient-18);}.cls-89{fill:url(#New_Gradient_Swatch_copy_10-2);}.cls-90{fill:url(#New_Gradient_Swatch_copy_10-3);}.cls-91{fill:url(#New_Gradient_Swatch_copy_10-4);}.cls-92{fill:url(#New_Gradient_Swatch_copy_10-5);}.cls-93{fill:url(#New_Gradient_Swatch_copy_10-6);}</style><linearGradient id="New_Gradient_Swatch_copy_9" x1="4797.13" y1="65.57" x2="4808.42" y2="65.57" gradientTransform="matrix(-1, 0, 0, 1, 4916.98, -8.32)" gradientUnits="userSpaceOnUse"><stop offset="0" stop-color="#070711"/><stop offset="1"/></linearGradient><radialGradient id="New_Gradient_Swatch_copy_13" cx="4799.52" cy="62.24" r="11.59" gradientTransform="matrix(-1, 0, 0, 1, 4916.98, -8.32)" gradientUnits="userSpaceOnUse"><stop offset="0.01" stop-color="#fff"/><stop offset="0.1" stop-color="#eff0ed"/><stop offset="0.26" stop-color="#d8dad3"/><stop offset="0.36" stop-color="#cfd2ca"/><stop offset="0.62" stop-color="#c1c5ba"/><stop offset="0.72" stop-color="#babfb3"/><stop offset="0.99" stop-color="#babfb3"/><stop offset="1" stop-color="#babfb3"/></radialGradient><radialGradient id="Radial_Gradient_1" cx="4798.53" cy="62.55" r="3.59" gradientTransform="matrix(-1, 0, 0, 1, 4916.98, -8.32)" gradientUnits="userSpaceOnUse"><stop offset="0" stop-color="#fff"/><stop offset="1"/></radialGradient><linearGradient id="New_Gradient_Swatch_copy_9-2" x1="4775.6" y1="80.48" x2="5000.87" y2="29.99" xlink:href="#New_Gradient_Swatch_copy_9"/><linearGradient id="linear-gradient" x1="4871.97" y1="32.43" x2="4812.41" y2="137.82" gradientTransform="matrix(-1, 0, 0, 1, 4916.98, -8.32)" gradientUnits="userSpaceOnUse"><stop offset="0.01" stop-color="#c4c8bd"/><stop offset="0.15" stop-color="#c7cac0"/><stop offset="0.24" stop-color="#cfd2c9"/><stop offset="0.33" stop-color="#dddfd9"/><stop offset="0.41" stop-color="#f1f2ef"/><stop offset="0.45" stop-color="#fff"/><stop offset="0.58" stop-color="#e7e9e5"/><stop offset="0.7" stop-color="#d5d8d1"/><stop offset="0.78" stop-color="#cfd2ca"/><stop offset="0.9" stop-color="#c3c7bc"/><stop offset="1" stop-color="#bec3b7"/></linearGradient><linearGradient id="New_Gradient_Swatch_copy_11" x1="4859.14" y1="116.36" x2="5021.94" y2="67.61" gradientTransform="matrix(-1, 0, 0, 1, 4916.98, -8.32)" gradientUnits="userSpaceOnUse"><stop offset="0" stop-color="#babfb3"/><stop offset="0.25" stop-color="#c0c4ba"/><stop offset="0.58" stop-color="#cfd2ca"/><stop offset="0.82" stop-color="#dddfda"/><stop offset="1" stop-color="#eaebe8"/></linearGradient><radialGradient id="Radial_Gradient_1-2" cx="4880.22" cy="101.53" r="31.29" xlink:href="#Radial_Gradient_1"/><linearGradient id="New_Gradient_Swatch_copy_9-3" x1="4864.62" y1="100.57" x2="4934.43" y2="79.67" xlink:href="#New_Gradient_Swatch_copy_9"/><linearGradient id="New_Gradient_Swatch_copy_9-4" x1="4761.68" y1="131.45" x2="4886.17" y2="103.54" xlink:href="#New_Gradient_Swatch_copy_9"/><linearGradient id="New_Gradient_Swatch_copy_9-5" x1="4810.07" y1="119.26" x2="4885.68" y2="129.42" xlink:href="#New_Gradient_Swatch_copy_9"/><linearGradient id="New_Gradient_Swatch_copy_11-2" x1="84.43" y1="118.78" x2="149.43" y2="127.51" gradientTransform="matrix(1, 0, 0, 1, -0.13, -0.05)" xlink:href="#New_Gradient_Swatch_copy_11"/><radialGradient id="Radial_Gradient_1-3" cx="4821.42" cy="129.35" r="11.32" xlink:href="#Radial_Gradient_1"/><radialGradient id="Radial_Gradient_1-4" cx="4821.99" cy="124.31" r="13.74" xlink:href="#Radial_Gradient_1"/><radialGradient id="Radial_Gradient_1-5" cx="4822.3" cy="119.12" r="14.44" xlink:href="#Radial_Gradient_1"/><radialGradient id="Radial_Gradient_1-6" cx="4822.3" cy="113.68" r="14.44" xlink:href="#Radial_Gradient_1"/><linearGradient id="New_Gradient_Swatch_copy_9-6" x1="4825.82" y1="110.44" x2="4834.86" y2="65.46" xlink:href="#New_Gradient_Swatch_copy_9"/><linearGradient id="linear-gradient-2" x1="4837.58" y1="127.67" x2="4825.25" y2="57.32" gradientTransform="matrix(-1, 0, 0, 1, 4916.98, -8.32)" gradientUnits="userSpaceOnUse"><stop offset="0" stop-color="#b2c2a5"/><stop offset="0.14" stop-color="#8d9a83"/><stop offset="0.36" stop-color="#5c6455"/><stop offset="0.56" stop-color="#343931"/><stop offset="0.74" stop-color="#181a17"/><stop offset="0.89" stop-color="#070807"/><stop offset="1" stop-color="#010101"/></linearGradient><linearGradient id="New_Gradient_Swatch_copy_9-7" x1="4825.18" y1="102.3" x2="4837.96" y2="71.84" xlink:href="#New_Gradient_Swatch_copy_9"/><linearGradient id="New_Gradient_Swatch_copy_9-8" x1="4818.76" y1="84.49" x2="4844.14" y2="52.94" xlink:href="#New_Gradient_Swatch_copy_9"/><linearGradient id="New_Gradient_Swatch_copy_9-9" x1="4837.59" y1="99.64" x2="4862.98" y2="68.1" xlink:href="#New_Gradient_Swatch_copy_9"/><linearGradient id="New_Gradient_Swatch_copy_11-3" x1="4882.34" y1="103.15" x2="4897.25" y2="105.61" xlink:href="#New_Gradient_Swatch_copy_11"/><linearGradient id="linear-gradient-3" x1="4877.04" y1="127.15" x2="4903.04" y2="115.49" gradientTransform="matrix(-1, 0, 0, 1, 4916.98, -8.32)" gradientUnits="userSpaceOnUse"><stop offset="0" stop-color="#e0e5da"/><stop offset="1" stop-color="#fff"/></linearGradient><linearGradient id="linear-gradient-4" x1="4899.32" y1="125.75" x2="4911.29" y2="159.61" gradientTransform="matrix(-1, 0, 0, 1, 4916.98, -8.32)" gradientUnits="userSpaceOnUse"><stop offset="0.02" stop-color="#a6af9f"/><stop offset="0.53" stop-color="#babfb3"/><stop offset="0.74" stop-color="#c0c4ba"/><stop offset="1" stop-color="#cfd2ca"/></linearGradient><linearGradient id="New_Gradient_Swatch_copy_10" x1="-2350.85" y1="160.67" x2="-2377.78" y2="124.59" gradientTransform="matrix(1, 0, 0, 1, 2398.67, -4.08)" gradientUnits="userSpaceOnUse"><stop offset="0" stop-color="#070711"/><stop offset="0.5"/><stop offset="1" stop-color="#070711"/></linearGradient><linearGradient id="New_Gradient_Swatch_copy_9-10" x1="4875.74" y1="144.59" x2="4928.01" y2="154.61" gradientTransform="matrix(-0.86, -0.5, -0.5, 0.86, 4323.14, 2487.8)" xlink:href="#New_Gradient_Swatch_copy_9"/><linearGradient id="New_Gradient_Swatch_copy_11-4" x1="4878.72" y1="147.26" x2="4900.62" y2="147.26" gradientTransform="matrix(-0.86, -0.5, -0.5, 0.86, 4323.14, 2487.79)" xlink:href="#New_Gradient_Swatch_copy_11"/><linearGradient id="New_Gradient_Swatch_copy_11-5" x1="4878.72" y1="146.72" x2="4897.99" y2="146.72" xlink:href="#New_Gradient_Swatch_copy_11"/><radialGradient id="New_Gradient_Swatch_copy_15" cx="4888.36" cy="147.32" r="3.3" gradientTransform="matrix(-1, 0, 0, 1, 4916.98, -8.32)" gradientUnits="userSpaceOnUse"><stop offset="0" stop-color="#eeecf7"/><stop offset="0.58" stop-color="#d5d0e9"/><stop offset="1" stop-color="#e0e5da"/></radialGradient><radialGradient id="Radial_Gradient_1-7" cx="-2368.19" cy="146.74" r="16.6" gradientTransform="matrix(1, 0, 0, 1, 2398.67, -4.08)" xlink:href="#Radial_Gradient_1"/><linearGradient id="New_Gradient_Swatch_copy_9-11" x1="20.27" y1="147.06" x2="37.73" y2="147.06" gradientTransform="matrix(1, 0, 0, 1, -0.13, -0.05)" xlink:href="#New_Gradient_Swatch_copy_9"/><linearGradient id="New_Gradient_Swatch_copy_14" x1="-2366.1" y1="151.41" x2="-2373.47" y2="141.54" gradientTransform="matrix(1, 0, 0, 1, 2398.67, -4.08)" gradientUnits="userSpaceOnUse"><stop offset="0.01" stop-color="#c4c8bd"/><stop offset="0.06" stop-color="#cdd0c7"/><stop offset="0.15" stop-color="#e5e7e2"/><stop offset="0.22" stop-color="#fff"/><stop offset="0.26" stop-color="#f6f7f5"/><stop offset="0.32" stop-color="#dfe1db"/><stop offset="0.36" stop-color="#cfd2ca"/><stop offset="0.36" stop-color="#cfd2ca"/><stop offset="0.5" stop-color="#c2c6bb"/><stop offset="0.61" stop-color="#bdc2b6"/><stop offset="1" stop-color="#bec3b7"/></linearGradient><linearGradient id="New_Gradient_Swatch_copy_11-6" x1="4885.43" y1="145.89" x2="4903.24" y2="152.97" xlink:href="#New_Gradient_Swatch_copy_11"/><linearGradient id="New_Gradient_Swatch_copy_11-7" x1="4879.77" y1="166.36" x2="4878.24" y2="113.99" xlink:href="#New_Gradient_Swatch_copy_11"/><linearGradient id="New_Gradient_Swatch_copy_11-8" x1="4885.19" y1="146.17" x2="4861.8" y2="127.68" xlink:href="#New_Gradient_Swatch_copy_11"/><linearGradient id="New_Gradient_Swatch_copy_11-9" x1="4876.24" y1="141.72" x2="4967.9" y2="142.53" xlink:href="#New_Gradient_Swatch_copy_11"/><radialGradient id="Radial_Gradient_1-8" cx="4883.26" cy="140.22" r="10.75" xlink:href="#Radial_Gradient_1"/><radialGradient id="Radial_Gradient_1-9" cx="4901.37" cy="130.08" r="5.39" xlink:href="#Radial_Gradient_1"/><linearGradient id="linear-gradient-5" x1="4869.24" y1="147.34" x2="4790.72" y2="147.34" gradientTransform="matrix(-1, 0, 0, 1, 4916.98, -8.32)" gradientUnits="userSpaceOnUse"><stop offset="0" stop-color="#c8ccc3"/><stop offset="0.12" stop-color="#bbc1b5"/><stop offset="0.14" stop-color="#b8beb1"/><stop offset="0.2" stop-color="#fff"/><stop offset="0.22" stop-color="#f6f7f5"/><stop offset="0.24" stop-color="#dfe1db"/><stop offset="0.26" stop-color="#cfd2ca"/><stop offset="0.66" stop-color="#c3c7bc"/><stop offset="1" stop-color="#bec3b7"/></linearGradient><linearGradient id="New_Gradient_Swatch_copy_11-10" x1="4842.86" y1="112.76" x2="4826.51" y2="143.92" xlink:href="#New_Gradient_Swatch_copy_11"/><radialGradient id="radial-gradient" cx="4794.21" cy="122.01" r="1.19" gradientTransform="matrix(-1, 0, 0, 1, 4916.98, -8.32)" gradientUnits="userSpaceOnUse"><stop offset="0" stop-color="#9fa998"/><stop offset="0" stop-color="#9ea897"/><stop offset="0.12" stop-color="#757c70"/><stop offset="0.25" stop-color="#51564e"/><stop offset="0.38" stop-color="#343732"/><stop offset="0.51" stop-color="#1e1f1c"/><stop offset="0.65" stop-color="#0e0e0d"/><stop offset="0.81" stop-color="#040404"/><stop offset="1" stop-color="#010101"/></radialGradient><radialGradient id="radial-gradient-2" cx="4829.43" cy="142.28" r="30.85" xlink:href="#radial-gradient"/><linearGradient id="New_Gradient_Swatch_copy_9-12" x1="4868.99" y1="101.06" x2="4877.18" y2="101.06" xlink:href="#New_Gradient_Swatch_copy_9"/><radialGradient id="New_Gradient_Swatch_copy_13-2" cx="4878.57" cy="99.09" r="11.59" xlink:href="#New_Gradient_Swatch_copy_13"/><radialGradient id="Radial_Gradient_1-10" cx="4877.85" cy="99.27" r="3.59" xlink:href="#Radial_Gradient_1"/><linearGradient id="linear-gradient-6" x1="4876.9" y1="16.76" x2="4850.93" y2="62.05" gradientTransform="matrix(-1, 0, 0, 1, 4916.98, -8.32)" gradientUnits="userSpaceOnUse"><stop offset="0.01" stop-color="#c4c8bd"/><stop offset="0.14" stop-color="#cdd0c7"/><stop offset="0.37" stop-color="#e5e7e2"/><stop offset="0.57" stop-color="#fff"/><stop offset="0.63" stop-color="#f6f7f5"/><stop offset="0.72" stop-color="#dfe1db"/><stop offset="0.78" stop-color="#cfd2ca"/><stop offset="0.9" stop-color="#c3c7bc"/><stop offset="1" stop-color="#bec3b7"/></linearGradient><linearGradient id="New_Gradient_Swatch_copy_11-11" x1="4881.91" y1="60.61" x2="4968.48" y2="34.69" xlink:href="#New_Gradient_Swatch_copy_11"/><radialGradient id="Radial_Gradient_1-11" cx="4894.03" cy="56.37" r="19.21" xlink:href="#Radial_Gradient_1"/><linearGradient id="New_Gradient_Swatch_copy_11-12" x1="4853.31" y1="143.35" x2="4841.89" y2="146.8" xlink:href="#New_Gradient_Swatch_copy_11"/><linearGradient id="New_Gradient_Swatch_copy_11-13" x1="4793.12" y1="112.48" x2="4801.1" y2="124.27" xlink:href="#New_Gradient_Swatch_copy_11"/><linearGradient id="linear-gradient-7" x1="4853.31" y1="142.54" x2="4841.89" y2="145.98" gradientTransform="matrix(-1, 0, 0, 1, 4916.98, -8.32)" gradientUnits="userSpaceOnUse"><stop offset="0" stop-color="#f5ece9"/><stop offset="1" stop-color="#fff"/></linearGradient><linearGradient id="linear-gradient-8" x1="4793.12" y1="111.85" x2="4801.1" y2="123.64" xlink:href="#linear-gradient-7"/><linearGradient id="linear-gradient-9" x1="4801.41" y1="121.57" x2="4794.2" y2="111.38" gradientTransform="matrix(-1, 0, 0, 1, 4916.98, -8.32)" gradientUnits="userSpaceOnUse"><stop offset="0" stop-color="#a5ad9e"/><stop offset="0.28" stop-color="#c8cdc3"/><stop offset="0.57" stop-color="#e6e8e4"/><stop offset="0.81" stop-color="#f8f9f8"/><stop offset="0.97" stop-color="#fff"/><stop offset="1" stop-color="#fff"/></linearGradient><linearGradient id="linear-gradient-10" x1="4850.47" y1="158.06" x2="4835.78" y2="161.33" xlink:href="#linear-gradient-7"/><linearGradient id="linear-gradient-11" x1="4833.92" y1="156.71" x2="4850.99" y2="160.25" gradientTransform="matrix(-1, 0, 0, 1, 4916.98, -8.32)" gradientUnits="userSpaceOnUse"><stop offset="0" stop-color="#a5ad9e"/><stop offset="0.31" stop-color="#cbd0c7"/><stop offset="0.59" stop-color="#e7eae6"/><stop offset="0.83" stop-color="#f9f9f8"/><stop offset="1" stop-color="#fff"/></linearGradient><linearGradient id="linear-gradient-12" x1="4790.96" y1="126.95" x2="4803.11" y2="141.27" xlink:href="#linear-gradient-7"/><linearGradient id="linear-gradient-13" x1="4805.2" y1="142.03" x2="4792.56" y2="127.13" xlink:href="#linear-gradient-11"/><linearGradient id="New_Gradient_Swatch_copy_11-14" x1="4804.81" y1="140.62" x2="4862.64" y2="175.07" xlink:href="#New_Gradient_Swatch_copy_11"/><linearGradient id="linear-gradient-14" x1="4838.76" y1="143.41" x2="4856.21" y2="138.18" xlink:href="#linear-gradient-11"/><linearGradient id="New_Gradient_Swatch_copy_12" x1="3120.61" y1="141.29" x2="3125.04" y2="141.29" gradientTransform="matrix(1, 0, 0, 1, -3050.66, 5.08)" gradientUnits="userSpaceOnUse"><stop offset="0.04" stop-color="#f4f3fa"/><stop offset="1" stop-color="#fffefa"/></linearGradient><linearGradient id="New_Gradient_Swatch_copy_12-2" x1="-436.62" y1="141.44" x2="-433.46" y2="141.44" gradientTransform="matrix(-1, 0, 0, 1, -361.57, 0.56)" xlink:href="#New_Gradient_Swatch_copy_12"/><linearGradient id="New_Gradient_Swatch_copy_12-3" x1="3168.07" y1="117.83" x2="3172.5" y2="117.83" xlink:href="#New_Gradient_Swatch_copy_12"/><linearGradient id="New_Gradient_Swatch_copy_12-4" x1="-484.08" y1="117.98" x2="-480.91" y2="117.98" gradientTransform="matrix(-1, 0, 0, 1, -361.57, 0.56)" xlink:href="#New_Gradient_Swatch_copy_12"/><linearGradient id="New_Gradient_Swatch_copy_12-5" x1="3121.99" y1="161.31" x2="3125.48" y2="161.31" xlink:href="#New_Gradient_Swatch_copy_12"/><linearGradient id="New_Gradient_Swatch_copy_12-6" x1="-436.95" y1="161.36" x2="-434.33" y2="161.36" gradientTransform="matrix(-1, 0, 0, 1, -361.57, 0.56)" xlink:href="#New_Gradient_Swatch_copy_12"/><linearGradient id="New_Gradient_Swatch_copy_12-7" x1="3126.07" y1="158.8" x2="3129.56" y2="158.8" xlink:href="#New_Gradient_Swatch_copy_12"/><linearGradient id="New_Gradient_Swatch_copy_12-8" x1="-441.02" y1="158.85" x2="-438.41" y2="158.85" gradientTransform="matrix(-1, 0, 0, 1, -361.57, 0.56)" xlink:href="#New_Gradient_Swatch_copy_12"/><linearGradient id="New_Gradient_Swatch_copy_12-9" x1="3165.85" y1="136.5" x2="3169.34" y2="136.5" xlink:href="#New_Gradient_Swatch_copy_12"/><linearGradient id="New_Gradient_Swatch_copy_12-10" x1="-480.8" y1="136.54" x2="-478.19" y2="136.54" gradientTransform="matrix(-1, 0, 0, 1, -361.57, 0.56)" xlink:href="#New_Gradient_Swatch_copy_12"/><linearGradient id="New_Gradient_Swatch_copy_12-11" x1="3169.72" y1="134.12" x2="3173.21" y2="134.12" xlink:href="#New_Gradient_Swatch_copy_12"/><linearGradient id="New_Gradient_Swatch_copy_12-12" x1="-484.68" y1="134.16" x2="-482.06" y2="134.16" gradientTransform="matrix(-1, 0, 0, 1, -361.57, 0.56)" xlink:href="#New_Gradient_Swatch_copy_12"/><linearGradient id="New_Gradient_Swatch_copy_12-13" x1="3115.03" y1="144.46" x2="3122.17" y2="144.46" xlink:href="#New_Gradient_Swatch_copy_12"/><linearGradient id="New_Gradient_Swatch_copy_12-14" x1="-433.76" y1="144.97" x2="-430.57" y2="144.97" gradientTransform="matrix(-1, 0, 0, 1, -361.57, 0.56)" xlink:href="#New_Gradient_Swatch_copy_12"/><radialGradient id="Radial_Gradient_1-12" cx="4849.02" cy="147.32" r="9.41" xlink:href="#Radial_Gradient_1"/><linearGradient id="New_Gradient_Swatch_copy_11-15" x1="4786.21" y1="121.87" x2="4837.34" y2="165.91" xlink:href="#New_Gradient_Swatch_copy_11"/><radialGradient id="Radial_Gradient_1-13" cx="4826.11" cy="147.35" r="7.6" xlink:href="#Radial_Gradient_1"/><radialGradient id="Radial_Gradient_1-14" cx="4822.27" cy="107.3" r="17.77" xlink:href="#Radial_Gradient_1"/><radialGradient id="Radial_Gradient_1-15" cx="4843.24" cy="159.7" r="4.85" xlink:href="#Radial_Gradient_1"/><radialGradient id="Radial_Gradient_1-16" cx="4797.04" cy="132.56" r="4.46" xlink:href="#Radial_Gradient_1"/><radialGradient id="Radial_Gradient_1-17" cx="4798.48" cy="119.51" r="6.96" xlink:href="#Radial_Gradient_1"/><radialGradient id="radial-gradient-3" cx="11611.12" cy="2764.02" r="25.84" gradientTransform="matrix(-0.09, -0.18, -0.88, 0.47, 3587.93, 829.56)" xlink:href="#radial-gradient"/><linearGradient id="linear-gradient-15" x1="4795.66" y1="116.64" x2="4755.12" y2="137.76" gradientTransform="matrix(-1, 0, 0, 1, 4916.98, -8.32)" gradientUnits="userSpaceOnUse"><stop offset="0" stop-color="#a99690"/><stop offset="0.07" stop-color="#b5a49f"/><stop offset="0.25" stop-color="#cfc5c2"/><stop offset="0.43" stop-color="#e4dedd"/><stop offset="0.61" stop-color="#f3f1f0"/><stop offset="0.8" stop-color="#fcfbfb"/><stop offset="1" stop-color="#fff"/></linearGradient><linearGradient id="linear-gradient-16" x1="4797.67" y1="134.87" x2="4778.69" y2="144.76" xlink:href="#linear-gradient-15"/><linearGradient id="linear-gradient-17" x1="4843.63" y1="160.98" x2="4824.66" y2="170.87" xlink:href="#linear-gradient-15"/><linearGradient id="linear-gradient-18" x1="4844.37" y1="143.07" x2="4795.07" y2="168.77" xlink:href="#linear-gradient-15"/><linearGradient id="New_Gradient_Swatch_copy_10-2" x1="43.12" y1="47.86" x2="91.67" y2="47.86" gradientTransform="matrix(1, 0, 0, 1, 0, 0)" xlink:href="#New_Gradient_Swatch_copy_10"/><linearGradient id="New_Gradient_Swatch_copy_10-3" x1="48.69" y1="31.42" x2="81.38" y2="31.42" gradientTransform="matrix(1, 0, 0, 1, 0, 0)" xlink:href="#New_Gradient_Swatch_copy_10"/><linearGradient id="New_Gradient_Swatch_copy_10-4" x1="47.85" y1="59.56" x2="48.83" y2="59.56" gradientTransform="matrix(1, 0, 0, 1, 0, 0)" xlink:href="#New_Gradient_Swatch_copy_10"/><linearGradient id="New_Gradient_Swatch_copy_10-5" x1="78.47" y1="41.01" x2="79.41" y2="41.01" gradientTransform="matrix(1, 0, 0, 1, 0, 0)" xlink:href="#New_Gradient_Swatch_copy_10"/><linearGradient id="New_Gradient_Swatch_copy_10-6" x1="56.11" y1="53.65" x2="56.99" y2="53.65" gradientTransform="matrix(1, 0, 0, 1, 0, 0)" xlink:href="#New_Gradient_Swatch_copy_10"/></defs><g class="cls-1"><g id="Capa_2" data-name="Capa 2"><g id="Capa_1-2" data-name="Capa 1"><path class="cls-2" d="M114.84,78.73a.56.56,0,0,0,.44-.22l3.22-4.41A7.56,7.56,0,0,0,120,69.59l0-9a7.6,7.6,0,0,0-5.76-7.38L109.33,52a.54.54,0,0,0-.66.4.54.54,0,0,0,.39.66l4.86,1.21a6.53,6.53,0,0,1,5,6.33v9a6.46,6.46,0,0,1-1.26,3.86l-3.22,4.41a.55.55,0,0,0,.12.76A.56.56,0,0,0,114.84,78.73Z"/><path class="cls-3" d="M117.47,72.11l2.62-1.52a5.07,5.07,0,0,0,2.09-4V58.66c0-1.54-1-2.26-2.1-1.59l-2.62,1.52a5.05,5.05,0,0,0-2.1,4l0,7.91C115.37,72.06,116.31,72.78,117.47,72.11Z"/><path class="cls-4" d="M117.45,58.59l2.62-1.52a1.22,1.22,0,0,1,1.63.13,1.58,1.58,0,0,0-.91.23L118.17,59a5.07,5.07,0,0,0-2.09,4v7.92a2.08,2.08,0,0,0,.47,1.45c-.7,0-1.19-.71-1.19-1.82l0-7.91A5.05,5.05,0,0,1,117.45,58.59Z"/><polygon class="cls-5" points="0 33.99 0.13 111.26 63.01 75.35 62 0 0 33.99"/><path class="cls-6" d="M62.82,21.42l41.42,24a21.38,21.38,0,0,1,10.2,13.34l5.86,22.94a85.75,85.75,0,0,1,2.66,21l0,26.86L64.05,163.08l0-23.9a85.65,85.65,0,0,0-4-25.71l-7.57-23.8a21.38,21.38,0,0,0-9.86-12.16L3.84,55Z"/><path class="cls-7" d="M64,139.07l0,24L32.44,145,30,131.06l-26-15.45L3.84,55,42.71,77.59A21.38,21.38,0,0,1,52.6,89.8l7.48,23.77A85.5,85.5,0,0,1,64,139.07Z"/><path class="cls-8" d="M63.21,138.93a85.49,85.49,0,0,0-3.94-25.5L51.78,89.66A21.47,21.47,0,0,0,41.9,77.45L4.24,55.59v-1L43.12,77.18A21.45,21.45,0,0,1,53,89.39l7.48,23.77a85.17,85.17,0,0,1,3.94,25.5l0,24-1.22-.7Z"/><path class="cls-9" d="M49,90.93l7.49,23.79a1.89,1.89,0,0,1-2.75,2.2l-23.4-13.6A5,5,0,0,1,27.85,99l0-19.54a1.89,1.89,0,0,1,2.84-1.63l14.52,8.44A8.36,8.36,0,0,1,49,90.9Z"/><path class="cls-10" d="M74,120.37v8.82a12.2,12.2,0,0,0,18.28,10.56l8.45-4.84a29.75,29.75,0,0,0,15-25.86l0-12.73Z"/><path class="cls-11" d="M86.28,138.13a8.85,8.85,0,0,0,4.42-1.21l8.44-4.84a26.53,26.53,0,0,0,13.31-23V102L77.3,122.26v6.92A9,9,0,0,0,86.28,138.13Z"/><path class="cls-12" d="M108.1,123.62l-24.42,14.1A10,10,0,0,1,82,137l27.64-16A26.63,26.63,0,0,1,108.1,123.62Zm3.36-7.38L79.31,134.8a8.2,8.2,0,0,1-.86-1.23L112,114.23C111.81,114.91,111.65,115.58,111.46,116.24Zm1-7.18c0,.39,0,.79,0,1.18l-35,20.21a8.71,8.71,0,0,1-.1-1.27v-.4l35.14-20.28Zm0-6v1.72L77.3,125.07v-1.73Z"/><g class="cls-13"><path class="cls-14" d="M109.17,121.83l-26.7,15.4c-.17-.08-.34-.15-.51-.24l27.64-16C109.46,121.3,109.31,121.56,109.17,121.83Z"/><path class="cls-15" d="M111.79,114.87,78.72,134c-.09-.14-.19-.25-.27-.39L112,114.23C111.9,114.45,111.84,114.65,111.79,114.87Z"/><path class="cls-16" d="M112.45,109,77.32,129.32s0-.09,0-.14v-.4l35.14-20.28Z"/><polygon class="cls-17" points="112.44 103.06 112.44 103.6 77.3 123.89 77.3 123.34 112.44 103.06"/></g><path class="cls-18" d="M66,117.18a3.63,3.63,0,0,0,1.72-.46l47.84-27.25a5.86,5.86,0,0,0,2.77-6.54l-6-23.6a19.35,19.35,0,0,0-1.28-3.53,2.16,2.16,0,0,0-1.93-1.22,2,2,0,0,0-1,.28L56,84.88a3.44,3.44,0,0,0-1.51,4.05l8.2,25.8A3.5,3.5,0,0,0,66,117.18Z"/><path class="cls-19" d="M118.36,82.93l-6-23.6a19.35,19.35,0,0,0-1.28-3.53,2.16,2.16,0,0,0-1.93-1.22,2,2,0,0,0-1,.28L56,84.88C54.6,85.68,119,85.48,118.36,82.93Z"/><path class="cls-20" d="M64.91,114.46a3.51,3.51,0,0,0,1.75-.47l48.53-27.64A5.93,5.93,0,0,0,118.12,82l.24,1a5.86,5.86,0,0,1-2.77,6.54L67.75,116.72a3.63,3.63,0,0,1-1.72.46,3.5,3.5,0,0,1-3.35-2.45l-.49-1.54A3.56,3.56,0,0,0,64.91,114.46Z"/><path class="cls-21" d="M89.39,88.84l13.54-3a.53.53,0,0,1,.5-.12h0l8-1.75a.54.54,0,0,1,.65.41.55.55,0,0,1-.42.65l-8,1.75-2.59,9a.56.56,0,0,1-.52.39l-.15,0a.56.56,0,0,1-.38-.68l2.43-8.38L89.62,89.9h-.11a.56.56,0,0,1-.54-.42A.55.55,0,0,1,89.39,88.84Z"/><path class="cls-22" d="M68,100.84l13.54-3a.58.58,0,0,1,.51-.12h0L90,96a.54.54,0,0,1,.23,1.06l-8,1.75-2.59,9a.53.53,0,0,1-.52.39l-.15,0a.53.53,0,0,1-.37-.67l2.42-8.38L68.25,101.9l-.12,0a.55.55,0,0,1-.53-.43A.54.54,0,0,1,68,100.84Z"/><g class="cls-23"><path class="cls-24" d="M12.64,68.69a.79.79,0,0,0-.8.8l0,19.53a4,4,0,0,0,2,3.41l6.52,3.79a1.28,1.28,0,0,0,.66.18,1.33,1.33,0,0,0,1.32-1.32l0-18.52A4.19,4.19,0,0,0,20.24,73L13,68.8a.66.66,0,0,0-.4-.11Zm0-1.09a1.89,1.89,0,0,1,.95.26L20.79,72a5.24,5.24,0,0,1,2.6,4.52l0,18.52A2.4,2.4,0,0,1,21,97.49a2.35,2.35,0,0,1-1.21-.33l-6.52-3.79A5,5,0,0,1,10.79,89l0-19.53a1.89,1.89,0,0,1,1.89-1.89Z"/></g><path class="cls-25" d="M23.35,102l3.43,2A2.49,2.49,0,0,1,28,106.17v.17a1.15,1.15,0,0,1-1.72,1l-3.1-1.8A2.39,2.39,0,0,1,22,103.46v-.65A.9.9,0,0,1,23.35,102Z"/><g class="cls-23"><path class="cls-24" d="M23.2,105.53l3.1,1.8a1.15,1.15,0,0,0,1.71-.9s0,.06,0,.09v.59a1.15,1.15,0,0,1-1.72,1l-3.1-1.8A2.41,2.41,0,0,1,22,104.23v-.77A2.39,2.39,0,0,0,23.2,105.53Z"/></g><polygon class="cls-26" points="29.59 113.88 3.94 115.61 29.92 130.9 29.59 113.88"/><polygon class="cls-27" points="11.78 127 11.79 138.69 20.68 133.68 20.07 122.03 11.78 127"/><path class="cls-28" d="M51.45,151.16c0,4.75-1.62,8.12-4.29,9.76L39,165.65c-2.77,1.56-1-2-5.22-4.39-8.5-4.89-15.4-16.75-15.42-26.48,0-4.82-4.46-4.85-1.73-6.46.07,0,8.57-4.77,8.65-4.81,2.77-1.51,6.55-1.24,10.73,1.16C44.54,129.56,51.44,141.42,51.45,151.16Z"/><ellipse class="cls-29" cx="27.56" cy="147.16" rx="12.51" ry="21.67" transform="translate(-70.7 34.19) rotate(-30.41)"/><ellipse class="cls-30" cx="27.56" cy="147.16" rx="8.91" ry="15.44" transform="translate(-70.7 34.19) rotate(-30.41)"/><path class="cls-31" d="M38.52,153.47a9.45,9.45,0,0,1-1.38,5.32c-1.87,1.35-4.61,1.31-7.66-.44-5.65-3.25-10.24-11.14-10.25-17.61,0-4.68,2.37-7.35,5.83-7.24a12.86,12.86,0,0,1,2.48,1.1C33.59,138.08,38.51,146.53,38.52,153.47Z"/><path class="cls-24" d="M21.28,133.25c-2,1.15-3.16,3.57-3.15,7,0,6.94,4.93,15.39,11,18.87a8.84,8.84,0,0,0,6.26,1.35c-2,1.16-4.74,1-7.79-.75-6.06-3.48-11-11.93-11-18.87C16.59,136.59,18.44,133.89,21.28,133.25Z"/><path class="cls-32" d="M31.73,148.87c0,1.81-1.28,2.55-2.86,1.63A6.32,6.32,0,0,1,26,145.57c0-1.82,1.28-2.55,2.87-1.64A6.31,6.31,0,0,1,31.73,148.87Z"/><path class="cls-33" d="M28.26,129.16c-4.07-2.34-7.77-2.65-10.51-1.27,2.56-.72,5.74-.19,9.19,1.79,8.49,4.88,15.39,16.74,15.41,26.48,0,5.07-1.85,8.56-4.84,10.06,3.75-1.06,6.18-4.79,6.17-10.58C43.66,145.9,36.76,134.05,28.26,129.16Z"/><path class="cls-34" d="M29.1,136.94a3.18,3.18,0,0,1,1.44,2.46c0,.91-.64,1.28-1.43.82a3.15,3.15,0,0,1-1.44-2.46C27.67,136.85,28.31,136.48,29.1,136.94Zm0,16.76a3.12,3.12,0,0,1,1.43,2.46c0,.91-.63,1.27-1.43.82a3.16,3.16,0,0,1-1.43-2.47C27.7,153.61,28.34,153.24,29.13,153.7ZM25,139.8c-.55.32-1.46-.2-2-1.16s-.56-2,0-2.32,1.47.2,2,1.16S25.51,139.49,25,139.8Zm8.33,14.31c.56-.32,1.47.2,2,1.17s.56,2,0,2.32-1.46-.2-2-1.17S32.72,154.43,33.28,154.11Zm-11.47-13a3.16,3.16,0,0,1,1.43,2.47c0,.91-.64,1.27-1.43.82a3.16,3.16,0,0,1-1.43-2.47C20.37,141,21,140.66,21.81,141.11Zm14.61,8.41A3.17,3.17,0,0,1,37.86,152c0,.9-.64,1.27-1.43.81A3.16,3.16,0,0,1,35,150.34C35,149.43,35.63,149.07,36.42,149.52Zm-13.48-1.35c.56-.32,1.47.2,2,1.16s.56,2,0,2.32-1.46-.2-2-1.16S22.39,148.49,22.94,148.17Zm10.32-5.91c.56-.32,1.47.21,2,1.17s.56,2,0,2.32-1.46-.2-2-1.17S32.7,142.58,33.26,142.26Z"/><path class="cls-35" d="M33.55,148.87a3,3,0,0,1-1.19,2.69l-1.78,1.07c-.76.43-.28-.54-1.44-1.21a9.35,9.35,0,0,1-4.25-7.3c0-1.32-1.23-1.33-.48-1.78l1.93-1.09a3,3,0,0,1,3,.32A9.35,9.35,0,0,1,33.55,148.87Z"/><path class="cls-36" d="M31.66,150c0,2.69-1.89,3.77-4.23,2.43a9.34,9.34,0,0,1-4.25-7.3c0-2.69,1.89-3.77,4.23-2.42A9.33,9.33,0,0,1,31.66,150Z"/><polygon class="cls-37" points="46.84 164.06 46.81 147.14 35.76 128.16 20.23 119.23 29.59 113.88 45.18 122.84 56.22 141.82 56.25 158.74 46.84 164.06"/><polygon class="cls-38" points="46.81 147.14 35.76 128.16 45.18 122.84 56.22 141.82 46.81 147.14"/><polygon class="cls-39" points="44.23 162.67 44.21 147.84 33.87 130.07 20.17 122.2 11.78 127 11.79 138.69 9.19 137.2 9.17 125.5 20.18 119.2 35.76 128.16 46.81 147.14 46.84 164.16 44.23 162.67"/><g class="cls-13"><polygon class="cls-40" points="46.53 146.8 35.49 127.83 20.13 118.99 20.72 118.66 36.31 127.62 47.35 146.59 47.38 163.61 46.56 163.14 46.53 146.8"/><polygon class="cls-41" points="11.52 137.68 11.5 126.66 19.9 121.86 20.13 121.99 12.32 126.46 12.34 138.14 11.52 137.68"/></g><path class="cls-42" d="M127.43,123.87,68.45,159a9.39,9.39,0,0,1-9.29,0l-11-6.17,0,10,11.14,6.25a9.37,9.37,0,0,0,9.32,0l58.86-33.92Z"/><path class="cls-43" d="M126.42,125.79,68.45,159a9.39,9.39,0,0,1-9.29,0l-11-6.17,3-1.73,8,4.51a9.39,9.39,0,0,0,9.37,0L123,124.08l0-4,3.54,2.17A2.06,2.06,0,0,1,126.42,125.79Z"/><g class="cls-13"><polygon class="cls-44" points="123.02 123.4 122.95 123.44 122.92 120.07 123 120.11 123.02 123.4"/><path class="cls-45" d="M48.74,152.5l10.49,5.85a9.39,9.39,0,0,0,9.29,0l58-33.21a2,2,0,0,0,1-1.22,2,2,0,0,1-1,1.9L68.45,159a9.39,9.39,0,0,1-9.29,0l-11-6.17Z"/></g><path class="cls-46" d="M47.64,117a.54.54,0,0,0,.47-.26.55.55,0,0,0-.19-.75l-3.69-2.21a6.57,6.57,0,0,1-3.16-5.59l0-14.38a6.53,6.53,0,0,1,2.9-5.44l3.61-2.42A.54.54,0,1,0,47,85l-3.61,2.42A7.6,7.6,0,0,0,40,93.76l0,14.38a7.67,7.67,0,0,0,3.69,6.52l3.69,2.21A.5.5,0,0,0,47.64,117Z"/><path class="cls-47" d="M38.2,109l2.63-1.52a5.07,5.07,0,0,0,2.09-4l0-7.91c0-1.54-.94-2.26-2.1-1.59l-2.62,1.52a5.07,5.07,0,0,0-2.09,4v7.91C36.1,108.91,37.05,109.63,38.2,109Z"/><path class="cls-48" d="M38.18,95.44l2.62-1.52a1.24,1.24,0,0,1,1.64.13,1.56,1.56,0,0,0-.91.23L38.91,95.8a5.05,5.05,0,0,0-2.1,4l0,7.92a2.13,2.13,0,0,0,.46,1.45c-.7,0-1.19-.71-1.19-1.82V99.46A5.07,5.07,0,0,1,38.18,95.44Z"/><path class="cls-49" d="M3.7,37.11l58-33.42L83.64,16.8A30.81,30.81,0,0,1,99,43.39l-.1-.06L41,76.43Z"/><path class="cls-50" d="M41.07,76.38h0L3.69,54.52,3.66,37,25.73,49.8A30.79,30.79,0,0,1,41.07,76.38Z"/><path class="cls-51" d="M25.32,49.93l-21-12.17V36.59l22.07,12.8A30.79,30.79,0,0,1,41.75,76l-1.13-.66A30.8,30.8,0,0,0,25.32,49.93Z"/><path class="cls-52" d="M77.28,144.36l-11,6.23A1.53,1.53,0,0,1,64,149.26v-4.81a4.15,4.15,0,0,1,2.21-3.66L69.63,139a4.11,4.11,0,0,1,4.37.32l3.43,2.49A1.54,1.54,0,0,1,77.28,144.36Z"/><path class="cls-53" d="M123,115v4a1.46,1.46,0,0,1-.8,1.3l-4.78,2.47a1.12,1.12,0,0,1-1.57-1.39l1.9-5.21a3.1,3.1,0,0,1,1.57-1.73l1.57-.75A1.46,1.46,0,0,1,123,115Z"/><path class="cls-54" d="M77.28,143.54l-11,6.24A1.53,1.53,0,0,1,64,148.44v-4.8a4.13,4.13,0,0,1,2.2-3.66l3.45-1.83a4.16,4.16,0,0,1,4.37.32l3.42,2.5A1.53,1.53,0,0,1,77.28,143.54Z"/><path class="cls-55" d="M123,114.31v4a1.47,1.47,0,0,1-.8,1.31l-4.78,2.46a1.13,1.13,0,0,1-1.58-1.39l1.91-5.21a3.12,3.12,0,0,1,1.57-1.72l1.57-.76A1.47,1.47,0,0,1,123,114.31Z"/><path class="cls-56" d="M123,114.31s-6.42,7.91-6.74,7.68a1.13,1.13,0,0,1-.41-1.31l1.91-5.21a3.12,3.12,0,0,1,1.57-1.72l1.57-.76A1.47,1.47,0,0,1,123,114.31Z"/><path class="cls-57" d="M76.34,156.56l-8.25,4.75,2.43,1.62a3.78,3.78,0,0,0,4,.11L83,158l-3.1-1.57A3.78,3.78,0,0,0,76.34,156.56Z"/><path class="cls-58" d="M76.34,156.56l-8.25,4.75L83,158l-3.1-1.57A3.78,3.78,0,0,0,76.34,156.56Z"/><path class="cls-59" d="M125.42,128.81l-8.87,5.1a3.76,3.76,0,0,0-1.64,1.9l-2.12,5.46,9.32-5.47a3.76,3.76,0,0,0,1.68-2.06Z"/><path class="cls-60" d="M125.42,128.81l-8.87,5.1a3.76,3.76,0,0,0-1.64,1.9l-2.12,5.46Z"/><path class="cls-61" d="M110.85,144.69l.06-1.88a2.58,2.58,0,0,0-3.87-2.23L90.1,150.36a8.51,8.51,0,0,0-4.25,7.37v1.46Z"/><path class="cls-62" d="M64.11,142.63A4.09,4.09,0,0,1,66.18,140l3.45-1.83a4.16,4.16,0,0,1,4.37.32l3.42,2.5A1.52,1.52,0,0,1,78,142.6Z"/><path class="cls-63" d="M74.62,139.35l-1.88,4s-3-2.65-2.48-3.87S74.62,139.35,74.62,139.35Z"/><path class="cls-64" d="M72.13,142.18c0,1,.71,1.41,1.58.91a3.47,3.47,0,0,0,1.58-2.74c0-1-.71-1.41-1.58-.9A3.48,3.48,0,0,0,72.13,142.18Z"/><path class="cls-65" d="M122,115.82l-1.88,4s-3-2.64-2.48-3.87S122,115.82,122,115.82Z"/><path class="cls-66" d="M119.55,118.65c0,1,.71,1.4,1.58.9a3.46,3.46,0,0,0,1.58-2.74c0-1-.71-1.41-1.58-.9A3.48,3.48,0,0,0,119.55,118.65Z"/><path class="cls-67" d="M75.09,159.61l-1.54,3.29s-2.35-2-1.89-3S75.09,159.61,75.09,159.61Z"/><path class="cls-68" d="M73,161.94c0,.83.59,1.16,1.31.75a2.89,2.89,0,0,0,1.3-2.26c0-.83-.59-1.16-1.31-.74A2.87,2.87,0,0,0,73,161.94Z"/><path class="cls-69" d="M79.17,157.09l-1.55,3.28s-2.35-1.94-1.88-3S79.17,157.09,79.17,157.09Z"/><path class="cls-70" d="M77.11,159.42c0,.83.59,1.16,1.31.74a2.83,2.83,0,0,0,1.3-2.25c0-.83-.58-1.16-1.3-.75A2.9,2.9,0,0,0,77.11,159.42Z"/><path class="cls-71" d="M118.91,134.72,117.36,138s-2.35-1.95-1.88-3S118.91,134.72,118.91,134.72Z"/><path class="cls-72" d="M116.85,137.05c0,.83.59,1.16,1.31.74a2.86,2.86,0,0,0,1.3-2.25c0-.83-.58-1.16-1.3-.74A2.84,2.84,0,0,0,116.85,137.05Z"/><path class="cls-73" d="M122.78,132.33l-1.55,3.29s-2.35-2-1.88-3S122.78,132.33,122.78,132.33Z"/><path class="cls-74" d="M120.72,134.67c0,.82.59,1.16,1.31.74a2.9,2.9,0,0,0,1.31-2.26c0-.83-.59-1.16-1.31-.74A2.9,2.9,0,0,0,120.72,134.67Z"/><path class="cls-75" d="M71.76,142.87l-1.89,4s-5.79-3.56-5.22-4.8S71.76,142.87,71.76,142.87Z"/><path class="cls-76" d="M69.25,145.73c0,1,.71,1.42,1.6.91a3.53,3.53,0,0,0,1.59-2.76c0-1-.72-1.42-1.6-.91A3.5,3.5,0,0,0,69.25,145.73Z"/><path class="cls-77" d="M64,148.44v-4.8a4.13,4.13,0,0,1,2.2-3.66l3.45-1.83a4.16,4.16,0,0,1,4.37.32Z"/><polygon class="cls-78" points="90.55 151.83 90.55 156.37 106.92 147.09 106.91 142.43 90.55 151.83"/><polygon class="cls-79" points="106.91 142.43 106.91 143.11 91.09 152.19 91.1 156.06 90.55 156.37 90.55 151.83 106.91 142.43"/><polygon class="cls-80" points="74.09 116.68 74.1 121.22 115.67 97.61 115.67 92.95 74.09 116.68"/><path class="cls-81" d="M76.34,156.56l-8.25,4.75,2.43,1.62c1.2.79,9.41-6.46,9.41-6.46A3.78,3.78,0,0,0,76.34,156.56Z"/><path class="cls-82" d="M125.42,128.81l-8.87,5.1a3.76,3.76,0,0,0-1.64,1.9s8.59-1.2,8.88-2.07Z"/><path class="cls-83" d="M123,114.31v4c0,.55-5.25-2.83-5.25-2.83a3.12,3.12,0,0,1,1.57-1.72l1.57-.76A1.47,1.47,0,0,1,123,114.31Z"/><path class="cls-84" d="M53.32,77.84C40.73,84.56,31.61,92.05,33,94.57S45.59,93.68,58.18,87,79.89,72.75,78.54,70.23,65.9,71.12,53.32,77.84Z"/><path class="cls-85" d="M173,130.39s-16.27,17.09-16.56,16.89-38.85-26.45-38.67-26.93l1.73-4.74a2.83,2.83,0,0,1,1.43-1.57l1.43-.69C123.22,112.93,173,129.41,173,130.39Z"/><path class="cls-86" d="M143.62,141.18s-7.61,8-7.75,7.9-18.18-12.37-18.1-12.6l.82-2.22a1.28,1.28,0,0,1,.66-.73l.67-.32C120.34,133,143.62,140.72,143.62,141.18Z"/><path class="cls-87" d="M97.71,167.37s-7.62,8-7.76,7.9-18.18-12.38-18.1-12.6l.82-2.22a1.3,1.3,0,0,1,.66-.74l.67-.32C74.42,159.19,97.7,166.91,97.71,167.37Z"/><path class="cls-88" d="M134.94,160.89s-18.19,19.18-18.54,18.93-48.84-30.55-48.63-31.13l2.11-5.76A3.42,3.42,0,0,1,71.61,141l1.75-.84C74.43,139.66,134.93,159.7,134.94,160.89Z"/><path class="cls-89" d="M91.13,31.35a1.82,1.82,0,0,0-.16-.53c-.58-1.19-2.18-1.24-4-.13L66.72,43.07,46.41,55.49c-2,1.21-3.44,3.42-3.28,5,.13,1.35.33,2.66.54,4a1.55,1.55,0,0,0,1.6,1.35A4.84,4.84,0,0,0,48,64.93L88.14,40.36l.31-.19c2-1.29,3.42-3.56,3.19-5.19ZM50.77,59a4.28,4.28,0,0,1-2.05,2.83A7.83,7.83,0,0,1,46.59,63c-.16,0-.23,0-.25-.11-.08-.66-.18-1.31-.27-2s-.19-1.3-.28-2a.25.25,0,0,1,.1-.28,8.62,8.62,0,0,1,3-1.92c.75-.25,1.27-.11,1.56.34A2.71,2.71,0,0,1,50.77,59Zm2.84-.22-1.61,1c-.14.09-.19.08-.21,0-.2-1.46-.4-2.91-.61-4.37,0-.12,0-.19.18-.28.54-.32,1.08-.65,1.61-1,.17-.1.2-.07.21.05.1.73.21,1.46.31,2.2s.2,1.43.31,2.15C53.82,58.65,53.77,58.71,53.61,58.81Zm3.93-4.2a6.56,6.56,0,0,1-.91.64c-.17.09-.22.16-.19.3.07.4.11.83.18,1.24,0,.13,0,.19-.18.29-.51.3-1,.61-1.51.93-.19.11-.25.11-.27,0-.08-.69-.19-1.36-.28-2s-.19-1.38-.3-2.07a.31.31,0,0,1,.13-.31,10.37,10.37,0,0,1,3-2c1-.39,1.53-.12,1.62.7A3,3,0,0,1,57.54,54.61Zm4-3.82c.15,0,.45-.25.68-.38a1.13,1.13,0,0,0,.21-.12c.13-.1.17-.07.18,0,0,.26.07.51.11.76s0,.18-.17.26-.49.3-.73.45-.17.12-.15.22a4,4,0,0,1,.07.5c0,.11.07.11.2,0l.91-.56c.14-.09.21-.1.22,0s.07.52.11.77,0,.15-.15.24l-3,1.8c-.17.11-.16,0-.18-.07-.1-.73-.2-1.46-.31-2.19s-.19-1.43-.3-2.13c0-.14,0-.21.19-.32l2.83-1.72c.19-.13.25-.11.26.05a5.36,5.36,0,0,0,.1.7c0,.14,0,.22-.21.32l-.88.54c-.13.07-.18.14-.16.24S61.42,50.75,61.57,50.79ZM67,50.61l-2.82,1.73c-.16.1-.2.08-.22,0-.09-.73-.2-1.45-.3-2.17s-.2-1.45-.31-2.17c0-.13,0-.2.18-.3l1.56-.95c.18-.12.23-.09.25,0,.14,1.08.3,2.15.44,3.23,0,.18.09.19.31.05s.52-.32.78-.49.17-.06.18,0c0,.28.06.55.11.81C67.19,50.49,67.13,50.54,67,50.61Zm6.42-5.19A3.41,3.41,0,0,1,72,47.6a6.46,6.46,0,0,1-2,1.06c-.17.05-.25,0-.2-.17.1-.39.16-.77.24-1.18a1.9,1.9,0,0,0,1-.38.65.65,0,0,0,.28-.34c0-.13,0-.2-.13-.22a2.06,2.06,0,0,0-.73.05c-.74.09-1.08-.24-1.08-.91a2.76,2.76,0,0,1,.92-1.88,5,5,0,0,1,2.38-1.38c.11,0,.14,0,.12.12q-.12.47-.21.93c0,.12-.07.15-.19.18a2.06,2.06,0,0,0-.79.34.62.62,0,0,0-.3.36c0,.15,0,.2.13.23a1.06,1.06,0,0,0,.5,0l.44-.06C73.21,44.27,73.48,44.57,73.43,45.42Zm1.79.26c-.56.33-1.08.24-1.13-.21A1.79,1.79,0,0,1,75,44c.57-.35,1.08-.26,1.14.21A1.71,1.71,0,0,1,75.22,45.68Zm6.67-4.17-1.69,1c-.14.09-.19.06-.23,0s-.07-.35-.2-.34-.39.2-.59.32-.37.25-.55.34a.54.54,0,0,0-.36.49c0,.42-.06.42-.52.7l-1.29.79c.23-1.16.45-2.28.68-3.41.14-.72.3-1.44.43-2.16a.44.44,0,0,1,.25-.33l1.61-1c.13-.08.19-.08.25,0,.77,1.12,1.55,2.24,2.33,3.35C82.07,41.37,82,41.42,81.89,41.51Zm1.81-1c-.57.35-1.08.27-1.15-.17a1.76,1.76,0,0,1,.91-1.47c.57-.35,1.08-.26,1.15.19A1.7,1.7,0,0,1,83.7,40.49Zm5.13-4.71a2.89,2.89,0,0,1-1.13,2.14,6.06,6.06,0,0,1-2.35,1.34c-.16.05-.23,0-.19-.16.1-.4.17-.78.25-1.2a1.82,1.82,0,0,0,1-.37.66.66,0,0,0,.29-.33c0-.16,0-.23-.14-.25A2,2,0,0,0,86,37c-.8.13-1.24-.19-1.21-.89a3.21,3.21,0,0,1,1.32-2.24,5.11,5.11,0,0,1,1.94-1c.15,0,.19,0,.16.14-.08.3-.14.59-.2.88a.21.21,0,0,1-.2.2,2,2,0,0,0-.75.31.73.73,0,0,0-.33.37c0,.17,0,.24.16.26a1.21,1.21,0,0,0,.46,0c.14,0,.28-.05.42-.06C88.45,34.83,88.81,35.13,88.83,35.78Z"/><path class="cls-90" d="M81.26,21.14c-1-.15-1.9-.31-2.84-.48-.13,0-.19,0-.31.19C77.4,22,76.67,23.14,76,24.29c-.11.17-.17.22-.32.2q-2.76-.48-5.53-.93c-.15,0-.15-.08,0-.27.73-1.15,1.45-2.31,2.19-3.46.12-.2.1-.24,0-.26-.94-.15-1.88-.31-2.81-.48-.16,0-.23,0-.35.22l-2.14,3.42c-.13.21-.2.26-.37.23L61.05,22c-.19,0-.28,0-.44.26q-2.23,3.55-4.48,7.11c-.15.24-.17.33,0,.36l5.52.92c.16,0,.17.08,0,.28-.7,1.1-1.4,2.21-2.08,3.32-.13.2-.2.25-.37.22l-5.61-1c-.13,0-.2,0-.33.19Q51.06,37.38,48.77,41c-.11.18-.12.24,0,.27l5.75,1c.15,0,.21,0,.31-.2.43-.71.88-1.41,1.32-2.12l3.17-5a.64.64,0,0,1,.17-.23l.17,0,2.58.44c.27,0,.27,0,.06.38-1.46,2.33-2.93,4.65-4.4,7-.13.21-.13.27,0,.3l5.67,1c.17,0,.25,0,.39-.23l4.42-7c.12-.18.18-.23.33-.21.92.17,1.85.32,2.77.48.13,0,.19,0,.29-.18q1.16-1.85,2.33-3.69c.11-.18.1-.23,0-.25l-2.8-.46c-.15,0-.16-.07,0-.26q2.2-3.49,4.4-7c.11-.18.17-.21.3-.18l2.7.46c.16,0,.23,0,.35-.22.74-1.19,1.49-2.38,2.24-3.57C81.4,21.22,81.42,21.16,81.26,21.14ZM70.86,32.42c-.72,1.14-1.45,2.29-2.16,3.44-.09.15-.15.18-.26.16l-5.58-.94c-.11,0-.09-.07,0-.19.73-1.16,1.45-2.32,2.18-3.47l.11-.16h.12l5.58.94C71,32.23,71,32.28,70.86,32.42Zm-1.19-8.63L65.2,30.9c-.08.12-.13.14-.22.12-.9-.15-1.8-.31-2.71-.45-.14,0-.07-.11,0-.23l1.63-2.58,2.76-4.4.16-.23.13,0,2.7.45C69.75,23.61,69.76,23.65,69.67,23.79Z"/><path class="cls-91" d="M48,59.65c-.05-.39-.1-.78-.16-1.16,0-.14,0-.2.19-.28s.43,0,.5.12a3.88,3.88,0,0,1,.27,1.88,1,1,0,0,1-.4.66c-.16.12-.21.12-.23,0C48.14,60.45,48.08,60.05,48,59.65Z"/><path class="cls-92" d="M79.41,41.41l-.94.57c.06-.64.21-1.31.27-1.94Z"/><path class="cls-93" d="M56.2,53.81c0-.19-.05-.38-.09-.56s0-.16.14-.23c.33-.22.53-.24.63,0a1.32,1.32,0,0,1,.08.78,1.13,1.13,0,0,1-.58.66c-.11.05-.1,0-.1-.07S56.22,54,56.2,53.81Z"/></g></g></g></svg>