<svg width="79" height="63" viewBox="0 0 79 63" fill="none" xmlns="http://www.w3.org/2000/svg">
<path fill-rule="evenodd" clip-rule="evenodd" d="M63.5652 31.5C63.5652 28.8836 62.6082 26.4906 61.0252 24.6522C62.6082 22.8137 63.5652 20.4208 63.5652 17.8043C63.5652 12.0054 58.8642 7.30435 53.0652 7.30435C52.1409 7.30435 51.2446 7.42377 50.3907 7.64803C49.148 3.23492 45.0931 0 40.2826 0C35.4721 0 31.4172 3.23492 30.1746 7.64803C29.3207 7.42377 28.4243 7.30435 27.5 7.30435C21.701 7.30435 17 12.0054 17 17.8043C17 20.4208 17.957 22.8137 19.54 24.6522C17.957 26.4906 17 28.8836 17 31.5C17 37.299 21.701 42 27.5 42C28.2846 42 29.0491 41.9139 29.7846 41.7507C29.8799 46.6738 33.3635 50.7668 38 51.7947V63H42.5652V51.7947C47.2017 50.7668 50.6853 46.6738 50.7806 41.7507C51.5161 41.9139 52.2806 42 53.0652 42C58.8642 42 63.5652 37.299 63.5652 31.5Z" fill="white"/>
</svg>
